<?xml version="1.0" encoding="UTF-8"?>
<svg width="1200pt" height="1200pt" version="1.1" viewBox="0 0 1200 1200" xmlns="http://www.w3.org/2000/svg">
 <path class = "editable" d="m465.47 1137.3c-7.1719-3.3281-11.109-7.5938-14.906-16.219-4.0781-9.1875-4.1719-28.641-0.14062-43.828 4.4531-16.969 16.453-41.203 27.469-55.406l4.125-5.2969-3.5156-7.4531c-1.9219-4.125-7.7812-17.062-13.031-28.734-5.25-11.719-10.078-21.469-10.781-21.75-2.5312-0.9375-1.2656-5.8594 2.0625-8.0156 3.2344-2.1562 3.2812-2.3906 1.4062-9.6094-2.4375-9.4219-6.1875-44.625-6.1406-58.125 0.046875-14.531 3.5625-45.938 7.1719-63.562 7.5938-36.844 22.547-66.141 49.312-96.375 7.1719-8.1094 13.031-15.141 13.031-15.609 0-0.51562-3.375-4.2188-7.4531-8.2969-7.125-7.0312-8.1562-7.5469-20.906-10.312-19.781-4.3594-55.875-5.3438-75.234-2.1562-30.422 5.1094-59.578 15.375-86.156 30.422l-15.938 9.0469 2.8125 4.5938c3.6562 5.9062 3.5625 7.7812-0.65625 11.812-1.875 1.7812-7.4062 11.062-12.234 20.578-12.234 24.094-19.781 37.172-33.328 57.844-12.141 18.516-18.891 25.781-27.328 29.297-6.6094 2.7656-11.203 1.7344-30.375-6.8906-8.8125-3.9375-28.5-12.469-43.781-18.938-32.344-13.734-42.422-18.656-55.688-27.188-20.812-13.406-29.344-24.703-32.25-42.562-3.2344-20.062 3.4219-50.766 13.219-61.312 4.125-4.4062 12.75-8.7656 17.391-8.7656 7.875 0 27.562 6.1406 43.406 13.594 9.0938 4.2188 17.156 7.7344 17.906 7.7344s7.7812-9.75 15.656-21.656c15.938-24.094 33.656-47.719 36.656-48.891 1.0781-0.42188 2.8594 0 3.9844 0.89062 1.6406 1.3594 4.4531-0.32812 14.531-8.5781 32.766-26.859 71.391-45.328 108.33-51.75 20.391-3.5625 49.031-3.2812 62.391 0.60938 5.8125 1.6875 10.688 3.0938 10.734 3.0938 0.09375 0-0.14062-3.7969-0.46875-8.4375-0.51562-7.1719 0.046875-9.7969 3.6094-17.484 5.6719-12.188 19.219-26.297 35.062-36.609 8.3438-5.4375 19.359-14.766 31.312-26.625 10.125-10.031 23.25-22.312 29.109-27.281s10.547-10.031 10.359-11.25c-0.14062-1.2188-1.875-7.4062-3.7969-13.734-4.4062-14.297-12.562-50.953-16.781-75.234-2.6719-15.375-3.1875-23.438-3.1875-51.562 0-35.109 2.0156-53.109 9.4219-84l2.9531-12.328-4.4531-5.1094c-5.7188-6.5156-5.7188-11.156-0.046875-16.5l4.4062-4.125-5.625-9.5625c-6.8438-11.672-17.719-34.969-21.609-46.359-6.75-19.594-1.0312-30.375 12.891-24.375 1.9688 0.84375 2.2031-0.28125 1.6875-9.375-0.65625-11.719 1.9688-18.656 8.5312-22.359 4.5938-2.625 9.2344-0.51562 13.219 6.0938l2.7188 4.5 0.89062-11.062c0.9375-11.531 3.5156-16.641 8.3438-16.641 4.1719 0 7.6875 5.5781 12.234 19.594l4.4531 13.641 1.7344-8.3438c5.3438-25.734 16.172-30.984 22.406-10.828 1.9688 6.3281 2.4375 13.406 2.4375 35.812v27.891l4.5-3.4219c6.4219-4.9219 23.062-13.219 28.453-14.25 6.8438-1.3125 11.531 0.375 12.562 4.4062 1.1719 4.5938-4.8281 14.906-11.766 20.156-5.2969 4.0312-21.703 23.672-21.703 25.969 0 0.70312 2.25 2.3438 4.9688 3.6562 5.4844 2.5781 10.641 8.8125 10.641 12.797 0 1.4062-1.7344 4.3125-3.7969 6.5156l-3.7969 3.9844 1.7344 18.75c2.6719 28.641 6.3281 47.016 16.453 83.438 8.8125 31.594 16.359 64.266 16.359 70.641 0 2.5312 1.0312 2.9531 7.7344 3.375 9.1875 0.5625 8.625 1.7812 10.688-21.891 1.5938-18.188 4.1719-31.828 8.25-43.594 15.984-46.031 63.188-90.094 107.39-100.27 14.766-3.375 44.625-3.4219 61.875-0.046875 30 5.8594 59.156 17.859 78.094 32.156 26.391 19.875 53.344 57.094 62.156 85.875 8.8125 28.734 5.4375 70.312-8.3906 103.22-2.9062 6.9375-3.7969 10.734-2.9062 12.375 1.7812 3.3281-0.42188 11.953-4.6406 18.328-5.7188 8.6719-37.922 42.562-46.734 49.172-10.453 7.875-14.719 8.8594-21.469 4.875-3.7969-2.25-5.6719-2.6719-7.0312-1.5469-1.0312 0.84375-8.0625 4.0312-15.656 7.0781s-14.109 5.8594-14.484 6.2344 6.2344 1.0781 14.625 1.6406c36.234 2.25 78.047 8.3438 98.297 14.297 6.6094 1.9219 12.469 3.5625 12.984 3.5625 0.51562 0.046875 1.5938-1.8281 2.3906-4.125 1.6875-4.875 7.4062-9.0469 10.641-7.7812 1.2656 0.46875 3.6562 3.0469 5.2969 5.7188l3 4.8281 5.1094-4.5c7.7344-6.7969 23.906-13.828 38.812-16.922 12.938-2.6719 25.5-3.6094 27.094-1.9688 0.9375 0.9375-1.2656 8.1562-4.125 13.734l-2.0156 3.8906h15.375c11.625 0 16.125 0.5625 18.516 2.2031 4.3594 3.0469 4.0312 8.25-0.75 11.812l-3.8906 2.9062 7.3594 0.046875c4.6406 0.046875 8.1562 0.84375 9.5156 2.2031 3.6562 3.6562-1.8281 10.969-11.203 15.047-7.4531 3.2344-9.8438 5.4844-5.8125 5.4844 3.1406 0 5.5312 3.9375 4.5938 7.6406-0.98438 3.8906-7.6875 7.0781-18.422 8.625l-6.8906 1.0312 3.1875 3.375c3.7969 4.0781 3 6.8438-2.9062 9.8906-10.922 5.6719-48.891 10.969-66.328 9.2812l-8.8594-0.84375-3.1875 6.4219c-2.1562 4.3125-4.5469 6.8906-7.2656 7.8281-3.6094 1.2188-4.5 0.89062-8.2031-3.2812l-4.1719-4.6875-10.922 3.6094c-20.625 6.75-33.234 8.5781-59.906 8.625-13.641 0.046875-31.219-0.46875-39.094-1.0781l-14.25-1.125-1.875 5.1562c-7.2188 19.969-70.453 97.594-99.891 122.63-23.438 19.922-33.234 24.328-56.578 25.266-19.547 0.79688-26.953-1.1719-50.484-13.266-11.016-5.6719-16.266-7.5469-21.797-7.875l-7.3125-0.375-9.0938 12.703c-10.828 15.141-20.438 33.328-24.328 46.078-3.9375 12.891-7.2188 35.156-7.5 51.094-0.23438 12.891 0 14.016 5.4375 26.25 3.1406 7.0312 9.0469 20.766 13.172 30.516s13.453 29.719 20.766 44.344 13.266 27.375 13.266 28.359-3.2812 4.6406-7.3125 8.1562c-25.359 22.125-36.703 35.016-62.953 71.672-8.3906 11.719-18.094 24.609-21.562 28.641-8.1562 9.5625-22.734 19.453-35.203 23.859-12.656 4.4531-29.719 4.8281-38.297 0.89062zm42-11.719c15.328-7.2656 25.031-17.156 46.594-47.25 23.859-33.328 42.938-55.594 56.344-65.672 5.7656-4.3125 10.453-8.7188 10.453-9.7969s-5.3438-12.656-11.906-25.734c-13.781-27.562-24.094-51.797-30.797-72.422-2.625-8.0156-5.25-14.531-5.9062-14.531-1.7344 0-44.156 23.344-76.641 42.141-21.703 12.562-28.219 17.016-28.875 19.688-0.46875 1.875-1.4062 3.0938-2.0156 2.7188-3.5625-2.2031-2.1094 3.4688 3.6562 14.109 8.5312 15.797 20.484 43.312 20.531 47.203 0 1.6875-0.46875 3.2812-1.125 3.5625-1.3594 0.5625-12.188 19.359-19.266 33.422-12.047 24-16.078 52.641-9.375 66.469 4.6406 9.5625 10.359 12.141 25.594 11.578 10.453-0.375 13.641-1.1719 22.734-5.4844zm-3.5156-205.03c11.812-6.9375 31.406-17.719 43.594-23.953l22.172-11.344 0.046875-13.594c0.09375-36.609 11.297-69.797 33.188-97.922l8.0625-10.406-3.6094-1.9219c-5.5312-2.9062-2.9062-4.5938 7.125-4.5938h9.0938l-9.5156-11.906c-13.172-16.453-18.375-25.547-24.188-42.422-4.5469-13.078-5.0625-16.312-5.625-33.188-0.65625-20.391 0.75-31.547 6.1406-48.469 3.1875-10.031 3.2812-10.875 0.98438-12.094-1.3594-0.70312-16.266-15-33.141-31.781l-30.703-30.469-5.4844 1.7344c-10.125 3.2344-29.672 14.109-44.578 24.797-20.391 14.578-30.281 17.672-40.078 12.562-2.4844-1.3125-6.7969-2.25-9.5156-2.0625s-12.094-0.32812-20.812-1.125c-56.484-5.0625-111.52 14.438-162.98 57.656l-5.3906 4.5469 5.5781 6.2344c9.9844 11.203 17.062 19.969 22.969 28.641 6.375 9.2812 18.562 21.656 32.953 33.328 5.0625 4.125 9.6562 8.2031 10.219 9.0469 0.65625 0.98438 2.6719 0 5.6719-2.8125 22.312-20.953 74.391-39.75 121.74-43.875 10.641-0.9375 39.188 1.1719 50.906 3.75 3.4219 0.75 6.4688 1.0781 6.8438 0.75 0.32812-0.32812-1.3594-4.5-3.75-9.2344-4.0781-8.1094-5.6719-15.797-3.2812-15.797 0.60938 0 3.8906 4.7812 7.3125 10.594 4.6875 7.9219 10.641 14.719 23.391 26.766 9.4219 8.9062 20.672 18.984 24.938 22.406 6.7031 5.2969 7.3594 6.2812 4.7344 6.6562-3.2344 0.46875-12.938-3.8906-18.703-8.3906-1.8281-1.4531-3.8906-2.2969-4.5-1.9219-2.3906 1.4531-31.547 43.547-37.5 54.141-15.188 26.906-22.547 54.562-26.391 99.141-1.6406 18.75-0.65625 39.703 3.1406 66.844l1.5938 11.531 7.9688-4.5938c4.3594-2.5312 17.625-10.266 29.438-17.203zm-256.92-81.516c10.359-8.2031 28.219-35.297 45.797-69.422 5.8125-11.297 12.469-23.344 14.812-26.766l4.1719-6.1875-7.6406-6.5156c-25.875-22.172-56.906-55.641-67.078-72.422-2.9531-4.8281-5.8594-8.4375-6.5625-8.0625-0.65625 0.42188-1.4062-0.70312-1.6406-2.4375-0.375-2.5781-2.4375-0.42188-10.547 10.969-5.5312 7.7812-15.047 21.844-21.094 31.172-15.094 23.391-15.422 23.719-23.391 22.547-3.5625-0.51562-12.938-3.7031-20.906-7.125-15.375-6.5625-32.766-11.906-38.719-11.859-13.641 0.046875-23.016 20.062-23.297 49.688-0.14062 13.641 0.1875 15.609 3.8906 23.156 8.0156 16.266 27.938 28.969 80.391 51.141 17.578 7.4062 38.297 16.406 46.125 19.969 7.7812 3.5625 15.562 6.4688 17.203 6.4688s5.4375-1.9219 8.4844-4.3125zm471.74-64.5c12.844-5.1562 26.344-15.516 46.219-35.484 26.953-27.188 56.484-62.672 79.781-95.953l8.5781-12.281-6.6094-0.9375c-12.047-1.7812-36.281-7.875-39.516-10.031-3-1.9688-3.3281-1.8281-5.25 1.8281-3.0938 6-102.56 105.33-112.64 112.45-4.875 3.4688-8.8594 6.6562-8.8594 7.125 0 0.42188 2.8594 2.2031 6.3281 3.8906 8.5781 4.1719 11.625 8.9062 9.3281 14.484-0.9375 2.2969-3.0938 4.6406-4.7812 5.1562s-5.25 2.7656-7.9688 5.0156-5.8594 4.0781-7.0312 4.0781c-2.7188 0-0.32812 2.2969 3.4219 3.3281 6.2812 1.6875 32.625-0.09375 39.047-2.625zm-47.203-4.125c7.875-2.7656 15.562-8.0156 17.25-11.812 1.5938-3.5156 0.1875-4.875-10.031-9.6562-5.1094-2.3906-5.2031-2.3906-10.172 1.4062-2.7656 2.1094-9.375 5.6719-14.719 7.9219l-9.7031 4.0781 5.2969 2.2031c2.9062 1.2188 5.6719 2.2031 6.1406 2.2031s2.5312 1.2656 4.5 2.8594c4.3125 3.375 4.1719 3.375 11.391 0.84375zm-21.562-14.297c9.9375-3.75 20.531-9.1875 20.391-10.547-0.046876-0.42188-3.375-3.1406-7.5-5.9531l-7.4531-5.1562-4.9219 2.5781c-2.7188 1.4062-9.0938 3.6562-14.156 4.9688s-10.125 2.6719-11.25 3c-2.3438 0.70312 10.641 14.719 13.641 14.719 0.98438 0 6.0469-1.5938 11.203-3.5625zm-13.125-17.672c5.9531-1.5469 12.188-3.4688 13.875-4.3594l3-1.5938-3.4688-3.7969c-2.6719-2.9531-7.4062-9.375-10.312-14.062-0.14062-0.1875-2.7188 0.84375-5.7656 2.3438-7.5469 3.6094-18.516 7.2188-21.938 7.2188-3.9844 0-3.4688 1.9688 2.4844 9.9844 6.0469 8.1094 6.7031 8.25 22.125 4.2656zm56.156-16.734c9.8438-9.1875 38.156-36.656 62.953-61.031 51.984-51.188 43.734-46.688 74.672-40.828 27.469 5.1562 47.438 6.9375 77.578 6.9375 27.844-0.046875 35.391-0.98438 60.234-7.6875l11.203-3.0469-2.2969-5.9062c-1.6875-4.3125-2.2969-10.734-2.3438-23.672-0.046874-15.234 0.42188-18.797 3.1875-25.406 1.7812-4.2188 2.7188-8.1094 2.0625-8.6719-1.6875-1.5-25.969-6.75-42.281-9.0938-18.047-2.625-49.922-6.0469-74.531-7.9219-10.547-0.79688-23.156-2.1562-28.078-3l-8.9062-1.5469-29.391 14.391c-19.875 9.7031-32.25 14.906-38.109 15.984l-8.7188 1.6406-0.65625 7.875c-0.60938 7.3125-1.1719 8.3438-7.6875 14.344-3.8906 3.5625-15.656 11.484-26.109 17.672-10.5 6.1406-30.141 17.766-43.734 25.828l-24.656 14.625-5.0625-2.1094c-4.0312-1.6875-5.2969-1.7344-6.2812-0.28125-2.1094 2.9531 0.046874 36.281 3.1406 48.984 3.1406 12.938 9.0469 25.594 15.188 32.625 4.5938 5.2031 17.578 15.891 19.453 15.938 0.70312 0.046875 9.3281-7.4531 19.172-16.641zm-73.641-2.3438c14.719-4.5469 18.75-6.75 17.906-9.9375-2.6719-10.125-7.2188-27.188-7.3594-27.469-0.09375-0.1875-3.8906 1.3125-8.4375 3.4219-5.3438 2.4375-11.672 4.0312-17.953 4.4531-5.3438 0.375-9.7031 1.1719-9.7031 1.6875 0 2.0156 5.3906 16.547 8.625 23.109 3.7031 7.5938 5.7656 8.1562 16.922 4.7344zm0-36.609 9.2344-3.2812-0.51562-14.859c-0.28125-8.1562-0.60938-14.953-0.70313-15.094s-3.7031 0.42188-8.0156 1.2188c-7.7344 1.4062-21.094 0.89062-25.875-1.0312-2.25-0.89062-2.4844 0.23438-2.4375 12.984 0 7.6875 0.42187 16.453 0.9375 19.5l0.89062 5.5312 8.6719-0.79688c4.7344-0.42188 12.797-2.2969 17.859-4.125zm6.9375-36.469c1.0781-0.70312 2.5312-5.1094 3.1406-9.7969 0.65625-4.6875 2.2031-11.297 3.4219-14.672 6.2344-16.922 5.4375-24.797-2.9062-28.781-5.25-2.4844-15.188-2.9531-19.031-0.89062-2.7656 1.5-7.875 13.406-6.6094 15.469 0.42188 0.70312 5.1094 2.3438 10.406 3.7031 18.094 4.5 18.984 4.9688 8.8594 4.5938-5.9531-0.23438-11.438-1.4062-15.281-3.3281-7.2656-3.6094-6.9844-3.9375-12.281 14.391-4.0312 13.828-4.4531 18.609-1.8281 19.641 3.0938 1.2656 30.094 0.9375 32.156-0.375zm30.234-16.266c4.9219-3.4219 21.375-13.406 36.609-22.219 47.812-27.609 51.094-30.328 51.094-42.094 0-2.9062-0.46875-3.375-2.4844-2.5312-4.5938 1.9688-11.344 2.3438-14.297 0.75-2.625-1.4062-5.0156 0.14062-20.859 13.453-39.141 32.812-51.938 40.312-62.625 36.844-2.8125-0.9375-3.2344-0.23438-5.1094 7.9688l-2.0625 9 5.1094 2.3906c2.8125 1.3125 5.25 2.4375 5.3906 2.4844 0.14062 0.046875 4.3125-2.7188 9.2344-6.0938zm341.72-18.422c7.4531-15.562 8.8594-25.594 6.1875-43.969-2.2031-14.859-3.2812-18.469-6.9844-22.922-1.5469-1.875-2.5781-2.25-2.9531-1.1719-0.32812 0.9375-2.4844 4.2188-4.7344 7.3125s-5.4844 10.266-7.1719 15.844c-2.5781 8.4375-2.9531 12.422-2.3438 23.156 0.89062 15.562 6.8438 33.562 11.156 33.562 0.65625 0 3.7969-5.3438 6.8906-11.859zm-340.87-5.0156c6.8438-3.4688 24.75-16.688 44.953-33.188 8.5312-6.9844 16.312-12.984 17.25-13.359 1.3125-0.51562 1.3594-1.7344 0.28125-4.875-2.2969-6.6094-0.84375-22.781 2.4375-27.469 1.5469-2.2031 3.4219-4.9219 4.2188-6.0469 2.1094-3.0469-8.3438-11.719-40.125-33.141-15.047-10.172-29.531-20.391-32.203-22.734-4.3125-3.7969-5.2969-4.0781-8.1562-2.5781-8.7656 4.6875-27.141 0.60938-35.484-7.875-2.4375-2.4844-4.5-3.4688-5.6719-2.7656-10.594 6.4688-41.391 29.203-62.672 46.219-2.8594 2.2969-2.9062 2.4375-0.375 5.2031 3.9375 4.3125 6.4219 12.797 6.5156 21.844 0.046875 4.5 0.60938 8.1562 1.2188 8.1562 3.0469 0 47.203 39.656 53.578 48.141 3.9844 5.2969 4.2656 5.4375 7.9688 3.5156 8.7656-4.5469 25.031-0.42188 30.422 7.6875 1.4531 2.2031 2.6719 6.8438 2.8125 10.922 0.14062 3.8906 0.32812 7.2656 0.375 7.4062 0.1875 0.51562 6.7031-2.1094 12.562-5.1094zm-20.344-30.047c-4.6406-3.9375-20.25-15.234-34.688-25.078-33.703-22.969-40.688-28.453-42.75-33.562-1.5-3.6094-1.3125-4.9688 1.6406-10.453 5.8125-10.969 31.641-32.109 46.453-38.062l6.0469-2.3906 9.5625 5.7188c5.25 3.1406 15.656 10.641 23.062 16.641s20.297 15.656 28.688 21.422c16.547 11.484 26.672 21.703 26.672 26.906 0 2.5312-3.375 5.8594-14.25 14.109-7.8281 5.9531-17.344 13.453-21.047 16.734-15.75 13.734-17.531 15.141-19.172 15.141-0.9375 0-5.4844-3.2344-10.172-7.1719zm42.938-26.578c13.266-9.9844 15.703-12.422 14.625-14.438-2.0625-3.7969-11.438-11.812-22.922-19.594-5.7656-3.8906-17.297-12.516-25.641-19.172s-19.406-15.141-24.516-18.797l-9.3281-6.6562-5.9531 3.8906c-19.781 12.938-42.188 33.844-42.188 39.375 0 3.1406 4.4062 6.5156 37.781 29.109 16.312 11.062 33.422 23.156 38.109 26.953l8.4375 6.8906 7.875-7.7812c4.3125-4.2656 15.047-13.172 23.812-19.734zm-47.391-8.625c-7.6875-6.75-17.484-15.281-21.75-18.891-28.219-23.859-27.141-25.312 10.125-14.062 33.75 10.172 56.625 19.359 56.625 22.688 0 1.875-22.828 19.734-27.188 21.234-3.4688 1.2188-4.9688 0.28125-17.766-10.969zm28.547-2.3438c6.7969-4.7344 10.406-8.0625 9.1875-8.4375-1.0781-0.375-6.0938-2.2031-11.156-4.0781l-9.1875-3.375-6.8906 5.4375c-3.7969 3-7.5469 5.4375-8.3438 5.4375-1.8281 0 11.859 12.656 13.781 12.703 0.79688 0.046875 6.4688-3.4219 12.609-7.7344zm-23.719-12.797c3.2812-2.3438 6-4.5938 6.0469-4.9688 0.046875-0.42188-9.9844-4.0312-22.312-8.0625-21.703-7.125-22.219-7.2188-17.391-3.2812 19.5 15.844 26.344 21.188 26.953 20.906 0.375-0.14062 3.4219-2.2031 6.7031-4.5469zm419.81 80.25c8.3906-1.5 15.844-3.3281 16.594-4.0781 0.79688-0.79688-2.7188-2.3906-9-4.0781-5.6719-1.5469-10.547-3.4219-10.781-4.2188-0.46875-1.3594 12.469-4.6406 30-7.5938 4.6406-0.75 8.625-1.6406 8.9062-1.9219s-5.5312-0.98438-12.984-1.5469-13.922-1.6406-14.391-2.3906c-1.4531-2.3438 3.8906-5.1562 15.75-8.25 31.5-8.25 32.484-10.5 4.3125-9.5625-21.938 0.75-22.547 0.70312-19.359-1.7344 1.8281-1.3594 9.0469-4.9688 16.031-7.9219 9.5625-4.125 12.141-5.7188 10.453-6.7031-1.9688-1.125-28.734-0.75-39.656 0.5625-7.3594 0.84375-5.5781-2.8125 4.5938-9.2812 9.1406-5.8594 12.656-8.9531 11.391-9.9844-0.28125-0.23438-7.1719 0.70312-15.281 2.1094-11.625 1.9688-17.531 3.8906-27.656 9-7.0781 3.5625-14.391 7.6875-16.266 9.1875l-3.4219 2.6719 2.4375 9.75c3.8906 15.516 4.2656 26.719 1.1719 38.438-2.3906 9.1406-2.4375 10.312-0.46875 10.922 4.3125 1.3594 32.625-0.65625 47.719-3.375zm-456.56-8.6719 3.8438-6.0938-18.469-17.953c-31.781-30.891-39.047-37.453-39.047-35.297 0 1.1719-1.5469 4.1719-3.4219 6.75l-3.4219 4.6406 27.891 27.422c15.375 15.094 28.125 27.234 28.359 27s2.1562-3.1406 4.2656-6.4688zm-154.26-21.938c-2.25-2.5781-5.25-6.6562-6.7031-9.0469-3.5156-5.9531-4.8281-5.5312-4.8281 1.6875 0 9.5625 5.1094 14.438 13.125 12.609 2.1562-0.46875 1.9219-1.1719-1.6406-5.25zm16.031-0.75c7.9688-5.0625 7.9688-5.9062 0.14062-22.031-5.8594-12.047-9.6094-16.031-12.703-13.453-3.1406 2.625-12.141 16.594-12.141 18.844 0 2.2031 15.047 20.953 16.781 20.953 0.60938 0 4.1719-1.9219 7.9219-4.3125zm24.047-16.5c7.7344-4.9219 8.2031-5.5312 7.4062-9.6094-1.3125-6.4688-8.4375-20.719-13.078-26.062l-4.0781-4.6875-6.375 4.3594c-3.5156 2.3906-8.5781 6.1875-11.25 8.4375l-4.875 4.0781 3.8906 4.6406c4.4062 5.25 11.344 18.562 12.797 24.562 0.9375 3.8438 1.125 3.9375 4.125 1.7812 1.7344-1.2188 6.8438-4.5938 11.391-7.5zm265.5-1.9688c7.1719-1.8281 21.469-7.875 38.391-16.266 27.234-13.453 34.875-16.172 45.703-16.219 6.8438-0.046875 8.9062-2.4844 8.9062-10.5 0-6.0938-4.3125-9.8906-14.672-12.984-13.734-4.0781-35.25-1.9688-58.453 5.6719-30.234 10.031-36.609 12.938-40.594 18.656-9.4688 13.688-8.2969 30.938 2.25 33.516 5.0625 1.2188 6.75 1.0781 18.375-1.9219zm-242.86-10.5c10.078-4.4531 10.406-5.0156 9.6094-15.656-0.375-4.9688-4.4062-14.156-8.2969-18.984l-2.7188-3.375-13.266 3.7969c-7.3125 2.1094-13.5 4.0312-13.781 4.3125s2.4375 4.5 6.0469 9.375c3.75 5.1094 7.5938 12.422 8.9531 17.156 1.3594 4.5469 2.8125 8.1562 3.2344 7.9219 0.42188-0.1875 5.0625-2.25 10.312-4.5938zm27.469-6.8438c6.2344 2.3906 6.2344-27.141 0.046875-31.125-2.3438-1.5-25.078-1.4062-25.078 0.14062 0 0.70312 0.98438 2.1094 2.25 3.0938 4.0312 3.3281 7.9688 13.031 8.7188 21.234l0.75 8.0625 5.7656-1.0781c3.1875-0.5625 6.6094-0.75 7.5938-0.32812zm331.45-25.266c6.0469-2.25 12.234-4.8281 13.734-5.8125 2.625-1.6406 2.6719-1.8281 0.28125-5.3438-3.4219-4.9688-5.5312-10.922-6.6094-18.516l-0.89062-6.375-15.844-0.14062c-42.422-0.375-94.312-20.625-132.24-51.656-13.5-11.016-36.375-35.016-47.344-49.688-4.9688-6.6562-9.7031-12.281-10.453-12.609-2.7656-1.0312-0.28125 21.281 3.3281 30.281 3.1406 7.7344 4.4531 9.1875 15.562 17.016 6.6562 4.7344 16.922 12.422 22.734 17.109 13.641 10.969 43.828 31.312 67.312 45.375 10.172 6.0469 20.484 12.562 22.969 14.391 3.75 2.8125 6.2344 3.375 14.391 3.375 24.141 0 38.672 9.8906 37.266 25.359-0.23438 2.7656 0.1875 3.1875 2.25 2.3438 1.4062-0.5625 7.5-2.9062 13.547-5.1562zm-118.36-6 15.656-7.5469-3.9375-2.3438c-6.0469-3.5625-52.594-36.328-59.016-41.531-3.1406-2.5312-13.969-10.688-24.094-18.141l-18.422-13.547-2.3906 11.156c-1.3125 6.1406-3.4219 13.125-4.6406 15.469l-2.2031 4.3125 9.5625 6.5625c5.25 3.6094 20.203 13.5 33.141 21.938 12.984 8.4375 27.328 18.938 31.922 23.25s8.4375 7.875 8.5781 7.9219c0.09375 0.046875 7.2656-3.3281 15.844-7.5zm165.14-4.9688c4.9219-3.7969 8.8125-7.3125 8.625-7.8281s-3.7969-3.75-7.9688-7.2188l-7.6406-6.2344-5.4375 5.625c-3 3.0938-7.5469 7.0312-10.078 8.7656s-4.6406 3.6562-4.6406 4.2656c0 1.6875 12.984 9.5625 15.797 9.5625 1.3594 0 6.5156-3.0938 11.438-6.8438zm-408.66-1.5938c3.7031-0.79688 11.016-1.6875 16.312-1.9688 9.0469-0.46875 9.9844-0.84375 15.984-6.4688 9.3281-8.7656 31.922-25.453 51-37.734l16.734-10.734 0.79688-6.8906c0.46875-3.7969 2.7188-11.766 5.0156-17.672 2.2969-5.9531 3.8438-10.781 3.4219-10.781-1.2188 0-35.25 20.906-50.016 30.75-15.703 10.453-75.047 65.438-68.812 63.797 1.5469-0.42188 5.8594-1.4062 9.5625-2.25zm283.4-7.5 6.2812-1.8281-9.1406-4.5469c-21.562-10.688-65.062-40.312-91.125-62.109-9.5625-7.9688-18.797-14.953-20.578-15.516-1.7344-0.5625-3.1875-1.4531-3.2344-1.9688-0.09375-2.0625-6.6094-8.8594-6.75-7.0781-0.09375 1.0312-1.0781 5.4844-2.2031 9.9375l-2.0625 8.0625 13.641 8.9531c7.5 4.9219 20.062 13.781 27.891 19.641 13.312 9.9375 45.328 32.531 63.188 44.578 8.3906 5.6719 10.547 5.8125 24.047 1.875zm106.17-8.625c8.25-8.0156 9.0938-9.2812 7.6406-11.953-2.9531-5.5781-1.9688-12.609 2.2969-15.984 3.3281-2.625 5.1562-3 12.094-2.3438l8.2031 0.70312 5.8594-8.5781 5.8594-8.625-8.4375 0.75c-12.562 1.125-28.359 8.25-36.328 16.359-7.7344 7.875-11.016 14.859-11.016 23.531 0 8.25 1.4531 15.141 3.1875 15.141 0.75 0 5.5781-4.0312 10.641-8.9531zm40.781-3.5156c3.9844-4.3125 6.375-7.9688 5.5781-8.5312-0.79688-0.51562-4.2656-2.9531-7.7812-5.4375-19.547-13.734-35.297-6.75-21.609 9.5156 4.125 4.875 14.578 12.984 15.938 12.328 0.46875-0.23438 3.9844-3.7969 7.8281-7.9219zm-62.344-12.375c1.7812-0.375 3.6094-2.5781 4.7812-5.8594 2.5781-7.0781 13.078-17.25 23.672-22.828l8.625-4.5469 3.2812-14.578c8.1562-35.953 1.5938-79.406-17.484-115.22-28.078-52.828-91.688-86.062-144-75.281-15.797 3.2812-18.234 4.5938-31.969 17.625-29.344 27.797-46.453 60.562-50.109 95.812-1.125 10.922-1.8281 9.6562 19.031 34.312 33.094 39.047 60.562 59.906 100.12 75.984 31.266 12.703 64.406 18.422 83.953 14.531zm87.328-16.594c4.125-7.9688 3.6562-9-5.5312-11.578-11.766-3.2812-13.828-3.0469-15.891 2.0156-0.98438 2.3906-3.5625 6.7031-5.6719 9.6562l-3.8906 5.3438 4.5938 3.1406c2.5312 1.7344 6.0938 4.7812 7.9688 6.7969l3.4219 3.6562 6.1406-6.8438c3.375-3.7969 7.3594-9.2344 8.8594-12.141zm-320.21 3.75c2.5312-2.5312 5.5312-7.7344 4.8281-8.3906-0.75-0.70312-28.219-7.8281-30.234-7.8281-1.0312 0-2.2969 1.7344-2.8125 3.8906-0.79688 3.2812-0.23438 4.5469 3.6094 7.6875 7.4062 6.1875 20.625 8.6719 24.656 4.5938zm-50.906-40.734c13.312-8.2031 26.438-15.844 29.156-17.016 6.75-2.8125 18.609-16.406 17.625-20.203-0.42188-1.5469-2.6719-12.094-5.0625-23.391-2.3438-11.297-7.7812-33.047-12-48.234-4.2656-15.234-9-33.094-10.594-39.75-3.4219-14.391-7.1719-45.094-7.1719-58.5 0-5.25-0.32812-9.6094-0.75-9.6094s-3.75 1.5469-7.4531 3.375c-13.453 6.7969-34.312 12.469-48.938 13.266-12.609 0.70312-13.922 1.0781-14.531 3.75-0.375 1.6406-1.9219 10.641-3.4688 20.016-11.531 69.891-9.7969 101.44 10.172 183.94l6.0469 25.031 11.391-8.8594c6.2812-4.875 22.266-15.609 35.625-23.812zm58.828 25.172c2.8594-7.5469 1.9688-8.8125-7.8281-11.859-5.0625-1.5469-12.375-3.2812-16.312-3.7969-6.6094-0.89062-7.1719-0.70312-8.3906 2.5312-3.75 9.8906-3.6094 10.078 11.906 13.406 18.562 3.9844 18.984 3.9844 20.625-0.32812zm315.24-16.312c13.359-37.125 15.188-73.031 5.25-102.8-5.1094-15.234-8.1094-20.625-21.891-38.906-11.953-15.891-27.469-31.922-39.375-40.734-13.969-10.359-48.938-22.406-77.672-26.859-24.141-3.75-43.922-2.4375-64.219 4.1719l-10.312 3.375 12.328-0.75c26.484-1.5938 58.125 7.875 84.844 25.453 11.672 7.6875 29.344 24.516 38.391 36.562 27.703 36.938 40.453 96.469 29.672 138.71-1.5469 5.9531-2.625 11.016-2.3906 11.203 0.1875 0.1875 3.2344-0.1875 6.75-0.89062 8.8594-1.6875 18-1.4531 25.547 0.70312 3.5156 0.98438 7.0312 1.6875 7.8281 1.5469s3.1406-5.0156 5.2031-10.828zm-311.9 1.1719c2.3438-8.7656 1.4531-10.172-9-14.25-14.906-5.8125-17.109-5.3906-21.609 3.75l-3.75 7.5938 10.219 0.75c5.625 0.42188 12.422 1.7344 15.141 2.9062 6.7969 2.9531 8.0156 2.8594 9-0.79688zm4.2656-19.922c1.4531-4.875 1.5938-6.8906 0.375-7.875-2.7656-2.2031-16.312-7.6406-17.766-7.0781-0.75 0.28125-3.6562 3.375-6.4219 6.8906l-5.0625 6.375 8.8125 2.2031c4.875 1.2188 10.734 3.2344 13.078 4.5s4.4062 2.1562 4.5938 1.9219c0.1875-0.1875 1.2188-3.2812 2.3438-6.9375zm3.1406-20.391c-6.1406-5.2969-10.453-5.6719-14.766-1.3594l-3.7031 3.7031 4.2656 1.5c2.3438 0.79688 6.4688 2.625 9.1875 3.9375 4.875 2.4375 4.9219 2.4375 6.8438-1.0312 1.7812-3.2344 1.6406-3.75-1.8281-6.75zm-93.703-179.21c21.141-5.8594 34.078-11.344 37.359-15.797 2.625-3.5625 2.8594-4.6875 1.3594-6.4688-3.3281-4.0312-7.6875-4.5-24.047-2.5312-18.703 2.25-23.391 3.4219-38.906 9.8438-6.2344 2.5781-12.469 5.0625-13.875 5.5312-4.6875 1.5469-4.5 5.1094 0.5625 9.5625 4.6875 4.125 5.1094 4.2188 16.172 3.4688 6.2344-0.42187 15.844-2.0156 21.375-3.5625zm-22.734-21.891c12.422-5.2031 24.141-7.9688 33.891-7.9688 12.141-0.046874 14.531-0.9375 15.469-5.8594 1.2656-6.2344 8.2969-15.703 21.656-29.016 6.5625-6.5625 11.906-12.469 11.906-13.219 0-2.1094-5.3906-0.28125-21.141 7.125-8.1094 3.7969-15.609 6.9375-16.688 6.9375-3.6094 0-5.1094-7.5-6.2344-31.219-1.125-23.391-3.3281-38.297-5.7188-38.297-2.1562 0-5.4844 14.156-6.8438 29.109-0.70312 7.7812-2.1094 15.984-3.1406 18.188l-1.8281 3.9844-2.625-5.3906c-1.4531-2.9531-5.625-14.953-9.2812-26.625-6.375-20.344-6.7031-21-7.6875-15.609-1.6406 9.2812-1.2656 27.891 0.75 34.688 1.875 6.375 1.6875 11.344-0.32812 11.344-2.2969 0-5.625-5.4375-11.344-18.562-3.2344-7.4531-6.9375-15.047-8.2031-16.875l-2.2969-3.2812-1.875 3.375c-3.6094 6.4688-1.5938 24.891 4.2188 38.672 4.8281 11.438 1.2188 14.812-5.5312 5.1094-4.9219-7.0781-14.203-15.609-17.016-15.609-2.9062 0-2.6719 4.125 0.84375 14.531 4.0781 12.141 17.062 40.359 21.656 47.016 2.0625 3.0469 3.7969 7.125 3.7969 9.0469 0 4.0312 0.1875 3.9844 13.594-1.6406z"/>
</svg>
