<?xml version="1.0" encoding="UTF-8"?>
<svg width="1200pt" height="1200pt" version="1.1" viewBox="0 0 1200 1200" xmlns="http://www.w3.org/2000/svg">
 <path class = "editable" d="m715.79 302.28-0.88281-0.27344-1.9766-0.61719c-0.36719-0.007813-0.73438-0.050781-1.0938-0.12891-0.56641-0.078124-1.1406-0.078124-1.707 0-0.33594 0.066407-0.33594 0.13281-0.60938 0.33594-0.97656 1.4414-1.6484 3.0625-1.9805 4.7734-0.68359 2.2578-1.2266 4.7812-2.1172 7.3789v-0.003906c-1.3594 3.6562-3.1484 7.1367-5.3242 10.371 2.9023 0.007813 5.793 0.39844 8.5977 1.1602 3.0352 1.0195 6.2969 1.1836 9.4219 0.48047 1.5625-0.51953 3.0391-1.2773 4.3672-2.25l2.25-1.9883c0.53516-0.58203 1.0117-1.207 1.4336-1.875 2.0039-2.4531 2.3516-5.8672 0.88281-8.6719-2.0625-3.5586-5.2578-6.3203-9.0742-7.8477l-1.5664-0.60938zm216.46 263.75c23.617 27.703 55.312 42.723 49.82 83.934-3.3477 25.312-19.379 50.625-28.52 74.184v0.003906c-5.7734 15.879-14.039 30.738-24.488 44.016-0.039062 8.1875-3.2969 16.031-9.0742 21.832-5.1562 4.375-10.902 8.0039-17.062 10.781-8.6758 8.2383-16.352 17.469-22.855 27.508-0.14062 0.19531-0.27344 0.33594-0.41406 0.54297 4.5352 11.152 4.1172 23.707-1.1523 34.527 0 0.066407 0 0.066407-0.074218 0.13281 5.5312 30.102 19.453 65.859 0.82422 93.75-17.891 26.98-42.008 49.262-70.312 64.969-40.461 21.355-79.5 42.852-119.15 65.625-27.348 15.957-57.91 25.609-89.465 28.246-7.1055 16.48-19.719 29.977-35.676 38.184-15.961 8.2109-34.273 10.617-51.812 6.8164-39.027-7.0234-88.305-26.25-109.39-61.547-0.62891-1.1016-1.0664-2.3047-1.293-3.5508-0.46875-1.0664-0.78516-2.1953-0.9375-3.3477-0.82812-7.6016-0.75781-15.273 0.20703-22.855-35.766 0.68359-84.141 3.8242-112.12-18.75-40.059-32.137 3.2812-74.512 34.527-93.215-2.6641-24.77-3.0664-50.156-10.914-73.969v-0.003906c-7.6445-20.832-13.98-42.125-18.973-63.75-6.6172-33.75-9.1406-70.633 9.2148-101.48 13.508-22.855 31.527-31.32 57.461-34.941l-0.003906 0.003906c25.348-4.6211 51.176-6.043 76.875-4.2266-1.2266-3.6836-2.1836-7.4336-3.0742-11.25-40.527 21.562-83.867-1.5-121.4-21.77-36.918-19.93-78.684-35.352-80.391-80.793h0.003906c-4.4414-3.3125-8.332-7.2969-11.531-11.812-0.70703-0.6875-1.2422-1.5273-1.5664-2.457-0.074218-0.13281 0.27344-0.20703 0.20703-0.27344-1.5078-2.3164-0.14063-5.1172-0.14063-7.707v-0.074218c-0.28516-1.7734 0.078126-3.5898 1.0195-5.1172-5.5234-15.348-5.5234-44.766 13.508-47.223h0.003906c1.0312-10.328 5.9336-19.887 13.723-26.746-4.2344-6.0508-5.7891-13.578-4.3008-20.812 1.0586-5.1133 4.0234-9.6328 8.2969-12.637 4.2734-3.0039 9.5273-4.2695 14.699-3.5352 13.449 1.8672 25.422 9.4844 32.812 20.879 6.2734 9.9023 14.41 18.5 23.953 25.312 10.781-7.0977 29.551-14.129 39.309-2.6641 8.5977 10.164 4.1641 20.625-1.2266 30.637 6.0156 4.3008 11.758 8.9727 17.191 13.988 8.9453-8.8828 19.844-15.547 31.828-19.453 0.67969-0.23828 1.375-0.42188 2.082-0.54297 0-4.9141-0.13281-9.8906-0.066406-14.738 0.9375-37.602 31.594-59.711 62.992-74.109-13.164-10.43-22.418-25.004-26.25-41.352-10.258-31.902-7.1016-66.602 8.7383-96.133-5.8906-21.406-7.4336-43.773-4.5352-65.785 2.8984-22.012 10.18-43.219 21.41-62.371-15.488-22.5 3.75-48.75 23.438-64.492 33.453-25.316 74.277-38.984 116.23-38.914 42.93 0.14062 134.84 17.477 148.01 67.969 104.34 58.547 39.516 204.18-23.812 273.92 21.227 13.031 38.082 34.461 61.828 40.398 17.465 4.3672 39.168 6.3477 53.492 18.562 17.812 15.289 28.191 39.375 42.516 57.73 16.246 20.68 25.246 45.449 35.559 69.375 0.066407 0.23438 0.13281 0.36719 0.19922 0.57031zm26.758 92.195c10.781-40.191-19.246-51.797-41.352-77.812h-0.003906c-1.043-1.582-2.1367-3.1289-3.2812-4.6406-11.25-26.062-21.148-50.84-39.508-72.742-14.738-17.477-22.453-48.047-45.992-55.004-16.875-4.9883-37.398-6.1406-52.613-15.695-14.605-9.1484-26.008-21.91-39.992-31.32v0.003906c-13.672 21.41-30.125 40.918-48.93 58-14.367 12.504-30.121 23.32-46.949 32.242-5.3789 2.8867-10.941 5.418-16.648 7.5742-3.8594 1.4023-7.8008 2.5664-11.805 3.4883-6.3477 1.0859-9.0078 1.0859-9.1484 0.40234-0.47656-2.043 10.379-3.207 34.059-17.738 15.738-9.6367 30.559-20.691 44.289-33.027 17.664-16.73 33.203-35.574 46.266-56.098-1.875-0.9375-3.8906-1.875-5.9336-2.7266l-0.003906-0.003906c-0.43359 0.011718-0.87109-0.011719-1.3008-0.066406-22.789 19.688-43.059 41.559-71.383 53.906-28.66 12.488-53.363 26.25-84.684 30.367-0.56641 0.0625-1.1367 0.085937-1.707 0.074219-11.074 11.531-18.285 26.223-20.625 42.039l3.2734 0.19531c-1.2812-4.5078-0.66016-9.3477 1.7227-13.387 1.7227-3.25 4.4688-5.8359 7.8164-7.3633 3.3438-1.5273 7.1016-1.9023 10.684-1.0742 7.1641 2.1836 16.172 9.6289 12.965 18.227-0.14453 0.37891-0.32812 0.74219-0.54297 1.0859 1.2539-0.16406 2.4883-0.46094 3.6836-0.88281 8.5312-2.3242 12.281-2.3906 12.891-1.0977s-2.1094 3.75-10.574 7.9883c-2.4258 1.2617-4.9883 2.2227-7.6406 2.8711-3.0742 0.81641-6.4883 2.043-10.367 2.7266l-2.2578 0.20703h-0.003906c-1.0039 0.33203-2.0273 0.60547-3.0664 0.81641-0.89062 0.17969-1.8125 0.10547-2.6641-0.20703-1.7734 0.14062-3.4766 0.34766-5.3906 0.54297-3.75-0.19531-7.9219-0.33594-12.281-0.54297-2.1836 16.379-2.457 33.57-4.5078 49.34-3.8164 30.508-4.8477 60.664-6.4141 91.305-1.7734 33.648-9.2148 78.824 0.47656 115.12h0.003906c1.9961 4.0859 4.2773 8.0312 6.8242 11.801 2.1172 3.0469 4.4414 5.9453 6.957 8.6719v-0.47656c0.90625-4.9297 4.0117-9.1758 8.4375-11.531 4.75-2.2188 10.254-2.1406 14.941 0.20703 4.0664 1.7031 7.3438 4.875 9.1797 8.8828 1.8398 4.0078 2.1016 8.5586 0.74219 12.754-1.5391 3.9531-4.3164 7.3047-7.9141 9.5547 0.27344 0.14062 0.47656 0.33594 0.75 0.47656 5.8672 3.4141 11.398 6.4766 16.586 9.0078 14.371 7.793 30.188 12.555 46.469 13.988 10.031 0.54297 14.672-0.066406 15.148 1.4336 0.41406 1.1641-3.5547 4.5-14.738 6.5625h0.003906c-18.066 1.9844-36.332-1.0156-52.82-8.6719-5.8047-2.3164-11.879-5.1836-18.289-8.4375-3.0742-1.5742-6.3477-3.2812-9.6953-5.1953v0.003906c-2.2109 4.3477-4.125 8.8359-5.7266 13.441 4.1836-2.1914 9.0508-2.6836 13.594-1.3789 4.5391 1.3047 8.4023 4.3086 10.785 8.3867 2.3828 4.0781 3.1016 8.918 2.0078 13.512-1.0938 4.5977-3.9141 8.5938-7.8789 11.164-3.9609 2.5703-8.7656 3.5117-13.406 2.6328-4.6406-0.87891-8.7656-3.5117-11.516-7.3516-0.14062 1.0859-0.34766 2.1758-0.47656 3.2734v-0.003906c-1.375 10.711-2.1953 21.484-2.457 32.281-0.14062 4.0977-0.20703 7.5742-0.28125 10.445-0.074219 2.8672-0.066407 5.1836-0.19531 7.0234-0.27344 3.6836-0.82422 5.3242-1.5 5.3906-0.67578 0.066407-1.5078-1.3594-2.5312-4.9766-0.47656-1.7734-0.9375-4.0977-1.5-7.0312s-0.81641-6.4766-1.2266-10.641l-0.003906-0.007813c-0.92188-11.176-0.83203-22.418 0.27344-33.578 0.47656-3.543 0.9375-7.293 1.4336-11.184 0.75-3.957 1.707-8.0547 2.6641-12.355 0.95703-4.3047 2.7266-8.6641 4.1641-13.367l-0.003906-0.003907c1.3242-3.4805 2.8516-6.875 4.5781-10.172-1.7539-1.6641-3.4219-3.4219-4.9883-5.2617-6.1211-4.9609-11.598-10.668-16.305-16.984-5.7695-8.3125-10.777-17.129-14.953-26.344-8.832-19.754-20.484-38.121-34.594-54.527-4.0234-4.4023-8.2734-8.5898-12.73-12.551-4.0039-3.7383-7.6367-7.8516-10.855-12.281-32.566-6.2266-66.129-4.8281-98.062 4.0859-32.41 9.0859-43.734 46.68-41.25 77.598 2.7266 33.43 14.465 62.914 23.336 94.855h-0.003907c6.1914 27.277 10.207 55 12.012 82.914 5.1172-2.3242 9.8359-4.5078 14.062-6.7578v-0.003906c10.836-5.0078 20.977-11.41 30.16-19.039 4.8008-4.1797 9.2266-8.7695 13.234-13.715 2.5312-3.1406 4.0312-4.3672 4.6875-4.0234 0.65625 0.34766 0.47656 2.1836-1.0977 6.0664h0.003906c-2.6797 6.2695-6.4922 11.992-11.25 16.875-8.7852 9.0586-19.027 16.578-30.301 22.246-13.781 7.7812-35.418 14.605-49.059 26.758-7.0586 5.1562-12.906 11.789-17.129 19.441-9.8984 21.43 9.375 31.117 26.477 34.688h-0.003906c27.195 4.6719 54.805 6.457 82.371 5.3242 14.465-35.961 52.82-57.805 94.781-61.145 0.066407-23.438 0.066407-42.582-0.68359-60.602-0.19531-5.0547-0.67578-11.672-1.0234-16.445-0.13281-2.3906-0.33594-4.7812-0.47656-7.0977-0.066407-1.3047-0.20703-2.0547-0.20703-3.8242l0.14062-4.8477v0.007812c0.58203-5.6406 2.2031-11.125 4.7812-16.172l2.6523-5.7266v-0.003906c0.6875-1.3906 1.2148-2.8594 1.5742-4.3672l0.47656-1.875h0.003906c-0.058593-0.625-0.078124-1.25-0.066406-1.875 0.039063-1.3516-0.078125-2.6992-0.34766-4.0234-0.75781-2.9297-1.8555-5.7617-3.2734-8.4375-3.0977-5.6602-6.707-11.027-10.781-16.031-2.3242-2.9336-4.6875-5.8047-6.9648-8.5312-7.4922-3.2539-14.555-7.4258-21.02-12.422-7.6406-5.5234-14.598-10.574-20.879-15.074-12.355-9.2148-22.039-16.312-29.41-21.777-14.812-10.707-20.41-14.945-19.688-16.305 0.54297-1.0977 7.5 0.88281 23.617 10.238 8.0547 4.6875 18.148 11.465 30.938 20.129 3.207 2.1172 6.5625 4.3672 10.098 6.8242 2.9336 2.043 6.1484 4.293 9.375 6.5625-4.6406-7.3672-8.0547-13.586-11.195-18.836-3.4766-6.0078-6.2812-10.781-8.4375-14.539-4.5742-7.3047-6.0078-11.117-4.9141-12.074 1.0977-0.95703 4.4336 1.0234 11.184 7.0977h0.003906c4.0625 4.1211 7.9102 8.4492 11.531 12.965 4.3047 5.457 9.375 12.008 15.355 19.789 5.625 6.5625 13.379 13.922 21.703 23.203 0.027343-3.7148-0.33984-7.4219-1.0938-11.062-1.625-7.5312-4.2656-14.805-7.8477-21.629-5.2305-10.074-11.207-19.742-17.879-28.93-9.9844-14.148-13.594-19.875-12.43-20.812 1.1641-0.9375 6.4883 3.0664 18.227 16.238h-0.003906c7.8242 8.9375 14.707 18.656 20.543 29.004 4.1953 7.5156 7.3164 15.578 9.2812 23.953 1.875 7.9492 2.0391 16.211 0.47656 24.227 2.2344 2.8789 4.2617 5.9102 6.0664 9.0742 2.332 4.0078 4.1445 8.2969 5.3984 12.762 0.6875 2.5586 1.0547 5.1953 1.0898 7.8438l0.066407 4.3047c-0.20703 1.4336-0.47656 2.8125-0.75 4.2266h-0.003907c-0.56641 2.6133-1.3672 5.1719-2.3906 7.6406-0.88281 2.0547-1.7734 4.0977-2.7266 6.2148v0.003907c-1.4805 3.0703-2.4336 6.3711-2.8125 9.7578 0.066406 0.75 0 1.5664 0 2.25s0.13281 2.457 0.20703 3.543c0.19531 2.3906 0.47656 5.2578 0.67578 7.7148 0.41406 4.9766 0.9375 10.848 1.2266 16.105 0.89062 15.488 1.0977 31.527 1.1641 49.883 12.898-8.8789 25.246-16.172 36.234-23.551 8.7383-5.793 16.996-11.391 24.91-16.648l-0.003906 0.003906c7.9258-5.0469 16.18-9.5586 24.703-13.512 3.9688-1.9336 8.0742-3.5781 12.281-4.9102 1.4336-0.54297 0.89063-0.27344 1.1641-0.33594l0.27344-0.074219c0.34766 0.074219 0.34766-0.27344 0.34766-0.60938l0.066406-0.47656 0.33594-2.5977c0.41406-2.1836 0.61719-4.4336 1.1641-6.4766l-0.003906-0.003906c1.0898-3.9219 2.5781-7.7188 4.4336-11.336 6.1289-11.465 14.859-21.332 25.492-28.809 7.2891-5.4336 15.223-9.9492 23.617-13.445 5.582-2.3555 11.391-4.1406 17.332-5.3242 9.2812-1.5664 13.445-0.47656 13.574 0.81641 0.20703 1.5-3.3359 3.0742-11.117 6.7578-3.8242 2.043-8.8047 4.4336-14.605 8.0547-7.0078 4.1602-13.602 8.9844-19.688 14.398-8.0859 6.8398-14.641 15.301-19.246 24.836-1.1641 2.6094-2.0547 5.3359-2.6641 8.1289-0.33594 1.3594-0.33594 2.8125-0.54297 4.2266l-0.14062 1.0859c0 0.20703-0.066406 0.34766-0.066406 0.61719l0.066406 1.2266c0.074219 1.707 0.14062 3.4141 0.20703 5.1836 0.066407 1.7734 0.14063 3.4766 0.20703 5.2578 0.41406 1.0859-0.68359 1.2266-1.5 1.5664l-2.5977 0.9375c-3.207 1.2266-6.4141 2.457-9.6836 3.6836l-0.003906 0.007812c-3.6523 1.2578-7.1953 2.8242-10.582 4.6875-7.6562 3.8008-15.062 8.0859-22.172 12.832-7.7148 5.3164-15.836 10.988-24.375 16.875-9.4883 6.4766-19.586 12.824-29.758 19.586 17.484 1.5547 33.555 10.242 44.43 24.02 9.8828 12.883 14.316 29.125 12.355 45.242-0.47656 12.535 0.64453 25.082 3.3359 37.332 66.262-7.0977 119.35-52.133 178.12-80.727 25.922-11.691 49.277-28.391 68.719-49.137 29.539-32.898 17.258-62.242 11.184-101.54h0.003906c-0.33984-2.0859-0.054687-4.2266 0.82422-6.1523 4.3477-6.9492 4.7578-15.664 1.0859-22.996-0.066407-0.066407-0.066407-0.13281-0.13281-0.19531h0.003906c-0.39453-0.070312-0.78125-0.16406-1.1641-0.28125-0.68359 0.9375-1.293 1.875-2.0547 2.8672-0.75781 0.99219-1.5664 1.707-2.3828 2.5977l-1.1641 1.2266-1.5 1.5c-0.82422 0.81641-1.707 1.6406-2.5312 2.457-1.5 1.5-3.1328 3-4.6875 4.5742h0.003906c2.1016 3.5156 3.6445 7.3359 4.5742 11.328 0.94531 3.9961 1.4961 8.0781 1.6406 12.188 0.13281 5.9336-0.55469 8.3242-1.875 8.6641-1.3203 0.33594-3.207-1.6406-5.2578-7.3047-0.88281-2.7266-2.043-6.2734-3.543-10.848-0.79688-2.4922-1.8477-4.8906-3.1406-7.1641-2.043 1.707-4.2266 3.4141-6.6172 5.043h-0.003906c-1.3203 0.9375-2.6875 1.8047-4.0938 2.5977-0.9375 0.47656-1.7734 0.9375-2.6641 1.5 2.5352 2.9375 4.7773 6.1133 6.6953 9.4883 2.957 5.457 5.2578 11.25 6.8516 17.25 2.2461 8.3047 3.4805 16.852 3.6836 25.453 0.20703 12.758-1.5 17.477-2.8125 17.477-1.5 0-2.3828-4.7812-4.4336-16.789v-0.003906c-1.2461-7.9414-3.0898-15.777-5.5234-23.438-1.6211-6.4648-4.6758-12.484-8.9414-17.605-3.2734-3.3359-7.3047-3.543-7.3672-9.207h-0.003907c-3.0312 1.6914-6.4688 2.5234-9.9375 2.4023-3.4688-0.12109-6.8398-1.1875-9.75-3.0859-3.1719-1.75-5.6328-4.5508-6.9648-7.9219-0.32031-0.88281-0.55078-1.7969-0.68359-2.7266-2.168 0.51953-4.3906 0.77344-6.6172 0.75-1.9766-0.085938-3.9375-0.33984-5.8711-0.75l-1.875-0.47656-1.6406-0.40234-1.2266-0.47656v-0.003907c-1.8438-0.69141-3.6211-1.5508-5.3086-2.5703-2.6094-1.5859-4.7188-3.8789-6.0742-6.6172-0.65625-1.4453-1.0508-2.9961-1.1602-4.5781-1.5156 0.015624-3.0234-0.14453-4.5-0.47656-1.1641-0.33594-2.3164-0.67578-3.4141-1.0234-1.2148-0.51953-2.3984-1.1133-3.543-1.7695-0.76172-0.42969-1.4883-0.91016-2.1836-1.4336l-1.5-1.0234-1.2266-1.293h-0.003906c-1.6445-1.5625-3.0508-3.3555-4.1719-5.3242-9.9727 4.6836-20.496 8.0977-31.32 10.16-8.9961 1.7109-18.133 2.5781-27.293 2.5977-13.715-0.066406-18.836-1.707-18.836-3 0-1.5742 5.1172-2.5312 18.289-4.2383 6.6172-0.88281 15.148-2.1836 25.855-4.6875h0.003907c10.527-2.4531 20.738-6.0898 30.441-10.848-0.11719-1.6367-0.097656-3.2773 0.066406-4.9102-8.2227 4.6367-17.059 8.0859-26.25 10.238-10.289 2.4219-20.824 3.6562-31.398 3.6836-14.781 0.09375-29.539-1.2539-44.062-4.0312-21.629-4.0859-29.41-7.293-29.203-8.5977 0.27344-1.5 8.6641-0.75 30.227 1.4336 14.207 1.543 28.504 2.1133 42.789 1.707 9.8711-0.26953 19.688-1.5977 29.277-3.957 8.8008-2.207 17.234-5.6797 25.039-10.312-1.707-1.375-3.1602-3.0352-4.293-4.9102l-0.9375-1.6406-0.074219-0.20703-0.60156-1.1914c-0.050781-0.10938-0.09375-0.22266-0.12891-0.33594l-0.20703-0.9375-0.41406-1.9766v-0.003906c-0.23047-1.4648-0.30078-2.9531-0.20703-4.4336-12.965 2.7266-29.27-8.2578-25.586-22.5 3.75-14.539 20.746-23.551 32.953-30 13.727-7.3047 27.918-15.289 41.973-21.637h0.003907c0.16797-0.09375 0.35156-0.16406 0.54297-0.20703 0.86719-2.9961 2.3047-5.8008 4.2383-8.25 3.332-4.0469 7.293-7.5273 11.734-10.312 3.6836-2.5312 7.0977-4.5742 9.5547-6.5625 0.40234-0.34766 0.67578-0.68359 1.0234-1.0234-5.5703-7.6328-10.07-15.992-13.379-24.844-8.7383 2.7266-16.922 5.3242-24.496 7.3672-9.2148 2.1172-17.465 4.0312-24.977 5.625-7.5 1.4336-14.336 2.1172-20.336 3.0078v0.003907c-5.2188 0.81641-10.484 1.293-15.766 1.4258-18.289 0.47656-25.18-0.33594-25.18-1.7734 0-1.4336 6.8242-3.207 24.43-5.3906 4.4336-0.40234 9.4883-1.6406 15.289-2.7266 5.8047-1.0859 12.348-2.1836 19.688-3.75 7.2383-1.875 15.355-3.8906 24.227-6.1406 7.3672-2.1172 15.422-4.7812 23.953-7.4453-1.0859-3.957-1.9766-7.8477-2.6641-11.672-0.75-4.0859-1.4336-8.1172-1.7734-12.008-0.066406-0.47656-0.066406-0.54297-0.066406-0.54297h0.003906c0.042969-0.13281 0.066407-0.27344 0.0625-0.41406 0.13281-0.33594-0.066406-0.19531-0.20703-0.13281-0.14062 0.066406-0.20703 0.066406-0.27344 0.066406h0.003906c-2.6094 0.99219-5.4297 1.3008-8.1953 0.89063-2.7852-0.30078-5.4648-1.2344-7.8359-2.7266-1.7188-1.1641-3.3203-2.4922-4.7812-3.9648-2.3633-2.3516-4.5078-4.9062-6.4141-7.6406-3.6836-4.9141-6.3477-9.4883-9.0742-12.898-6.4141-7.5742-11.945-14.324-16.727-20.465l0.003906-0.003906c-7.0664-8.5117-13.047-17.863-17.812-27.844-2.8125-6.3477-3.3477-9.375-2.3242-9.9648 1.0234-0.58984 3.6172 1.293 8.0547 6.2812 4.1641 5.043 11.055 12.617 21.43 23.438 5.3164 5.5234 11.391 11.867 18.355 19.172 1.6328 1.7734 3 3.6172 4.4336 5.4648-0.21484-4.2578-0.078125-8.5312 0.41016-12.77 1.2109-9.4531 3.6172-18.715 7.1641-27.562 4.8242-12.328 10.906-24.129 18.148-35.211 10.848-16.52 16.445-21.637 17.539-20.887 1.293 0.82422-2.25 7.4453-11.25 24.57h0.003906c-6.0312 11.207-11.23 22.836-15.562 34.801-3.0273 8.1875-5.0391 16.711-6 25.387-1.1445 8.8945-0.11719 17.934 3 26.344 2.3359-0.85156 4.5938-1.9023 6.75-3.1406 0.9375-0.61719 1.875-1.1641 2.8672-1.707 3.207-2.0781 6.2383-4.4062 9.0742-6.9648 5.8203-5.3945 11.078-11.359 15.695-17.812 8.6719-11.664 14.539-21.562 19.453-28.93 9.6172-14.879 14.672-19.855 15.758-19.039 1.2266 0.89062-1.5 6.8906-9.4766 22.727v-0.003906c-5.3672 10.621-11.375 20.906-17.992 30.797-4.793 7.1484-10.352 13.75-16.582 19.688-0.88281 0.82422-1.875 1.6406-2.8672 2.457 0.34766 2.1172 0.61719 4.1641 0.89062 6.2812 0.27344 1.5 0.33594 3.4766 0.47656 5.3242l0.61719 4.9766c0.40234 3.5547 1.0234 7.0977 1.7734 10.715v0.003906c2.082 11.414 6.1211 22.379 11.941 32.418 0.9375-2.457 1.875-4.9883 2.8594-7.5 0.34766-0.68359 0.68359-1.4336 1.0312-2.1172 1.0859-3.4766 2.3164-6.8906 3.6094-10.031v-0.003906c3.7109-8.9141 8.5273-17.324 14.336-25.039 7.9727-11.297 18.492-20.559 30.711-27.027 6.5039-3.5508 13.695-5.6445 21.086-6.1406 4.5664 0 6.4766 0.41406 6.5625 1.1641s-1.7812 1.6406-5.8047 2.8125v-0.003907c-6.4336 2.0117-12.582 4.8477-18.289 8.4375-7.3125 4.7461-13.906 10.516-19.586 17.129 8.9609-6.1562 19.125-10.344 29.824-12.281 11.164-2.043 22.668-1.125 33.363 2.6641 6.4219 2.5234 8.6719 4.5664 8.3242 5.625-0.34766 1.0586-3.4141 1.3594-9.6836 1.0234v-0.003907c-9.8633-0.75781-19.785 0.16406-29.344 2.7305-17.395 5.1562-32.379 16.363-42.242 31.594-1.6406 2.2578-3.1406 4.9883-4.6875 7.5-1.4414 2.5898-2.6953 5.2812-3.75 8.0508-0.47656 1.3672-0.9375 2.7266-1.5 4.1641 6.0625-2.4648 12.453-4.0469 18.965-4.6875 9.4727-0.96875 19.043-0.22656 28.258 2.1836 13.641 3.75 17.738 7.8477 17.258 8.8672-0.60938 1.5664-5.625-0.066406-18.629-1.7734v0.003906c-8.5391-1.1211-17.195-1.0781-25.723 0.13281-9.375 1.1836-18.309 4.6797-25.996 10.172-0.41406 0.75-0.68359 1.5-1.0977 2.3164-0.60938 0.89062-1.1641 1.875-1.707 2.7266 1.3945 0.066407 2.7812 0.20312 4.1641 0.41016 5.125 0.6875 10.094 2.2734 14.672 4.6875 6.6172 3.6836 8.2578 6.2812 7.6406 7.4453-0.67578 1.3594-3.6094 1.0234-10.312-0.61719-4.2305-1.1836-8.582-1.8906-12.969-2.1094-4.418-0.19922-8.8477-0.019532-13.234 0.54297-2.9336 2.25-5.8047 4.0977-8.4375 5.9336-2.375 1.5312-4.5742 3.3164-6.5625 5.3242 21.699 2.6367 41.887 12.496 57.309 27.992 15.418 15.496 25.18 35.727 27.711 57.441 4.2383-4.8477 8.7383-9.375 13.125-14.117 0.9375-1.5664 2.3125-2.8242 3.957-3.6172 0.61719-0.27344 1.293-0.61719 1.875-0.89063-0.75781-12.535-4.7266-24.66-11.531-35.215-5.3242-8.4453-12.176-15.828-20.203-21.77-3.0664-2.1172-5.5234-4.4336-7.9141-5.7266-2.3906-1.293-4.2266-2.5312-5.625-3.5547-2.8672-1.9766-3.957-3.2734-3.75-3.8906 0.20703-0.61719 1.875-0.75 5.3906 0.20703 1.707 0.47656 3.9648 1.0977 6.6953 2.1172v0.003907c3.2578 1.2812 6.3945 2.8516 9.375 4.6875 9.5977 5.7188 17.805 13.504 24.02 22.789 7.0938 10.496 11.629 22.512 13.238 35.082 0.53906-0.34766 1.0625-0.73047 1.5547-1.1445 2.8281-2.25 4.3398-5.7734 4.0234-9.375 0.015624-1.75 0.48828-3.4648 1.3672-4.9766 0.23828-2.1094 1.0938-4.1016 2.457-5.7305 14.258-16.875 20.129-35.898 28.125-56.035 6.832-13.645 12.957-27.637 18.348-41.914zm-105.7 141.87c0.67578-0.54297 2.5234 0.20703 4.8359 2.6641-1.2617-16.301-8.0508-31.684-19.238-43.605-15.641-17.09-37.512-27.148-60.664-27.898-5.5312 6.207-11.398 12.188-17.203 18.215-0.47656 0.68359-0.9375 1.3047-1.4258 1.9766v0.003906c-4.5391 5.8477-8.668 12.008-12.355 18.43-3.4961 6.332-6.3242 13.008-8.4375 19.922 2.7266-1.4102 5.2734-3.1523 7.5742-5.1836 0.47656-0.33594 0.82422-0.75 1.3047-1.0977 1.6328-1.875 3.2734-3.543 4.8359-5.1094 2.7383-2.6641 5.2578-4.9219 7.6484-6.8242 0.88281-0.89062 1.7734-1.707 2.5859-2.5312 9.2812-9.4766 16.379-15.148 18.43-13.305 1.707 1.5664-1.0977 9.2812-8.1953 21.289l0.007812 0.003906c-4.2383 7.168-9.2461 13.848-14.945 19.922-1.293 1.2266-2.5977 2.457-3.957 3.6953-1.3672 2.6523-2.6641 5.3164-3.75 8.043v-0.003907c-1.5156 3.2383-2.0391 6.8477-1.5078 10.379 0.23047 0.99219 0.78516 1.8789 1.5742 2.5234l0.27344 0.27344 0.33594 0.27344 0.89062 0.61719v-0.003907c0.17969 0.15234 0.38672 0.26563 0.60938 0.33984 0.14062-0.066406 0.20703 0 0.41406 0.14062 0.28125 0.058594 0.55859 0.14844 0.82422 0.26953 3.3633 0.17578 6.6836-0.83984 9.375-2.8672 3.9062-2.5781 7.543-5.5508 10.848-8.8672 6.8906-6.6836 12.758-13.586 17.945-19.379 10.039-11.605 17.953-18.43 19.996-16.586 1.7812 1.5664-1.7734 10.238-9.375 24.16h-0.003906c-3.6953 6.5586-7.8438 12.855-12.422 18.836-2.5625 4.0391-5.3789 7.9141-8.4375 11.594-0.75 0.9375-1.5664 1.875-2.3164 2.9336l-1.3672 1.5742-1.2266 1.3594c-0.81641 0.9375-1.6328 1.707-2.3164 2.5234l1.707 0.47656c1.1641 0.20703 1.2266 0.14062 1.9766 0.28125v0.003906c1.293 0.03125 2.5859-0.15234 3.8164-0.55469 3.2852-1.543 6.25-3.6992 8.7383-6.3477 3.2695-3.3242 6.7344-6.457 10.379-9.375 3.4141-2.3164 6.5625-4.5 9.4766-6.5625 0.29297-0.19922 0.57031-0.42578 0.82422-0.67188 9.5547-11.879 16.445-18.562 18.562-17.27 1.4258 0.9375 0.40234 5.457-2.457 12.422-0.88672 2.9492-2.1211 5.7812-3.6836 8.4375-0.68359 1.3047-1.3047 2.6641-1.9883 4.0977-2.25 3.4141-4.7734 7.1641-7.5742 11.129-2.043 3-15.695 17.398-10.977 21.02 5.5234 4.293 25.172-15.148 29.137-18.16 3.9648-3.0078 7.8477-6.1406 11.465-8.9336 0.81641-0.68359 1.875-1.4336 2.5859-2.0547h0.003907c0.41797-0.55469 0.875-1.0781 1.3672-1.5664 1.1523-0.75 1.7734-2.3906 2.7266-3.5547 2.4414-4.3086 3.3477-9.3203 2.5703-14.211-0.44141-3.8164-0.9375-6.4805 0.17969-7.3047zm-72.367-524.46c23.746-56.023 27.91-117.19-24.844-150.07-0.75-0.14062-1.5-0.33594-2.3164-0.47656-20.27-2.457-38.289-2.7266-38.438-6.207-0.074219-1.5742 4.2266-3.3477 11.324-4.6406 5.5547-0.88672 11.168-1.3203 16.793-1.3047-0.074219-0.40234-0.20703-0.75-0.27344-1.1523-4.5742-36.918-91.789-51.938-121.13-53.57v0.003907c-30.34-1.1055-60.477 5.3828-87.676 18.871 14.422-2.8828 29.203-3.4805 43.809-1.7734 13.648 1.5 21.703 3.957 21.703 5.3906-0.074219 1.707-8.7383 2.1094-22.051 2.7266v0.003907c-17.023 0.21484-33.953 2.6445-50.352 7.2266-13.074 4.4297-25.059 11.594-35.148 21.02-1.8086 2.4961-2.8438 5.4727-2.9766 8.5547s0.64062 6.1328 2.2266 8.7773c1.2031-1.4727 2.5508-2.8203 4.0234-4.0195 4.3594-3.6484 9.3281-6.5039 14.672-8.4375 8.2422-3.0078 16.852-4.8984 25.594-5.625 7.4492-1.4258 15.117-1.2656 22.5 0.47656-6.9336 2.7734-14.215 4.5898-21.637 5.3906-8.0039 1.6289-15.809 4.125-23.27 7.4453-5.1602 2.2617-9.8047 5.5586-13.641 9.6836 7.9375-1.6562 15.988-2.7266 24.086-3.207 6.2812-0.33594 12.695-0.75 19.246-1.0859 6.9961-0.24219 14.004 0.097656 20.941 1.0195 4.7812 0.54297 9.1484 1.4336 13.715 1.9766l0.003906 0.003906c4.1641 0.55859 8.3594 0.87109 12.562 0.9375 4.3672 0.066406 8.6641 0.066406 12.965 0.13281 4.3047 0.066406 8.8672 0.54297 13.125 0.82422l24.703 1.6328-23.336 8.8047v-0.003907c-2.918 1.0508-5.7422 2.3555-8.4375 3.8906 2.5664 1.2305 5.3086 2.0586 8.1289 2.457 4.7695 0.59766 9.6133 0.15234 14.195-1.3047 9.207-2.5234 17.258-6.7578 24.375-9.2812 2.3242-0.9375 4.4336-1.5664 6.4883-2.1836h-0.003906c3.1211-1.3164 6.3086-2.4531 9.5547-3.4141 16.305-4.293 26.477-3.957 26.746-2.5859 0.41406 1.6953-9.5547 4.3594-24.02 10.312-8.1719 3.1797-15.586 8.0352-21.766 14.258-3.3633 3.5195-6.0039 7.6602-7.7812 12.188-0.47656 1.0859-0.88281 2.6641-1.3594 4.0234l-0.41406 1.0234-0.066406 0.27344-0.34766 0.074219 0.066407 0.27344-0.27344 1.875 0.003907-0.003907c-0.46484 2.7031-0.71484 5.4414-0.75 8.1836-0.75781 9.9492 2.0508 19.84 7.9219 27.91 1.7891-7.5273 4.6875-14.746 8.5938-21.422 0.9375-2.5977 1.9766-5.1172 3.1406-7.5742 6.0977-12.582 15.633-23.184 27.5-30.574 7.7812-5 16.52-8.3242 25.656-9.7578 6.4141-0.89062 9.9648-0.41406 10.031 0.27344 0.14062 0.9375-3.207 1.875-8.9453 4.0977l0.003906-0.003906c-7.9453 2.8711-15.398 6.9414-22.105 12.074-10.926 8.1992-19.273 19.355-24.047 32.148-4.7773 12.793-5.7891 26.691-2.9062 40.039 1.1055 8.8164 2.9883 17.516 5.625 26 2.043 6.2812 8.3906 14.879 14.805 6.2812-2.5234 3.4141 2.5977 20.129 3.8906 24.094h-0.003906c1.1797 3.8125 2.8086 7.4766 4.8477 10.91 1.5664-2.043 3.1406-4.0234 4.5742-5.8672 0.066406-0.066406 0.066406-0.13281 0.13281-0.20703 3.9102-9.2539 10.312-17.238 18.496-23.062 4.7891-3.5156 10.363-5.8125 16.238-6.6836 0.40625-0.035156 0.82031-0.035156 1.2266 0-2.1211-3.4648-4.0547-7.043-5.793-10.715-1.6758-3.6055-3.0273-7.3516-4.0312-11.195-1.2383 0.29297-2.5352 0.25-3.75-0.13281-1.8047-0.51953-3.375-1.6523-4.4336-3.2031-0.61328-0.88281-1.0977-1.8516-1.4336-2.8711-0.57031-1.4766-0.98047-3.0117-1.2305-4.5742l-0.27344-1.875h0.003906c-0.074218-0.85938-0.074218-1.7266 0-2.5859 0.066407-1.4336 0.19531-2.8672 0.27344-4.3047 0.47656-2.5859 1.0859-4.9766 1.6328-7.3047h-0.003906c2.4492-7.7617 5.7188-15.242 9.7578-22.312 1.7812-2.9336 3.6172-5.457 5.1172-7.6406 1.875-2.1836 3.4141-3.957 4.7812-5.3242 2.8672-2.25 4.6875-3.207 5.25-2.7266 0.5625 0.47656-0.40234 2.3906-2.457 5.457-0.68359 1.6406-1.6328 3.4766-2.7266 5.625-1.0234 2.3242-2.1172 4.9766-3.4141 7.9141l0.003906-0.003906c-3.1367 6.9297-5.7148 14.094-7.707 21.434-0.34766 1.9766-1.875 4.0312-1.875 6.1406v2.8125c0.17969 0.45703 0.48438 0.85547 0.88281 1.1523l0.75781 1.4336c0.066406-0.13281 7.7734-10.508 7.7734-10.508l2.457 13.039h-0.003907c0.92578 5.8125 2.6758 11.465 5.1953 16.781 4.8828 9.6562 10.281 19.047 16.172 28.125 4.1641 4.9336 7.0469 10.816 8.3906 17.129 0.27344 0.75 0.47656 1.5 0.68359 2.25 3.375-17.352 4.9453-35.004 4.6875-52.68 0.066406-14.879 0.20703-24.43 1.875-24.562 1.5664 0 4.1641 9 6.207 24.02 1.4023 10.988 1.8398 22.078 1.3125 33.141zm-83.906 81.562c32.477-3.957 76.875-34.801 53.223-72.676-0.54297-0.89062-1.1523-1.7734-1.707-2.5977-2.9844-3.4922-7.418-5.4102-12.008-5.1836-4.4414 0.57422-8.6289 2.3984-12.078 5.2617-3.2695 2.5781-6.3984 5.332-9.375 8.25l1.0234 0.20703 1.9766 0.54297 1.0234 0.28125c0.9375 0.33594 0.89062 0.40234 1.3672 0.54297l2.3164 0.9375c6.3008 2.6641 11.453 7.4727 14.543 13.574 1.5273 3.3516 2.0234 7.082 1.4219 10.715-0.57422 3.3555-2.0078 6.5039-4.1602 9.1406-1.0273 1.2188-2.1406 2.3594-3.3398 3.4141l-1.4336 1.0977-0.68359 0.54297-0.33594 0.20703-0.41406 0.33594-0.41406 0.20703c-2.3672 1.4727-4.9727 2.5117-7.7031 3.0742-4.7578 0.75-9.6289 0.058594-13.988-1.9766-2.582-1.2305-5.3516-2.0156-8.1953-2.3281-0.98438 0.023438-1.9648 0.11328-2.9336 0.27344-1.5 1.875-2.8672 3.6836-3.957 5.3242-0.35938 0.54297-0.67188 1.1133-0.9375 1.707l-0.20703 0.41406c-0.066407 0.066407-0.13281 0.066407-0.27344 0.066407l0.003906-0.003907c0.27734 0.3125 0.62891 0.54688 1.0195 0.6875 2.0508 0.83203 4.1758 1.457 6.3477 1.875 3.957 0.88281 6.2812 1.5 6.2812 2.3164 0 0.81641-2.25 1.6406-6.4883 2.1836-2.7734 0.33984-5.5859 0.22266-8.3242-0.33984-2.6992-0.51562-4.9141-2.4453-5.793-5.0508-0.51953-2.6367-0.085937-5.375 1.2266-7.7188 1.875-3.8164 4.0859-7.0977 6.1406-10.707v0.003906c2.1523-3.4805 3.8477-7.2188 5.0469-11.129-0.60938-0.77344-1.2695-1.5039-1.9805-2.1836-4.6445-4.8203-8.2656-10.531-10.641-16.793-1.6484-4.3555-2.7969-8.8906-3.4102-13.508-1.3945 0.30859-2.8359 0.30859-4.2305 0-1.8672-0.52344-3.5938-1.4531-5.0508-2.7305-2.0547-1.9336-3.7461-4.2227-4.9883-6.7578-1.1484-2.1719-2.125-4.4297-2.9258-6.75-3.0703-9.1406-5.2422-18.562-6.4883-28.125-0.27344-1.9766-0.41406-3.8906-0.61719-5.8672l-3.6094-1.5742v-0.003906c-3.707-1.668-7.0469-4.0547-9.8242-7.0195-2.6992-3.0977-4.8867-6.5977-6.4883-10.379-3.1172-7.7383-4.582-16.039-4.3047-24.375 0.097656-3.3672 0.46484-6.7227 1.0977-10.031l0.54297-2.457 0.14062-0.61719 0.20703-0.68359 0.066406-0.27344 0.40234-1.0234c0.55469-1.4336 0.89062-2.7266 1.5742-4.3047v0.003906c1.4375-3.4219 3.293-6.6523 5.5234-9.6211-1.875 0.81641-3.8164 1.707-6 2.457-5.6602 2.1367-11.715 3.0234-17.746 2.5977-6.793-0.76172-13.297-3.1523-18.969-6.9648l-4.5078-2.9336 3.3477-4.293c0.54297-0.68359 1.0977-1.0977 1.6406-1.707-2.5977 0.066406-5.1172 0.066406-7.7812 0.066406v-0.003906c-4.7266 0.03125-9.4453-0.26563-14.129-0.89063l-13.445-1.875c-6.2617-0.83984-12.582-1.1797-18.898-1.0195l-19.172 0.82422c-9.75 0.19531-19.441 1.5703-28.867 4.0859-0.10938 0.28906-0.24609 0.56641-0.41016 0.82812-22.805 35.641-28.965 79.449-16.875 120 0.80078 2.5625 0.46094 5.3477-0.9375 7.6406-0.16797 0.97656-0.48438 1.9258-0.9375 2.8125-0.60938 1.1641-1.0234 2.2578-1.6406 3.4141v-0.003906c0.23828 0.17969 0.42969 0.41406 0.55078 0.68359 1.875-1.875 3.6836-3.6172 5.043-5.1172h0.003906c4.9531-5.0898 8.6367-11.281 10.742-18.066 3.6172-11.945 4.0312-20.746 5.9336-20.625 0.75 0 1.5078 2.1172 2.1172 5.8672l0.003907 0.003907c0.80859 5.5 0.76172 11.094-0.14063 16.582-1.3203 8.5625-4.9805 16.594-10.578 23.203-3.2734 3.8906-6.4141 6.8906-8.7383 10.164h0.003906c-1.0312 1.3438-1.7969 2.875-2.25 4.5078-0.26953 0.89062-0.09375 1.8555 0.47656 2.5898 0.44922 0.54688 0.95312 1.0508 1.5 1.5 0.36328 0.30469 0.75391 0.57813 1.1641 0.82422l0.54297 0.33594 0.20703 0.14062 3.3477 1.5h-0.003906c0.74609 0.11719 1.4766 0.29688 2.1875 0.54297 3.6172 0.68359 8.4375 0.20703 13.848 1.293l-0.003906 0.003907c2.6602 0.53125 5.2148 1.4805 7.5781 2.8125 0.76953 0.49609 1.5664 0.94922 2.3906 1.3594 0.60156 0.28125 1.2305 0.50781 1.875 0.68359 2.2617 0.80859 4.7578 0.63672 6.8906-0.48047 3.6836-1.875 4.0977-7.5742 3.957-10.641-0.27344-3.8906-0.68359-5.5312 0.066406-6.0742 0.75-0.54297 2.6641 1.4336 4.2383 4.7734h-0.003906c1.0469 2.457 1.582 5.1055 1.5664 7.7812 0.007813 4.0859-1.7617 7.9727-4.8477 10.648 1.9219-0.45703 3.8945-0.66797 5.8672-0.61719 9.3477 1.1758 17.59 6.6914 22.25 14.879 5.1016 8.8594 7.2969 19.102 6.2695 29.277-1.0273 10.172-5.2266 19.77-12 27.43-5.9219 7.0156-14.711 10.957-23.887 10.715-4.6562-0.51562-9.3633-0.097656-13.855 1.2305 9.8359 2.7266 19.688 4.6406 29.008 8.1836 6.207 0.82422 12.758 1.5742 19.789 2.1836 32.418 2.3242 59.578 3.8242 59.578 7.2383 0 2.9336-26.758 6.6172-60.535 4.2266-0.89062-0.066406-1.7734-0.14062-2.6641-0.27344 4.1641 12.824 4.9883 27.91 13.125 38.438v0.003906c32.824-6.1016 64.113-18.648 92.055-36.918 18.836-13.125 34.688-29.68 52.07-44.492v-0.003906c0.54297-1.1992 1.3086-2.2852 2.25-3.207 3.207-3.0742 6.4219-6.4883 9.6953-10.098l-0.003906 0.003907c1.6719-2.3867 3.5898-4.5859 5.7305-6.5625-10.141 3.9688-20.914 6.0742-31.801 6.2031-4.8711 0.14844-9.7305-0.48437-14.402-1.875-3.9453-1.0312-7.3438-3.5508-9.4766-7.0312-1.2383-2.2422-1.6289-4.8594-1.0977-7.3672 0.54297-1.4336 1.0234-2.1836 1.3672-2.1836 1.0234 0 0.47656 3.8242 3.4141 7.0312 5.7969 3.8633 12.961 5.082 19.707 3.3555zm33.16 403.57c3.1406-4.2266 6.4883-8.25 9.8984-12.188-8.1055 3.7344-15.715 8.457-22.66 14.062-1.0234 0.88281-7.8477 6.1406-6.5625 7.9766 5.9531 8.3945 16.051-5.3867 19.324-9.8984zm-149.51 349.69c0-0.10547 0.046874-0.20312 0.12891-0.26953-0.30078-0.97266-0.46094-1.9844-0.46875-3-0.14062-11.129-6.3477-21.496-6.0078-32.418 0.47656-14.738 6.7578-30.703-2.9336-44.352-13.305-18.75-35.211-23.617-56.84-22.855-0.20703 0.13281-0.41406 0.33594-0.61719 0.46875l-0.41406-0.40234c-3.957 0.13281-7.9141 0.47656-11.867 0.9375-46.07 5.7266-84.074 31.527-80.184 81.207 25.109 40.859 133.95 81.762 159.2 20.684zm-12.488-596.83c1.3594-2.7266-3.75-5.9336-6.0742-6.0742-2.8828 0.050781-5.4883 1.7305-6.7188 4.3398-1.2305 2.6055-0.87891 5.6836 0.91406 7.9414 0.68359 0 1.3672-0.066407 2.0547-0.066407 4.0078-0.52344 7.5938-2.7656 9.8242-6.1406zm-0.89062 297.6c0.75-3.4766-1.7734-6.4141-5.8047-8.4375-4.9141-2.1758-8.7266 2.2578-8.25 7.0312 0.38672 4.1523 3.75 7.3984 7.9141 7.6406 1.3281-0.35156 2.5625-0.99219 3.6172-1.875 1.2305-1.1914 2.1055-2.6992 2.5234-4.3594zm-6.8242 54.59c0.75-3.4766-1.7734-6.4141-5.793-8.3906-4.9219-2.1836-8.7383 2.25-8.2578 7.0234h-0.003906c0.38281 4.1562 3.7461 7.4062 7.9141 7.6484 1.3281-0.35547 2.5625-0.99219 3.6172-1.875 1.2383-1.2031 2.1094-2.7305 2.5234-4.4062zm-37.5-476.93c18.836-0.61719 30.16-24.977 25.117-41.973-4.0977-13.715-17.129-26.25-31.461-15.555l-0.003906 0.003906c-3.3359 2.9492-7.2031 5.2383-11.391 6.75-7.5742 1.875-13.379-1.4336-20.82-0.60937-9.8242 1.0234-9.957 9.375-9.6836 16.305 7.8477 11.398 17.812-3.4766 25.727-8.0547 6.2812-3.6094 13.922-4.6875 17.672 2.5977l-0.003906-0.003906c0.77734 0.65625 1.2695 1.5859 1.3672 2.5977 1.2539 9.5703-1.5391 19.227-7.7148 26.641-6.1719 7.418-15.16 11.922-24.797 12.426 3.2539 2.1406 6.9727 3.4727 10.848 3.8906 4.3047-1.5 8.1172-4.6875 12.355-6 3.6836-1.1992 9.4766 1.1172 12.824 0.98438zm31.594 81.617c-9.6836-13.039-9.6172-28.867-15.695-43.742-0.81641-0.47656-1.707-0.9375-2.5859-1.3047-0.64453 4.2266-0.83203 8.5078-0.55469 12.77 0.41797 5.5703 1.1914 11.105 2.3242 16.574 1.6328 8.5312 1.875 12.188 0.40234 12.629-1.293 0.41406-3.8164-2.1172-7.3672-10.508-2.3477-5.7109-3.9531-11.695-4.7734-17.812-0.72656-5.7852-0.61328-11.648 0.33984-17.402-7.2266-2.25-14.738-3.6836-22.105-5.5312-0.80859 0.57813-1.6797 1.0625-2.5977 1.4375-18.965 7.0977-42.188 15.629-55.406 32.008-18.637 23.203-13.789 51.73-11.465 79.367 4.1914 52.684 13.191 104.88 26.887 155.92 0.19141 0.29687 0.35156 0.60937 0.47656 0.9375 2.7188 4.875 6.168 9.3008 10.23 13.125 5.043 4.5 9.832 9.2852 14.332 14.328 11.082 12.699 20.508 26.758 28.051 41.828-0.48828-14.793-0.125-29.602 1.0859-44.352-14.996-6.582-28.402-16.312-39.309-28.527-2.4062-2.7695-4.3633-5.9023-5.793-9.2812-0.82422-2.1094-0.82422-3.2734-0.27344-3.6836 0.55469-0.41406 1.707 0 3.4766 1.3047 1.7734 1.3047 4.1641 3.6094 7.7812 6.6172h0.003906c10.684 8.9219 22.414 16.508 34.941 22.582 0.9375-12.695 1.875-24.977 2.043-36.234 0.60938-42.449 8.6641-83.598 11.195-125.77 1.668-27.57 4.4688-48.402 24.391-67.285zm-39.066-149.52c-1.6406 0.13672-3.2891 0.066406-4.9141-0.20703-1.3086-0.21875-2.5859-0.58203-3.8164-1.0859-1.5742-0.54297-1.9766-0.89063-3.1406-1.3672v-0.003906c-1.4805-0.63281-3.043-1.0703-4.6406-1.293-3.3477-0.54297-7.9141 0.14062-13.855-0.60938-1.5664-0.34766-3.2734-0.75781-4.8477-1.2383l-3.4141-1.4258-0.19531-0.074219-0.82422-0.40234-0.47656-0.34766-1.0234-0.60938c-0.65234-0.41406-1.2773-0.87109-1.875-1.3672-1.457-1.1016-2.7422-2.4141-3.8164-3.8906-0.96875-1.3555-1.6641-2.8828-2.0508-4.5-3.875 14.188-4.2734 29.098-1.1523 43.473 0.089843-6.1914 3.1406-11.965 8.1992-15.527 5.0625-3.5664 11.523-4.4922 17.383-2.4922 8.7266 0.59375 17.383-1.8945 24.461-7.0312zm-20.738 56.773c4.668-1.8672 8.625-5.1602 11.309-9.4102 2.6836-4.2539 3.957-9.2422 3.6367-14.262-0.042969 0-0.078126-0.03125-0.078126-0.074219-1.0859-2.3906-18.898 11.879-21.422 13.125-2.8594 1.4492-6.1016 1.9688-9.2734 1.4766-3.168-0.48828-6.1055-1.9609-8.3984-4.2031 1.3789 4.1914 3.0898 8.2656 5.1094 12.188 5.8711 3.2539 12.898 3.6836 19.117 1.1602zm-64.219 268.94c0.25781-0.16406 0.53125-0.30078 0.81641-0.41406-9.9219-42.52-16.039-85.84-18.281-129.45-9.3984 3.3086-17.629 9.2812-23.684 17.195-0.11328 9.7852-1.1445 19.543-3.0742 29.137-1.6016 8.0742-4.2617 15.902-7.9102 23.277-1.8477 4-4.2148 7.7383-7.0312 11.121-1.7734 2.043-2.8672 2.7266-3.4766 2.3906-0.60938-0.33594-0.68359-1.707-0.066406-4.3047 0.61719-2.5977 2.1836-6.3477 3.8164-11.945h-0.003906c2.3984-7.2539 4.1992-14.691 5.3906-22.234 1.0898-7.168 1.7148-14.395 1.875-21.641-1.2109 0.12109-2.4375 0.027344-3.6172-0.26953-0.91406 2.8516-2.0781 5.6133-3.4805 8.2578-3.1172 5.8711-6.9961 11.309-11.531 16.172-6.207 6.7148-13.168 12.691-20.746 17.812-11.324 7.5742-16.445 9-17.195 7.9141-0.82422-1.293 2.9336-4.8477 12.695-13.586 6.4531-5.7305 12.516-11.887 18.152-18.422 3.793-4.418 7.0469-9.2734 9.6914-14.465 1.7539-3.3984 3.0156-7.0273 3.75-10.781-3.957-3.9141-8.1484-7.582-12.551-10.988-2.8555 7.8008-7.2188 14.965-12.836 21.086-8.7422 8.582-18.617 15.93-29.344 21.844-16.105 8.25-34.051 22.445-52.688 20.625 14.129 23.438 48.59 35.625 71.793 48.102 30.543 16.5 66.777 35.195 99.535 13.566zm-87.617-145.9c1.7734-3.3359 11.465-16.875 7.3047-18.965-6.0742-3.0742-16.105 3.75-20.812 7.1641-0.34766 0.20703-0.68359 0.41406-0.9375 0.54297l-0.003906-0.003906c-0.98047 0.76172-2.1289 1.2773-3.3477 1.5117-2.7852 4.6875-4.6914 9.8438-5.625 15.215-1.3672 5.9336-2.457 8.4375-3.957 8.4375-1.293-0.066406-2.8125-2.3164-3.2812-8.9336h0.003907c-0.375-4.6133 0.18359-9.2578 1.6406-13.652 0.42578-1.4102 0.97656-2.7773 1.6406-4.0938-10.305-6.2383-19.035-14.762-25.52-24.91-4.6992-8.6875-12.387-15.379-21.637-18.836-18.836-3.957-2.25 17.746 2.5234 23.344 0.14062 0.19531 0.27344 0.40234 0.47656 0.67578 1.2227 1.0781 2.0781 2.5117 2.4531 4.0977 3.8828 11.488 5.7344 23.566 5.4688 35.691-0.45703 5.4141-3.1562 10.395-7.4453 13.734 0 0.28125 0.14062-0.19531 0.14062 0.14062 0 13.031-1.7734 30.777-17.879 30.777h-0.074219c3.125 5.1562 7.6445 9.3203 13.039 12.008 0.75 0.47656 1.3594 2.457 1.875 3 15.949-5.5938 30.934-13.629 44.422-23.812 8.8398-4.9102 16.324-11.949 21.766-20.473 2.5312-5.457 4.6406-10.715 7.3047-15.836-0.90234-2.2266-0.73047-4.7422 0.46094-6.8242zm-81.891 8.9453c6-0.14062-0.81641-24.43-2.6641-31.66-0.20312-0.21094-0.38672-0.44141-0.54297-0.6875-7.6406 9.0117-14.336 32.758 3.207 32.344zm-10.848 29.551c6.1406 0 5.7266-8.4375 5.5234-13.855l-0.003906-0.003906c-0.30078-0.027344-0.59766-0.09375-0.87891-0.20703-8.9062-2.2031-16.078-8.7852-19.043-17.465-4.3672 3.1406-2.5977 20.477-1.0312 24.637 1.5664 4.1641 11.543 6.8906 15.434 6.8906z"/>
 <path class = "editable" d="m566.69 630.17c5.1641 2.1289 9 6.5898 10.332 12.016 1.3281 5.4219-0.007813 11.152-3.6016 15.43-3.5898 4.2734-9.0078 6.5781-14.578 6.2031-5.0234-0.88672-9.4844-3.7422-12.391-7.9336-2.9102-4.1875-4.0273-9.3633-3.1055-14.379 0.90234-4.9297 4.0117-9.1797 8.4375-11.531 4.7383-2.207 10.227-2.1367 14.906 0.19531zm0.60938 17.27c0.75-3.4766-1.7734-6.4141-5.8047-8.3906-4.9141-2.1836-8.7266 2.25-8.25 7.0312 0.38672 4.1523 3.75 7.3984 7.9141 7.6406 1.3281-0.35156 2.5625-0.99219 3.6172-1.875 1.2383-1.2031 2.1133-2.7305 2.5234-4.4062z"/>
 <path class = "editable" d="m566.69 712.06c5.1641 2.1289 9 6.5898 10.332 12.016 1.3281 5.4219-0.007813 11.152-3.6016 15.43-3.5898 4.2734-9.0078 6.5781-14.578 6.2031-5.0234-0.88672-9.4844-3.7422-12.391-7.9336-2.9102-4.1875-4.0273-9.3633-3.1055-14.379 0.90625-4.9336 4.0117-9.1797 8.4375-11.543 4.7383-2.2031 10.227-2.1289 14.906 0.20703zm0.60938 17.27c0.75-3.4766-1.7734-6.4141-5.8047-8.3906-4.9141-2.1836-8.7266 2.25-8.25 7.0234 0.38281 4.1562 3.7461 7.4062 7.9141 7.6484 1.3281-0.35547 2.5625-0.99609 3.6172-1.875 1.2305-1.1914 2.1055-2.6992 2.5234-4.3594z"/>
</svg>
