<?xml version="1.0" encoding="UTF-8"?>
<svg width="1200pt" height="1200pt" version="1.1" viewBox="0 0 1200 1200" xmlns="http://www.w3.org/2000/svg">
 <path class = "editable" d="m1115.6 67.035c-102.74-0.27734-200.21 46.707-284.86 105.14-123.03 84.746-170.75 155.91-201.51 240.18-4.0625-9.1484-8.8633-16.375-14.141-21.23 45.047-143.71 142.43-157.72 134.61-237.38-0.44141-4.5156-6.9062-3.8945-6.4609 0.73047 7.3008 74.297-87.988 89.445-133.72 232.59-6.2031-3.4414-12.27-3.7031-18.977 0-45.887-143.63-141.05-158.01-133.72-232.58 0.45312-4.625-6.0078-5.2422-6.4609-0.73047-7.8281 79.719 89.344 92.992 134.6 237.36-5.2969 4.8477-10.109 12.082-14.168 21.238-15.969-43.754-39.414-87.875-66-120.18-75.863-92.055-255.79-225.58-420.37-225.13-82.34 0-85.328 56.574-64.523 96 12.371 23.262 31.66 42.094 45.602 64.43 38.031 61.109 31.383 139.02 50.309 208.43 18.766 68.547 54.258 84.684 105.05 81.602-115.17 87.645-37.254 143.5-51.414 180.28-5.4453 14.125-21.785 24.555-20.398 39.602 1.8477 19.57 30.461 24.277 39.324 41.816 12.371 24.555-20.863 56.309-6 79.57 10.984 17.078 38.953 13.383 52.43 28.523 18.996 21.285 2.8242 44.039-62.863 195.41-6.2773 14.398-12.094 32.77-0.27734 44.031 12.5 12.312 40.746 8.3984 51.785-30 9.8477-33.988 3.9961-112.36 56.031-124.8 37.938-8.9531 74.676 33.23 112.15 22.617 37.227-10.375 19.734-48.527 50.863-58.984 71.965-23.805 8.4102-142.62 141.79-341.72 2.3086 9.1367 2.8633 18.832 1.3828 28.43-3.6914 23.723-5.9062 90.461-5.9062 104.77 0 28.707 9.0469 51.969 20.309 51.969 11.168 0 20.215-23.262 20.215-51.969 0-14.309-2.2148-81.047-5.8164-104.77-1.4766-9.6016-0.92188-19.293 1.3828-28.43 132.61 197.95 69.352 317.6 141.69 341.72 30.988 10.414 14.066 48.703 50.953 58.984 37.383 10.617 74.215-31.57 112.06-22.617 52.125 12.473 46.191 90.371 56.031 124.8 11.152 37.957 38.953 42.543 51.875 30 11.723-11.262 5.9062-29.629-0.27734-44.031-20.398-46.801-40.707-93.508-61.016-140.31-33.617-77.242 34.449-58.477 50.492-83.629 14.863-23.262-18.371-55.016-5.9062-79.57 8.8633-17.539 37.477-22.246 39.23-41.816 1.3828-15.047-14.863-25.477-20.309-39.602-7.1094-18.461 5.3555-37.938 10.34-57.137 8.6289-33.387-2.6016-77.906-61.754-123.14 50.457 3.0547 86.094-12.738 104.95-81.602 18.922-69.414 12.371-147.32 50.398-208.43 13.848-22.34 33.137-41.168 45.508-64.43 18.465-34.723 22.219-96.004-64.523-96.004zm-636.74 519.41c-8.3086 9.3242-14.953 20.309-28.707 24.645-17.816 5.7422-37.227-7.1523-30.277-28.984 2.6758-8.2148 8.0312-15.508 10.34-23.816 7.1094-25.57-18-28.355-27.23-31.477-15.312-5.2266-16.293-16.883-4.8906-20.953 66.137-24.109 133.88-60.711 156.83 35.816 4.9805 20.594-41.273 5.5742-76.066 44.77zm-229.84-189.79c-1.2734-8.5742 6.8672-14.188 14.586-17.906 80.527-38.586 133.57-2.6953 222.46 39.137 13.199 6.1836 27.691 10.246 40.43 16.707 6.7383 3.4141 3.9688 13.754-3.6016 13.199-89.105-6.2305-221.87 39.371-254.49 16.707-8.7695-6.0938-12.645-20.215-4.8906-27.508 5.3555-5.168 15.047-6.5547 16.617-13.754 3.4414-16.355-28.516-11.543-31.109-26.582zm5.2617-113.54c-5.5273-18.629 16.598-34.922 35.262-24.738 8.3984 4.707 12.832 13.57 17.539 21.602 12.184 20.863 35.078 45.414 59.078 63.23 5.4453 4.0625 1.7539 12.184-5.168 11.539-25.66-2.3984-51.785 0.27734-76.152 8.0312-11.816 3.6914-24 8.5859-36.184 6.4609-29.18-4.8633-33.887-42.805-6.1836-53.539 6.1836-2.3086 13.848-3.3242 17.078-8.6758 4.875-8.1445-2.75-15.371-5.2695-23.91zm228.64 10.617c30.645 38.492 52.152 82.801 69.602 128.31 2.6758 7.0156-5.0781 12.832-11.445 8.7695-14.77-9.4141-31.754-14.492-47.723-23.723-67.137-39-79.652-26.023-180.09-131.72-11.723-12.371-23.723-25.109-27.23-41.906-13.672-65.332 115.57-41.84 196.89 60.273zm-137.63-119.26c4.1523 2.8633 1.4766 9.3242-3.4141 8.4922-40.883-6.9961-65.059 15.676-68.586 36.922-31.402-12.156-32.844-64.633-95.262-68.031-15.25-0.82031-27.047 1.7539-38.398-9.6016-6-7.3828-1.6602-18.461 7.5703-20.398 35-7.5039 92.027-21.441 198.09 52.617zm-266.59-20.77c-1.0156 12.922-2.3086 27.047-1.1992 40.523 0.55469 7.5703-8.3984 12-13.848 6.832-24.906-23.852-32.676-57.359-25.016-86.863 2.3086-9.1367 6.6445-18.461 14.676-23.539 11.023-6.9883 76.266-11.676 116.86 3.6914 8.7695 3.3242 6.2773 16.246-3.0469 16.062-50.27-1.0352-84.582-9.1367-88.43 43.293zm23.633 130.61c-0.73828-3.6016-0.27734-7.3828 1.0156-10.801 6.2773-16.062 19.848-27.875 34.617-36.461 64.32-37.355 149.09-7.0781 122.95 7.5703-27.785 15.785-49.293 52.617-80.309 57.137-11.16 1.5586-20.168-0.09375-62.125-6.1836-6.7383-0.92188-14.125-2.2148-16.152-11.262zm35.723 107.17c-2.4922-2.0312-4.3398-4.8008-4.8008-7.8477-1.293-8.0312 6.0938-12.094 12.461-14.863 15.773-6.8203 15.508-16.875 7.9375-22.43-6.832-5.2617-15.324-4.8008-22.984-7.293-7.293-2.3984-14.398-9.0469-10.707-17.445 8.2266-18.805 46.078-6.5625 65.168-12.832 18.137-6.1289 40.516-34.883 60.371-19.57 6.6172 5.2891 6.0938 13.633-2.8633 18.277-9.2305 4.4961-24.324 5.5117-28.617 26.953-3.1836 15.922 5.0586 34.746 20.77 41.629 0 0 0.09375 0 0.18359 0.09375 2.3984 1.0156 2.3984 4.4297 0 5.5391-18.645 8.9453-33.684 16.016-49.199 18.922-16.43 3.1445-34.43 1.3906-47.719-9.1328zm54.184 98.953c-6.3711-6.1836-7.3828-16.523-13.57-22.891-4.707-4.8906-11.539-6.7383-17.539-9.7852-7.4766-3.9688-14.586-12.277-8.2148-21.047 1.8477-2.5859 4.6172-4.4297 7.5703-5.6289 52.395-20.621 57.805-23.336 67.848-23.906 18.23-1.2539 33.203 11.281 33.414 17.168 0.48828 10.266-16.66 7.2109-18.645 18.645-1.1914 7.5312 4.4844 13.449 9.9688 18.555 8.8711 8.8984 6.8945 19.922-0.46094 25.57-2.3086 1.7539-4.8008 3.1367-7.293 4.1523-9.2305 3.3125-42.047 9.6172-53.078-0.83203zm-9.4141 107.17c2.3086-3.5078 4.8906-6.832 7.4766-10.152 15.305-20.125 21.074-23.586 34.152-28.523 0.09375 0 0.18359 0 0.18359-0.09375 6.0938-2.125 9.3242 4.5234 5.4453 10.801-11.023 18.379 9.3242 12.066-14.031 40.617-9.0469 11.262-18.488 5.8789-30.832 1.8477-5.2578-1.7578-6.3672-8.5859-2.3945-14.496zm20.766 104.21c1.293-0.18359 2.7695 1.1992 3.3242 2.9531 0 0 0.21094 18.203 0.27734 19.477 1.2734 73.59-65.844-13.316-3.6016-22.43zm54.648-76.797c-0.27734-6.2773-8.2148-6.1836-12.832-9.3242-6.5547-4.6172-4.5234-15.602 1.6602-20.77 6.1836-5.0781 14.676-6.0938 22.523-7.4766 47.613-8.6016 61.484-29.863 101.54-71.262 1.8477-1.9375 4.9844-0.92188 5.4453 1.6602 0.73828 3.875 2.4922 7.8477 4.2461 10.523 10.469 15.84 39.906 14.152 32.586 49.293-3.0469 14.953-11.355 28.34-21.508 39.602-12.922 14.207-19.477 18.34-118.89 95.262-19.746 14.613-21.949 7.0234-57.785-32.863-29.465-31.199 43.984-39.703 43.016-54.645zm-24.922 232.34c-17.648-5.4922-23.004-17.73-12-34.246 3.5273-5.2891 9.582 2.0859 14.492 5.7227 6.8672 5.2539 13.328 7.5586 19.57 12.184 15.652 12.039 5.3438 25-22.062 16.34zm47.352-33.414c-37.367-46.688-60.047-59.383-33.875-78.277 191.3-141.91 157.44-124.09 189.51-105.23 3.5078 2.125 3.875 7.1992 0.92188 10.246-19.383 19.477-37.293 45.137-49.383 68.676-18.461 35.355-28.062 74.863-29.816 114.28-0.37109 9.2305-0.054688 30.434-15.047 37.383-20.648 9.6289-36.441-16.328-62.309-47.074zm100.34 138.46c-10.902 8.1797-48.656-2.9453-52.062-11.816-1.8086-4.2109 17.105-15.996 19.57-19.293 0 0.12891 0.45312 0 0.64453 0 1.7344 0 4.125 2.0117 6.0938 3.1367 8.5859 4.4219 27.785 6.7383 27.785 6.7383 0.44922 4.2695 1.5039 18.789-2.0312 21.234zm180.74-368.86c-52.43 78.738-88.617 172.15-100.62 266.03-1.293 9.6016-10.984 15.785-20.215 12.832-25.164-7.9844-28.66 27.691-49.754 27.137-5.7227-0.09375-10.891-3.1367-14.398-7.4766-18.934-23.668 1.0703-112.05 21.508-158.31 35.066-79.719 108.02-150.43 152.95-157.02 9.2305-1.293 15.691 9.0469 10.523 16.801zm38.309-26.492c-26.715 0-26.695-150.46 0-150.46 11.168 0 20.215 33.691 20.215 75.23 0 41.535-9.0469 75.23-20.215 75.23zm254.68-392.59c100.88-70.441 156.22-61.633 198.09-52.617 9.2305 1.9375 13.57 13.016 7.6602 20.398-0.09375 0-0.09375 0.09375-0.18359 0.09375-16.645 20.18-58.227-6.2305-96 38.125-11.094 12.793-19.66 32.484-37.57 39.414-3.4805-21.664-28.145-43.848-68.586-36.922-4.8906 0.83203-7.4766-5.6328-3.4141-8.4922zm102.83 141.23c27.691 10.734 22.977 48.691-6.0938 53.539-12.277 2.125-24.461-2.7695-36.184-6.4609-24.371-7.7539-50.586-10.43-76.152-8.0312-7.0156 0.64453-10.617-7.4766-5.168-11.539 23.906-17.816 46.891-42.371 59.078-63.23 4.707-8.0312 9.0469-16.891 17.539-21.602 18.5-10.09 40.746 5.9453 35.168 24.738-1.1992 4.0625-3.6016 7.7539-5.168 11.723-6.6719 15.547 7.75 17.41 16.98 20.863zm-37.57 107.54c1.4766 7.1992 11.262 8.5859 16.617 13.754 7.7539 7.293 3.7852 21.414-4.9844 27.508-8.7695 6.0938-20.215 6.3711-30.922 6.0938-74.676-2.125-149.63-27.969-223.57-22.801-7.4766 0.55469-10.34-9.7852-3.6016-13.199 0 0 28.754-10.922 97.016-43.383 23.906-11.168 48.094-22.523 74.125-26.863 48.73-7.9766 109.75 13.848 106.34 32.309-2.3945 14.875-34.453 10.281-31.02 26.582zm-272.49-1.1992c40.402-105.4 109.29-204.83 219.14-224.03 16.34-2.8633 35.262-2.8633 44.215 12.371 14.418 24.25-11.73 51.934-24 64.984-100.46 105.73-113.09 92.75-180.18 131.72-15.875 9.2305-32.863 14.309-47.629 23.723-6.4609 4.0625-14.215-1.75-11.539-8.7656zm-2.4023 119.63c24.176-98.316 92.457-59.316 156.92-35.816 11.863 4.3945 9.7305 15.906-4.8906 20.953-6.6445 2.2148-13.938 3.1367-19.57 7.0156-19.383 13.211-0.94922 37.414 2.5859 48.277 7.0078 21.398-12.066 34.855-30.277 28.984-28.672-9.0469-24.074-45.48-95.906-57.414-6.3711-1.1055-10.246-6.2773-8.8633-12zm114.09 330.74c-9.3242 2.9531-19.016-3.2305-20.215-12.832-12-93.875-48.277-187.29-100.71-266.03-5.168-7.7539 1.293-18.094 10.523-16.801 43.68 6.3984 116.8 74.824 152.95 157.02 20.316 45.977 50.254 165.08 7.1992 165.79-21.203 0.55469-24.793-35.25-49.754-27.137zm59.906 90c-3.582-2.4727-2.5859-16.91-2.125-21.23 0.37109-0.18359 0.92188-0.46094 1.8477-0.55469 8.9062-0.83984 22.449-3.1016 29.629-8.4922 1.1367-0.94141 1.9297-0.73828 3.0469-0.73828v-0.09375s14.539 10.773 18.832 16.617c6.4922 9.4336-39.957 22.949-51.23 14.492zm75.324-108.74c-25.152 30.59-44.547 19.375-50.031 0.92187-5.3555-18.859 5.207-116.36-81.508-203.91-3.0469-3.0469-2.6758-8.125 0.83203-10.246 31.43-18.488-1.3125-36.59 189.51 105.23 24.805 16.977 6.4414 29.953-31.57 75.508-0.35938 0.44141-26.852 32.039-27.23 32.492zm50.309-12.645c5.9062-4.3828 12.906-7.2383 19.57-12.184 1.4414-1.0625 7.5312-6.5273 8.8633-6.9219 2.3086-0.64453 4.707-0.18359 5.6289 1.1992 28.797 44.922-70.246 45.734-34.062 17.906zm40.152-161.36c-35.324 38.926-37.902 47.879-57.785 32.863-102.17-78.793-107.03-82.109-118.89-95.262-18.426-20.254-29.648-49.367-17.723-65.816 7.2266-10.016 21.73-12.516 28.707-23.078 10.32-14.965-3.4414-25.57 34.246 13.383 19.43 20.371 36.406 38.355 76.984 45.691 7.9375 1.3828 16.43 2.3984 22.617 7.4766 6.1836 5.168 8.125 16.152 1.5703 20.77-4.6172 3.1367-12.461 3.0469-12.832 9.3242-0.51953 15.918 71.879 23.266 43.105 54.648zm8.0312 44.586c0-22.414-2.7305-25.496 13.109-20.215 46.246 16.723-15.473 88.938-13.109 20.215zm24.371-126.65c3.9688 5.9062 2.7695 12.738-2.4922 14.492-12.441 4.0977-21.832 9.3516-30.832-1.8477-15.516-19.699-11.762-20.512-10.707-27.602 0.55469-4.0625-0.83203-8.8633-3.3242-13.016-3.875-6.2773-0.64453-12.922 5.4453-10.801 0.09375 0.09375 0.09375 0.09375 0.18359 0.09375 10.617 3.918 20.367 7.4727 41.727 38.68zm21.598-139.84c-5.9062 3.0469-12.832 4.8906-17.539 9.7852-11.586 12.109-3.8867 31.484-40.891 28.246-11.457-1.0977-24.297-2.0234-33.047-8.6758-8.9648-6.875-7.7344-20.66-0.37109-25.57 5.3242-5.0781 11.41-11.262 9.875-18.555-1.9844-11.438-18.895-8.3242-18.645-18.645 0.21094-5.832 15.176-18.426 33.414-17.168 10.402 0.58984 15.84 3.5273 67.938 23.906 12.715 5.1562 14.035 18.828-0.73438 26.676zm30.461-118.71c-9.2305 3.0352-27.184 3.0469-27.875 15.875-0.75781 15.387 27.867 12.691 25.293 28.707-0.46094 3.0469-2.3086 5.8164-4.707 7.8477-28.062 22.211-65.52 5.3164-97.016-9.7852-2.3086-1.1094-2.3984-4.5234 0.09375-5.5391 0-0.09375 0.09375-0.09375 0.18359-0.09375 16.016-7.1523 23.863-26.152 20.77-41.629-4.293-21.473-19.383-22.34-28.617-26.953-8.9727-4.5703-9.6562-12.848-2.8633-18.277 19.57-15.312 42.434 13.586 60.371 19.57 19.023 6.2773 56.844-5.9922 65.078 12.832 3.7812 8.3984-3.418 15.043-10.711 17.445zm28.34-54.742c-2.0312 9.0469-9.4141 10.34-16.152 11.262-41.66 6.0469-50.898 7.7617-62.031 6.1836-31.109-4.5234-52.523-41.355-80.398-57.137-26.113-14.641 58.746-44.953 122.95-7.5703 14.863 8.5859 28.34 20.398 34.617 36.461 1.3828 3.418 1.8438 7.2031 1.0117 10.801zm38.77-83.258c-5.5391 5.168-14.492 0.73828-13.848-6.832 1.1094-13.477-0.18359-27.602-1.1992-40.523-4.1914-52.367-37.719-44.336-88.523-43.293-9.3242 0.18359-11.723-12.738-3.0469-16.062 40.395-15.285 105.6-10.781 116.95-3.6914 8.0312 5.0781 12.277 14.398 14.676 23.539 7.6094 29.27 0.070313 62.844-25.012 86.863z"/>
</svg>
