<?xml version="1.0" encoding="UTF-8"?>
<svg width="1200pt" height="1200pt" version="1.1" viewBox="0 0 1200 1200" xmlns="http://www.w3.org/2000/svg">
 <path class = "editable" d="m1076.2 689.06c69.758 23.117 67.922 93.367 65.523 157.29-1.9453 46.008-6.4609 91.871-13.52 137.37-6.7227 45.289-21.207 93.609-21.441 139.22-0.41016 3.5039-1.4102 6.9141-2.9609 10.078-33.281 47.203-140.34 24.965-187.38 18.965-25.445-3.207-58.246-4.8008-72.254-30.402-16.48-30.242-12.188-64.688-14.316-98.016-7.2852-2.3164-14.559-4.6875-22.004-6.7109-33.93-9.7695-66.965-19.688-96.488-39.523h0.003906c-1.3789-0.91797-2.5781-2.0859-3.5273-3.4414-53.129 10.398-112.65 19.602-160.49-5.9258h0.003907c-4.4805-2.0859-6.8867-7.0273-5.7656-11.84-0.16797-0.81641-0.25-1.6523-0.24609-2.4844 0.72266-47.438-22.5-93.207-0.47656-136.88-0.33594-1.3047-0.46875-2.6523-0.39453-3.9961-0.26172-1.0195-0.39844-2.0664-0.40234-3.1211-0.32031-20.242-5.625-51.562 14.645-61.211v-20.156 0.003906c-0.03125-2.2539 0.55859-4.4727 1.7031-6.4141-1.3594-4.0039-2.9609-7.9219-4.5664-11.84h0.003907c-33.844 25.566-65.305 54.141-94.004 85.367-1.7734 2.2969-4.4648 3.6992-7.3594 3.8359-0.625 0.26562-1.2656 0.48047-1.9219 0.64453-76.332 15.602-160.02 38.242-233.22 0.074219v0.003907c-3.0352-1.3906-5.2109-4.1602-5.8398-7.4375-24.543-56.25-44.766-114.29-60.488-173.61-5.9258-21.195-11.605-42.32-15.367-63.602-10.715 1.6797-21.195 4.9609-31.762 7.1992-0.94141 0.23047-1.9102 0.30859-2.8789 0.23438-4.125 1.793-8.9375 0.37891-11.445-3.3555-15.289-20.402-25.488-44.156-29.758-69.289-0.37891-1.8594-0.35547-3.7773 0.078126-5.625 0-0.63672 0.085937-1.1992 0.085937-1.875h-0.003906c-0.37891-1.2148-0.59375-2.4766-0.63672-3.75-0.027344-3.2227 0.61328-6.4141 1.875-9.375 0.3125-3.6758 2.3242-6.9883 5.4375-8.9648 81.891-53.539 150.54-124.11 231.56-179.14 78.805-53.438 156.73-107.53 234.98-161.86 69.148-48.012 129.64-79.371 215.02-81.293 66.086-1.5195 142.41-4.6406 195.7 40.164 0.87109 0.73438 1.625 1.5977 2.2422 2.5586 2.5273 2.1641 3.9844 5.3203 3.9922 8.6445 1.2852 48.328 3.8438 96.977 2.6445 145.31-2.5664 43.184-8.5625 86.098-17.926 128.34-12.395 67.211-62.008 91.875-113.77 128.09-0.375 2.6719-1.7461 5.1055-3.8438 6.8047-26.719 23.117-54.242 45.281-81.93 67.285 0.14844 0.95312 0.17578 1.918 0.085937 2.8789-0.94531 10.684 0.78516 21.438 5.0352 31.285 0.72266 1.6523 1.1836 3.4062 1.3594 5.2031 36.488 29.363 54.242 106.49 9.207 133.37-0.24219 0.9375-0.32031 1.7617-0.47656 2.5586l1.1992 0.72266h-0.003906c0.30078 0 0.59375 0.054687 0.875 0.16016 0.24219 0 0.32812 0.085938 0.48828 0.085938l-0.003907-0.003907c6.4609 0.26953 11.59 5.5352 11.684 12 0.003906 0.83984-0.10547 1.6758-0.32812 2.4844 1.8594 17.328 2.8477 34.738 2.9609 52.164-0.003907 1.1055-0.13672 2.207-0.39453 3.2812 16.152 6.1602 39.441 3.6016 60.32 0.9375-0.88281-54.723-1.5195-115.53 64.566-129.21 32.645-5.9102 65.938-7.3594 98.973-4.3125 28.395 1.9961 60.074 1.0391 87.336 10.059zm36.16 232.02c4.6875-45.367 25.199-161.25-17.812-196.98 4.8828 41.363 2.082 83.289 2.2422 124.89l-0.003906-0.003906c0.19141 48.633-3.1523 97.219-10 145.37-5.2031 36.562-6.5625 76.809-15.441 112.73-1.9766 9.0938-5.4922 17.781-10.398 25.688 8.4688-1.0977 16.25-5.2188 21.918-11.605 0.47656-28.961 8.8047-56.645 13.285-85.211 5.918-38.145 12.234-76.387 16.238-114.87zm-30.086-86.09c-0.16016-40.004 2.8125-79.848-3.3555-119.45-41.766-16.246-100.57-16.164-144.18-13.762-29.68 1.6016-74.727 5.3633-82.648 41.68v-0.003906c-3.6719 21.938-4.6406 44.242-2.8789 66.414 2.3984-0.16797 4.6875-0.24219 6.8828-0.24219 52.883-0.16016 105.77-1.2852 158.65-1.3594v-0.003906c3.2656-0.074219 6.4023 1.2617 8.6094 3.668 2.2109 2.4062 3.2695 5.6484 2.9141 8.8945 0.23438 0.67578 0.39844 1.375 0.48438 2.082 3.5156 32.242 2.7188 64.801 7.5938 96.805v0.003906c0.66016 3.8438-0.55859 7.7695-3.2812 10.562-1.0781 5.3672-5.5156 9.4141-10.957 9.9961-1.4336 0.16016-2.8125 0.24219-4.1641 0.40234-2.1328 32.863 0.91797 65.859 9.0469 97.773 0.97266 2.9922 0.63281 6.2578-0.9375 8.9883-1.5703 2.7266-4.2266 4.6641-7.3008 5.3242-2.0156 1.9336-4.5938 3.168-7.3594 3.5273-18.402 2.4766-37.125 2.8125-55.453 6.2422-1.0312 0.16797-2.0742 0.22266-3.1133 0.16016-1.9531 0.5-4.0039 0.44531-5.9258-0.16016-30.805-8.8047-60.723-20.25-90.938-30.73 0.32031 22.246-1.875 46.566 5.7656 66.648 11.117 29.129 45.367 28.492 71.523 31.285v-0.003906c26.473 3.1914 53.105 4.8984 79.77 5.1211 6 0 14.316 0.32812 23.277 0.32812 29.68-9.207 24.883-53.211 27.844-77.289 4.5664-36.891 12-73.293 16.004-110.26 3.5078-37.438 4.8945-75.039 4.1523-112.63zm-72.242 82.172c-3.5234-28.125-3.918-56.57-6.4023-84.891-55.762-0.074219-112.17-1.3594-167.7 2.3242-25.039 1.6797-63.918 9.5156-87.609-4.3203 1.4453 37.762 5.7656 75.938-4.6875 112.33 8.3242-1.7617 16.32-3.3672 24.086-4.6875 40.078-6.7227 80.625-13.434 121.21-17.043 40.316-3.6992 80.883-0.25781 121.13-3.6992zm-13.359 105.21v-0.003906c-4.3984-26.344-6.0078-53.078-4.8008-79.762-47.812 2.8125-95.691 0.23438-143.7 7.1992-13.602 1.875-27.188 4.0039-40.727 6.1602 60.996 27.617 127.32 40.82 189.25 66.422zm-46.648 16.641c12.805-2.2305 25.688-3.3555 38.57-4.4727-67.688-27.93-140.42-40.969-205.94-74.57-13.602 2.2422-27.188 4.6875-40.727 7.2734 30.477 15.523 63.602 22.641 96.488 33.609 37.387 12.496 73.797 27.215 111.64 38.176zm-32.262-723.17c12.805-70.648 8.9609-142.26 6.8047-213.7-94.125 58.172-168.85 137.05-255.91 204.18-82.727 63.926-174.82 113.68-260.42 173.38 12.797 13.359 30 52.406 45.523 43.762h0.003906c23.848-13.449 49.09-24.262 75.281-32.238 62.973-19.039 128.81-32.41 187.62-62.645 4.7891-2.6328 10.762-1.6055 14.398 2.4766 0.16016 0.085937 0.24219 0.085937 0.40234 0.16016 25.52 12.883 51.918 23.926 76.406 38.805 23.84-16.48 52.32-30.242 72.328-51.367 27.246-28.652 30.723-65.449 37.559-102.81zm-235.22-39.121c76.406-65.625 148.73-133.94 234.82-186.98-57.328-39.918-163.25-34.426-227.59-22.398-83.27 15.516-151.93 76.406-218.58 125.29-67.762 49.762-141.46 91.051-208.43 142.06-53.926 40.969-103.12 87.289-157.86 127.06 48.906-11.383 99.125-16.113 149.3-14.062 45 1.5195 100.17 1.1992 141.21 23.363 94.406-66.395 199.22-118.96 287.07-194.32zm54.77 440.46c24.562-17.812 15-63.367-4.6875-86.41-48.602-3.3828-53.242 95.344 4.6875 86.41zm4.0781 80.41c0-9.1953-0.32031-18.242-1.1992-27.188-56.484-5.1289-113.05 2.4766-169.62-1.6016l-0.003906-0.003906c-1.2148 0.51562-2.5117 0.8125-3.832 0.88281-6.3203 0.32031-4.5664 20.242-3.3672 32.164 59.449 0.76172 118.98 4.3984 178.02-4.2812zm-13.996 148.57c13.754-39.758 7.4336-82.086 6.3203-123.54-56.652 6.7227-113.37 3.9297-170.42 3.207-20.164 38.438 1.3594 82.5 1.9961 124.17 47.781 21.816 108.49 7.9688 162.1-3.8711zm63.121-458.52c-22.32-12.965-46.164-23.203-69.289-34.688-54.805 26.645-114.38 39.844-172.5 57.441h-0.003906c-16.23 5.1055-32.156 11.141-47.688 18.086 31.875 39.77 46.004 92.57 64.012 139.86 16.715-12.965 33.441-25.922 49.52-38.805 58.734-47.352 118.67-92.875 175.95-141.92zm-64.887 245.12c-0.035157-0.13281-0.0625-0.26953-0.082032-0.40234-9.6406-0.40234-18.848-4.1055-26.082-10.492-1.6016 10.555-0.24219 21.562-1.4453 32.164 9.6836 0.074219 19.445 0.39453 29.129 0.9375-2.0469-2.1797-3.1406-5.0898-3.0352-8.0781-0.09375-4.7578 0.41797-9.5039 1.5156-14.129zm-7.6875-115.61c-1.4023-2.5039-1.8555-5.4297-1.2734-8.2422-3.3164-8.0234-5.5781-16.441-6.7227-25.047-12.477 9.7695-24.883 19.602-37.359 29.445 6.4688 8.793 12.145 18.141 16.961 27.938 5.582-11.723 15.922-20.492 28.395-24.094zm-139.21 87.121h108.4c-5.7969-14.266-7.1641-29.945-3.918-45v-0.074219c-6.457-12.793-13.754-25.141-21.844-36.965-13.848 11.117-27.684 22.238-41.363 33.602-15.844 13.125-32.324 26.008-48.891 38.961 1.6016 3.5234 3.1211 6.9648 4.5664 10.566 0.86328-0.69922 1.9375-1.082 3.0469-1.0898zm106.57 16.004h-105.21c-0.27734 1.6992-0.875 3.3281-1.7617 4.8008 0.26563 1.0469 0.40234 2.125 0.40234 3.207v24c0 0.88672-0.082031 1.7695-0.24609 2.6406 34.969 1.875 70.012-0.24219 105.05-0.72266 2-11.285 0.39844-22.637 1.7656-33.926zm-139.94-36.637c-19.199-48.254-31.875-105.38-67.125-145.06-6.6367 2.9609-13.199 5.9258-20.008 8.8789l0.003906-0.003906c-1.9609 0.87891-4.0352 1.4727-6.1602 1.7656-0.23438 68.008 10.406 135.29 13.762 203.14 25.227-24.352 51.773-47.293 79.527-68.719zm-102.8 93.047 0.074219-0.085937c-1.4336-78.242-15.676-155.69-14.559-234.1-7.2734-6.6172-13.746-14.066-19.285-22.191 5.5898 23.703 8.7812 47.91 9.5234 72.254 3.0391 55.445 4.5547 111.05 8.2422 166.49v-0.003906c2.5781 1.8047 3.7344 5.043 2.8789 8.0703-0.85547 3.0312-3.5352 5.1875-6.6758 5.375-59.289 3.6016-115.12 22.715-173.93 4.8008-1.6953-0.51953-3.125-1.668-4.0039-3.207-0.88672-0.78516-1.5703-1.7734-1.9961-2.8789-23.043-57.188-46.727-114.17-64.492-173.3-12.883-42.883-19.117-81.852-4.5547-123.13-6 0.55469-11.926 1.3594-17.812 2.1562-9.7695 50.25 6.1602 99.852 19.688 148.18v0.003906c14.344 53.125 32.609 105.11 54.645 155.53 66.086 32.645 143.69 10.078 211.94-3.918zm-30.402-17.766c-2.0078-30.32-3.2812-60.648-4.5664-90.938-10.715 35.137-40.324 64.941-80.457 57.637-52.191-9.5078-95.242-59.344-105.56-110.07-10.875-53.203 24.375-94.406 77.129-93.535 47.102 6.1602 87.398 36.852 105.85 80.625-1.875-37.922-4.2383-76.875-21.562-110.81-5.8555-4.0039-12.434-6.8281-19.367-8.3164-31.547-6.6523-63.625-10.484-95.852-11.445-26.055-1.0156-52.148-0.58594-78.16 1.2812-22.32 53.84-2.5703 108.17 15.516 160.57 15.133 43.953 32.852 87.012 50.215 130.14 52.641 15 103.85-0.41406 156.82-5.1367zm-87.836-48.402c53.438 9.6836 86.727-49.762 68.812-96.254-15.449-40.004-50.57-73.199-94.414-77.812-114.09-2.0352-53.309 159.74 25.602 174.07zm-194.06-178.66c-1.8242-16.953-1.6094-34.062 0.63672-50.965-16.234 3.0469-32.289 7-48.082 11.844 3.3398 16.094 9.6055 31.441 18.477 45.281 9.7109-2.1562 19.238-4.5859 28.969-6.1602z"/>
 <path class = "editable" d="m1060.3 743.16c1.125-1.0391 1.125-0.88281 1.6016-3.1953 0.16406-1.4492 0.054688-2.9141-0.31641-4.3203-0.10156-0.73828-0.40625-1.4336-0.88281-2.0078 0 0.16797-1.1172-0.9375-0.88281-0.9375h0.003907c-0.69531-0.625-1.6562-0.86328-2.5625-0.63672-1.6016 0.32031-2.1562 0.63672-2.4844 1.9961-0.42578 1.7383-0.25391 3.5742 0.48828 5.2031 0.88281 1.7617 1.7539 3.2812 3.6758 3.6758 1.0039 0.22266 1.3594 0.14062 1.3594 0.22266zm15.523-9.8438c1.1523 4.2617 0.87891 8.7812-0.78516 12.871-1.6602 4.0898-4.6133 7.5195-8.4102 9.7695-24.242 10.566-38.25-33.602-12.402-37.922 0.3125-0.035156 0.625-0.035156 0.9375 0 0.32031-0.074218 0.5625-0.23437 0.9375-0.32031v0.003906c4.6523-0.36328 9.2695 1.0391 12.934 3.9297 3.6641 2.8945 6.1016 7.0586 6.8281 11.668z"/>
 <path class = "editable" d="m1020.3 1111.2c1.125-1.0391 1.125-0.88281 1.6016-3.1953 0.15625-1.4492 0.050781-2.9141-0.31641-4.3242-0.10156-0.73438-0.40625-1.4258-0.88281-1.9961 0 0.16016-1.125-0.9375-0.88281-0.9375-0.69141-0.625-1.6523-0.86328-2.5586-0.63672-1.6016 0.32031-2.1562 0.63672-2.4844 1.9961-0.42578 1.7422-0.25391 3.5742 0.48828 5.2031 0.87109 1.7617 1.7539 3.2812 3.6758 3.6836 1.0117 0.20703 1.3594 0.13281 1.3594 0.20703zm15.523-9.8359v0.003907c1.1523 4.2578 0.875 8.7812-0.78516 12.871-1.6641 4.0898-4.6211 7.5195-8.4219 9.7695-24.234 10.555-38.242-33.609-12.395-37.922h0.003907c0.30859-0.042969 0.625-0.042969 0.9375 0 0.32031-0.085938 0.5625-0.24219 0.9375-0.32813 4.6445-0.35156 9.2539 1.0625 12.906 3.9531 3.6562 2.8906 6.0898 7.0508 6.8164 11.656z"/>
 <path class = "editable" d="m892.34 1095.2c1.1172-1.0391 1.1172-0.88281 1.5938-3.207 0.16016-1.4492 0.054687-2.9141-0.31641-4.3203-0.10156-0.73828-0.40625-1.4297-0.88281-2 0 0.16016-1.1172-0.9375-0.88281-0.9375-0.69141-0.625-1.6484-0.86719-2.5586-0.64453-1.5938 0.32031-2.1562 0.64844-2.4766 2.0078l0.003906-0.003907c-0.43359 1.7383-0.26562 3.5664 0.47656 5.1953 0.88281 1.7617 1.7617 3.2812 3.6758 3.6836 0.96484 0.22656 1.3672 0.14062 1.3672 0.22656zm15.516-9.8438c1.1523 4.2578 0.875 8.7812-0.78516 12.867-1.6602 4.0898-4.6133 7.5234-8.4102 9.7734-24.242 10.555-38.25-33.602-12.402-37.922 0.30859-0.042969 0.625-0.042969 0.9375 0 0.30469-0.12109 0.61719-0.23047 0.9375-0.32031 4.6445-0.35156 9.2539 1.0547 12.91 3.9453 3.6523 2.8906 6.0859 7.0508 6.8125 11.656z"/>
 <path class = "editable" d="m884.34 751.16c1.125-1.0391 1.125-0.87109 1.6016-3.1953v-0.003906c0.15625-1.4453 0.046875-2.9102-0.32031-4.3203-0.097657-0.73828-0.40234-1.4297-0.87891-1.9961 0 0.16016-1.125-0.9375-0.88281-0.9375-0.69531-0.625-1.6523-0.86328-2.5586-0.64063-1.6016 0.32031-2.1641 0.63672-2.4844 2.0078-0.42578 1.7344-0.25781 3.5664 0.47656 5.1953 0.88281 1.7617 1.7617 3.2812 3.6836 3.6836 0.95703 0.20703 1.3633 0.12891 1.3633 0.20703zm15.523-9.8359c1.1484 4.2656 0.87109 8.7891-0.79688 12.879-1.668 4.0898-4.6328 7.5195-8.4375 9.7617-24.242 10.555-38.242-33.602-12.402-37.922 0.30859-0.039063 0.625-0.039063 0.9375 0 0.32031-0.085937 0.5625-0.24219 0.9375-0.32031 4.6523-0.35937 9.2695 1.0469 12.934 3.9375 3.6602 2.8906 6.0977 7.0547 6.8281 11.664z"/>
 <path class = "editable" d="m375.72 617.95c10.312 30.16 0.085938 74.324-37.922 76.492-35.363-2.4844-66.488-34.969-79.211-66.488-12.086-30.086-7.3594-75.449 34.004-74.062 18.523 1.6289 36.199 8.5273 50.93 19.879 14.73 11.352 25.902 26.68 32.199 44.18zm-13.039 20.242c0.085937-0.16016 0.24219-0.16016 0.40234-0.23437-0.29688-3.0469-0.92578-6.0547-1.875-8.9648-9.2148 3.2305-19.359 2.4414-27.961-2.1758-8.5977-4.6172-14.863-12.637-17.258-22.098-2.3984-9.4648-0.70703-19.5 4.6602-27.652-2.6445-1.6016-5.3633-3.1211-8.1641-4.4805v-0.003906c-0.33984 0.33594-0.71484 0.63281-1.1172 0.88281-33.02 17.203 14.664 103.21 51.309 64.727zm-24.883 41.852v-0.003906c6.3633-0.74609 12.332-3.4844 17.047-7.8242s7.9336-10.062 9.2031-16.344c-46.727 31.527-101.69-56.805-67.922-89.129-4.9258-1.668-10.297-1.4102-15.035 0.73047-4.7383 2.1367-8.4883 5.9961-10.492 10.793-17.055 39.598 25.836 98.887 67.199 101.77zm-5.2773-95.211c-13.773 17.594 7.7891 37.664 25.676 29.676-3.5078-7.2344-8.1211-13.875-13.676-19.688-3.7539-3.6172-7.7656-6.957-12-9.9922z"/>
</svg>
