<?xml version="1.0" encoding="UTF-8" standalone="no"?>
<!-- Created with Inkscape (http://www.inkscape.org/) -->

<svg
   width="65.259766mm"
   height="30.941969mm"
   viewBox="0 0 65.259766 30.941969"
   version="1.1"
   id="svg3535"
   inkscape:version="1.2.2 (732a01da63, 2022-12-09)"
   sodipodi:docname="Mask1.svg"
   xmlns:inkscape="http://www.inkscape.org/namespaces/inkscape"
   xmlns:sodipodi="http://sodipodi.sourceforge.net/DTD/sodipodi-0.dtd"
   xmlns="http://www.w3.org/2000/svg"
   xmlns:svg="http://www.w3.org/2000/svg">
  <sodipodi:namedview
     id="namedview3537"
     pagecolor="none"
     bordercolor="#111111"
     borderopacity="1"
     inkscape:showpageshadow="0"
     inkscape:pageopacity="0"
     inkscape:pagecheckerboard="1"
     inkscape:deskcolor="#d1d1d1"
     inkscape:document-units="mm"
     showgrid="false"
     inkscape:zoom="0.36925856"
     inkscape:cx="445.48731"
     inkscape:cy="-21.665036"
     inkscape:window-width="1920"
     inkscape:window-height="1009"
     inkscape:window-x="-8"
     inkscape:window-y="-8"
     inkscape:window-maximized="1"
     inkscape:current-layer="layer1" />
  <defs
     id="defs3532" />
  <g
     inkscape:label="Layer 1"
     inkscape:groupmode="layer"
     id="layer1"
     transform="translate(-20.034773,-143.59777)">
    <path
    class = "editable"
       fill-rule="nonzero"
       fill="#3071b7"
       fill-opacity="1"
       d="m 58.403749,162.23125 c 0,0 0.672483,-5.92694 5.386751,-7.67705 4.714272,-1.75149 9.967351,0.53881 13.739043,-0.67386 0,0 -3.906738,14.00776 -19.125794,8.35091 m -30.979674,-8.35091 c 3.77169,1.21267 9.024772,-1.07763 13.73904,0.67386 4.712892,1.75011 5.386751,7.67705 5.386751,7.67705 -15.220431,5.65685 -19.125791,-8.35091 -19.125791,-8.35091 m 57.819723,-8.77259 c -0.01517,-0.24667 -0.271473,-0.39963 -0.497469,-0.29766 -1.248502,0.55949 -4.838295,1.89067 -8.429459,0.58429 -4.444175,-1.61644 -9.024772,-1.75011 -12.122602,-1.34634 -3.097829,0.40376 -8.754677,3.09783 -11.71746,3.23287 -2.96278,0.13505 -6.330707,-1.61643 -10.102399,-2.96278 -3.770311,-1.34772 -8.484579,-0.67386 -13.468943,0.94258 -3.950836,1.2802 -7.138238,0.10749 -8.291656,-0.43408 -0.225998,-0.10611 -0.485069,0.0469 -0.500228,0.29628 -0.135047,2.27238 -0.443728,11.24617 2.596224,16.97329 3.501595,6.60081 7.542003,9.83368 12.661415,11.58379 5.118032,1.75149 11.178645,-0.94258 12.526365,-1.61644 1.346345,-0.67248 3.231501,-1.48139 4.84794,-1.48139 1.616438,0 3.097829,0.40377 4.579221,1.48139 1.482767,1.07763 6.330706,3.09783 9.83368,2.2903 3.501595,-0.80891 10.371116,-2.2903 14.68162,-11.04497 3.724835,-7.56819 3.526398,-16.04312 3.403751,-18.20113"
       id="path2503"
       style="stroke-width:0.352778" />
    <path
    class = "editable2"
       fill-rule="nonzero"
       fill="#BA0C2F"
       fill-opacity="1"
       d="m 60.52455,154.79536 c 1.394577,-1.11208 5.152486,-4.92649 2.574178,-6.61734 -0.977029,-0.64079 -1.973351,0.0248 -2.393654,0.95084 -0.669727,1.47313 -0.908128,3.2632 -1.316027,4.82589 -0.0083,0.0331 -0.01101,0.0634 -0.01517,0.0951 -0.264584,0.5457 0.555349,1.22232 1.150662,0.74552"
       id="path2505"
       style="stroke-width:0.352778" />
    <path
    class = "editable2"
       fill-rule="nonzero"
       fill="#BA0C2F"
       fill-opacity="1"
       d="m 64.968725,151.98692 c -0.157096,1.3739 2.640319,-0.25908 3.066133,-0.57189 0.970138,-0.71107 1.857597,-1.89067 1.09003,-3.07716 -0.519522,-0.79926 -1.515844,-0.74414 -2.13596,-0.10473 -0.525032,0.54295 -0.865406,1.24023 -1.169956,1.92236 -0.155716,0.34589 -0.297656,0.70005 -0.472666,1.03491 -0.05788,0.11024 -0.130912,0.21911 -0.197058,0.33211 -0.08544,0.14607 -0.162609,0.29903 -0.180523,0.4644"
       id="path2507"
       style="stroke-width:0.352778" />
    <path
    class = "editable2"
       fill-rule="nonzero"
       fill="#BA0C2F"
       fill-opacity="1"
       d="m 71.671503,163.33368 c -0.62701,0.53193 1.251256,0.96187 1.562696,1.00046 0.709686,0.0854 1.575096,-0.0648 1.723922,-0.89159 0.100598,-0.55811 -0.354153,-0.93983 -0.88332,-0.91364 -0.447862,0.0207 -0.879189,0.18465 -1.288468,0.35691 -0.208082,0.0868 -0.414789,0.1819 -0.627006,0.25631 -0.07028,0.0248 -0.146071,0.0427 -0.220486,0.0648 -0.09646,0.0276 -0.191548,0.062 -0.267338,0.12678"
       id="path2509"
       style="stroke-width:0.352778" />
    <path
    class = "editable2"
       fill-rule="nonzero"
       fill="#BA0C2F"
       fill-opacity="1"
       d="m 75.775299,161.14536 c -0.40652,0.52227 1.141018,0.55121 1.393197,0.53054 0.573264,-0.0496 1.229209,-0.31006 1.209919,-0.98529 -0.01242,-0.45476 -0.432707,-0.68076 -0.844737,-0.57327 -0.350023,0.0909 -0.661459,0.29076 -0.95636,0.49196 -0.148829,0.10335 -0.294901,0.21222 -0.45062,0.30592 -0.05099,0.0303 -0.107485,0.0565 -0.162606,0.0868 -0.07166,0.0372 -0.140561,0.0813 -0.188793,0.14332"
       id="path2511"
       style="stroke-width:0.352778" />
    <path
    class = "editable2"
       fill-rule="nonzero"
       fill="#BA0C2F"
       fill-opacity="1"
       d="m 78.130366,158.4196 c -0.260449,0.60909 1.244371,0.24115 1.482771,0.15709 0.540191,-0.1943 1.10932,-0.61322 0.917772,-1.2609 -0.128157,-0.43822 -0.592557,-0.54846 -0.963249,-0.34038 -0.314191,0.17777 -0.566374,0.45062 -0.79926,0.72072 -0.117136,0.1378 -0.23151,0.27974 -0.356912,0.41065 -0.04134,0.0427 -0.08957,0.0827 -0.135051,0.1254 -0.06063,0.0551 -0.115753,0.11438 -0.146071,0.18742"
       id="path2513"
       style="stroke-width:0.352778" />
    <path
    class = "editable2"
       fill-rule="nonzero"
       fill="#BA0C2F"
       fill-opacity="1"
       d="m 79.935597,155.2322 c -0.16123,0.64078 1.267795,0.0455 1.489661,-0.0758 0.504359,-0.2756 1.000453,-0.77721 0.711065,-1.38906 -0.194302,-0.41203 -0.669727,-0.44786 -1.004591,-0.18466 -0.282497,0.22325 -0.4892,0.53193 -0.676613,0.83647 -0.09509,0.15296 -0.186038,0.31144 -0.290767,0.46027 -0.03305,0.0482 -0.07441,0.0951 -0.113002,0.14469 -0.05099,0.0634 -0.09646,0.13091 -0.115753,0.20809"
       id="path2515"
       style="stroke-width:0.352778" />
    <path
    class = "editable2"
       fill-rule="nonzero"
       fill="#BA0C2F"
       fill-opacity="1"
       d="m 64.250766,164.58081 c -1.014236,-0.11576 0.191547,1.94716 0.421678,2.26273 0.523657,0.71521 1.394577,1.37115 2.269632,0.8034 0.589798,-0.38309 0.549835,-1.11759 0.07717,-1.5751 -0.39963,-0.38722 -0.915018,-0.63803 -1.418001,-0.86403 -0.254939,-0.11438 -0.515387,-0.2191 -0.763436,-0.34864 -0.0813,-0.0427 -0.16123,-0.0965 -0.24529,-0.14469 -0.107488,-0.0634 -0.220486,-0.11989 -0.341753,-0.13367"
       id="path2517"
       style="stroke-width:0.352778" />
    <path
    class = "editable2"
       fill-rule="nonzero"
       fill="#BA0C2F"
       fill-opacity="1"
       d="m 68.248454,164.25146 c -1.010102,0.14744 0.683507,1.83416 0.986677,2.07946 0.690397,0.5581 1.699119,0.96738 2.400543,0.19567 0.472666,-0.52089 0.243911,-1.22093 -0.329353,-1.54202 -0.486445,-0.27285 -1.047309,-0.38309 -1.591634,-0.47266 -0.275608,-0.0441 -0.55535,-0.0799 -0.828199,-0.14194 -0.08819,-0.0193 -0.180524,-0.051 -0.272853,-0.0772 -0.121267,-0.0331 -0.243914,-0.0593 -0.365181,-0.0413"
       id="path2519"
       style="stroke-width:0.352778" />
    <path
    class = "editable2"
       fill-rule="nonzero"
       fill="#BA0C2F"
       fill-opacity="1"
       d="m 70.231453,151.3227 c -0.115757,0.14883 -0.210841,0.33486 -0.170878,0.51952 0.190168,0.8723 2.465309,-0.21635 2.867698,-0.45475 0.859896,-0.51263 1.627463,-1.39595 1.134124,-2.43775 -0.355533,-0.74828 -1.219563,-0.8158 -1.827279,-0.33486 -0.869541,0.68626 -1.293975,1.7694 -1.949923,2.63756 -0.01792,0.0234 -0.03583,0.0469 -0.05374,0.0703"
       id="path2521"
       style="stroke-width:0.352778" />
    <path
    class = "editable2"
       fill-rule="nonzero"
       fill="#BA0C2F"
       fill-opacity="1"
       d="m 75.102817,151.31305 c -0.101974,0.15434 -0.17501,0.34176 -0.140561,0.52504 0.163989,0.89434 2.417081,0.38723 2.92971,0.16536 0.595312,-0.25769 1.317406,-0.7965 1.007346,-1.54064 -0.243914,-0.58429 -0.963249,-0.70143 -1.519975,-0.60221 -0.877813,0.15572 -1.761133,0.6904 -2.265496,1.43592 -0.0028,0.006 -0.0069,0.011 -0.01101,0.0165"
       id="path2523"
       style="stroke-width:0.352778" />
    <path
    class = "editable2"
       fill-rule="nonzero"
       fill="#BA0C2F"
       fill-opacity="1"
       d="m 80.138169,151.84911 c -0.0069,0.13091 0.01517,0.2701 0.100595,0.36932 0.418923,0.48644 1.612307,-0.62288 1.845193,-0.9412 0.271473,-0.36794 0.519522,-0.95499 0.06615,-1.29674 -0.356912,-0.27009 -0.836468,-0.0854 -1.141014,0.17363 -0.479559,0.40653 -0.826823,1.04731 -0.869544,1.67983 0,0.006 -0.0014,0.01 -0.0014,0.0152"
       id="path2525"
       style="stroke-width:0.352778" />
    <path
    class = "editable2"
       fill-rule="nonzero"
       fill="#BA0C2F"
       fill-opacity="1"
       d="m 45.652763,154.04984 c -0.0041,-0.0317 -0.0069,-0.062 -0.01517,-0.0951 -0.407899,-1.56269 -0.646299,-3.35276 -1.316023,-4.82589 -0.420303,-0.92604 -1.416625,-1.59163 -2.393654,-0.95084 -2.57831,1.69085 1.179601,5.50526 2.572798,6.61734 0.596688,0.47542 1.416621,-0.19982 1.152038,-0.74552"
       id="path2527"
       style="stroke-width:0.352778" />
    <path
    class = "editable2"
       fill-rule="nonzero"
       fill="#BA0C2F"
       fill-opacity="1"
       d="m 39.877406,151.52252 c -0.06615,-0.113 -0.139182,-0.22187 -0.19706,-0.33211 -0.175011,-0.33486 -0.318327,-0.68902 -0.472667,-1.03491 -0.304546,-0.68213 -0.644922,-1.37941 -1.169954,-1.92236 -0.620117,-0.63941 -1.616439,-0.69453 -2.135959,0.10473 -0.768946,1.18649 0.119889,2.36609 1.08865,3.07716 0.427192,0.31281 3.224609,1.94579 3.067513,0.57189 -0.0193,-0.16537 -0.09508,-0.31833 -0.180523,-0.4644"
       id="path2529"
       style="stroke-width:0.352778" />
    <path
    class = "editable2"
       fill-rule="nonzero"
       fill="#BA0C2F"
       fill-opacity="1"
       d="m 33.087812,163.2069 c -0.07579,-0.022 -0.151584,-0.04 -0.220487,-0.0648 -0.212217,-0.0744 -0.418923,-0.16949 -0.627007,-0.25631 -0.409277,-0.17226 -0.840603,-0.33624 -1.289844,-0.35691 -0.529166,-0.0262 -0.983919,0.35553 -0.883322,0.91364 0.150206,0.82682 1.015614,0.97703 1.725304,0.89159 0.311436,-0.0386 2.189702,-0.46853 1.562695,-1.00046 -0.07579,-0.0634 -0.170877,-0.0992 -0.267339,-0.12678"
       id="path2531"
       style="stroke-width:0.352778" />
    <path
    class = "editable2"
       fill-rule="nonzero"
       fill="#BA0C2F"
       fill-opacity="1"
       d="m 29.062562,161.00204 c -0.05512,-0.0303 -0.112999,-0.0565 -0.162609,-0.0868 -0.155718,-0.0937 -0.30179,-0.20257 -0.450618,-0.30592 -0.2949,-0.2012 -0.607715,-0.40101 -0.956358,-0.49196 -0.412034,-0.10749 -0.832335,0.11851 -0.844738,0.57327 -0.01929,0.67523 0.636654,0.93568 1.20854,0.98529 0.252181,0.0207 1.799718,-0.008 1.394574,-0.53054 -0.04823,-0.062 -0.117133,-0.10611 -0.188791,-0.14332"
       id="path2533"
       style="stroke-width:0.352778" />
    <path
    class = "editable2"
       fill-rule="nonzero"
       fill="#BA0C2F"
       fill-opacity="1"
       d="m 26.750214,158.23218 c -0.04547,-0.0427 -0.09371,-0.0827 -0.135048,-0.1254 -0.125401,-0.13091 -0.239778,-0.27285 -0.356912,-0.41065 -0.234266,-0.2701 -0.485069,-0.54295 -0.799262,-0.72072 -0.370692,-0.20808 -0.835091,-0.0978 -0.963249,0.34038 -0.191547,0.64768 0.376205,1.0666 0.917774,1.2609 0.238401,0.0841 1.743218,0.452 1.482769,-0.15709 -0.03032,-0.073 -0.08682,-0.13229 -0.146072,-0.18742"
       id="path2535"
       style="stroke-width:0.352778" />
    <path
    class = "editable2"
       fill-rule="nonzero"
       fill="#BA0C2F"
       fill-opacity="1"
       d="m 24.975301,155.02411 c -0.03859,-0.0496 -0.07993,-0.0965 -0.114377,-0.14469 -0.103353,-0.14883 -0.194304,-0.30731 -0.289388,-0.46027 -0.188791,-0.30454 -0.394119,-0.61322 -0.676617,-0.83647 -0.334863,-0.26458 -0.810287,-0.22737 -1.00459,0.18466 -0.289388,0.61185 0.206706,1.11346 0.711068,1.38906 0.221864,0.12127 1.65089,0.71658 1.489659,0.0758 -0.01929,-0.0772 -0.06477,-0.1447 -0.115755,-0.20809"
       id="path2537"
       style="stroke-width:0.352778" />
    <path
    class = "editable2"
       fill-rule="nonzero"
       fill="#BA0C2F"
       fill-opacity="1"
       d="m 40.434132,164.71448 c -0.08406,0.0482 -0.163986,0.10197 -0.24529,0.14469 -0.248045,0.12954 -0.508496,0.23426 -0.764811,0.34864 -0.502984,0.22462 -1.016992,0.47681 -1.416623,0.86403 -0.472667,0.45751 -0.514009,1.19201 0.07717,1.5751 0.873676,0.56775 1.744596,-0.0882 2.269628,-0.8034 0.230135,-0.31419 1.435915,-2.37849 0.421679,-2.26273 -0.122643,0.0138 -0.234265,0.0703 -0.341753,0.13367"
       id="path2539"
       style="stroke-width:0.352778" />
    <path
    class = "editable2"
       fill-rule="nonzero"
       fill="#BA0C2F"
       fill-opacity="1"
       d="m 36.413018,164.2928 c -0.09233,0.0262 -0.184657,0.0579 -0.272852,0.0772 -0.272852,0.062 -0.552593,0.0978 -0.828201,0.14194 -0.544325,0.0896 -1.106564,0.19981 -1.591634,0.47266 -0.574642,0.32109 -0.802018,1.02113 -0.329351,1.54202 0.700043,0.77171 1.710145,0.36243 2.400543,-0.19567 0.303168,-0.2453 1.996777,-1.93202 0.986675,-2.07946 -0.121267,-0.0179 -0.243913,0.008 -0.36518,0.0413"
       id="path2541"
       style="stroke-width:0.352778" />
    <path
    class = "editable2"
       fill-rule="nonzero"
       fill="#BA0C2F"
       fill-opacity="1"
       d="m 34.741457,151.25242 c -0.655946,-0.86816 -1.080382,-1.9513 -1.949924,-2.63756 -0.607715,-0.48094 -1.471745,-0.41342 -1.827278,0.33624 -0.493338,1.04042 0.274229,1.92374 1.134125,2.43637 0.402387,0.2384 2.677528,1.32705 2.867698,0.45475 0.03996,-0.18466 -0.05512,-0.37069 -0.170877,-0.51952 -0.01791,-0.0234 -0.03583,-0.0469 -0.05374,-0.0703"
       id="path2543"
       style="stroke-width:0.352778" />
    <path
    class = "editable2"
       fill-rule="nonzero"
       fill="#BA0C2F"
       fill-opacity="1"
       d="m 29.911434,151.29652 c -0.502984,-0.74552 -1.386307,-1.2802 -2.264117,-1.43592 -0.556728,-0.0992 -1.277442,0.0179 -1.519976,0.60221 -0.310059,0.74414 0.412033,1.28295 1.005968,1.54064 0.51263,0.22187 2.765722,0.72898 2.931087,-0.16536 0.03445,-0.18328 -0.03858,-0.3707 -0.141938,-0.52504 -0.0028,-0.006 -0.0069,-0.011 -0.01102,-0.0165"
       id="path2545"
       style="stroke-width:0.352778" />
    <path
    class = "editable2"
       fill-rule="nonzero"
       fill="#BA0C2F"
       fill-opacity="1"
       d="m 24.887106,151.83395 c -0.04272,-0.63252 -0.389984,-1.2733 -0.869541,-1.6812 -0.304547,-0.2577 -0.784104,-0.44235 -1.141016,-0.17226 -0.453375,0.34175 -0.205328,0.92742 0.06615,1.29674 0.232888,0.31694 1.426269,1.42902 1.845193,0.9412 0.08544,-0.0992 0.107487,-0.23841 0.09922,-0.36932 0,-0.006 0,-0.01 0,-0.0152"
       id="path2547"
       style="stroke-width:0.352778" />
    <path
    class = "editable3"
       fill-rule="nonzero"
       fill="#390052"
       fill-opacity="1"
       d="m 64.57736,153.54961 c -2.728514,1.01286 -4.535124,3.82681 -5.367457,5.77674 0.777212,-1.63022 2.390895,-3.95497 4.626074,-4.78455 4.714268,-1.75149 9.530513,1.17546 13.302202,-0.0358 0,0 -2.790525,10.09826 -13.708722,9.01375 12.824022,1.77078 16.299433,-10.6922 16.299433,-10.6922 -4.226443,1.35874 -9.869508,-1.24024 -15.15153,0.72209"
       id="path2549"
       style="stroke-width:0.352778" />
    <path
       class = "editable3"
       fill-rule="nonzero"
       fill="#390052"
       fill-opacity="1"
       d="m 40.406573,153.54961 c 2.727138,1.01286 4.533744,3.82681 5.366081,5.77674 -0.777215,-1.63022 -2.390898,-3.95497 -4.626074,-4.78455 -4.71427,-1.75149 -9.530513,1.17546 -13.302204,-0.0358 0,0 2.790528,10.09826 13.708724,9.01375 -12.824023,1.77078 -16.299435,-10.6922 -16.299435,-10.6922 4.226443,1.35874 9.869509,-1.24024 15.152908,0.72209"
       id="path2551"
       style="stroke-width:0.352778" />
    <path
       class = "editable2"
       fill-rule="nonzero"
       fill="#BA0C2F"
       fill-opacity="1"
       d="m 43.62429,166.12007 c -0.114377,-0.0331 -0.158474,-0.20946 -0.111618,-0.29352 0.06063,-0.11024 0.22462,-0.23702 0.505738,-0.39136 0.799264,-0.43546 1.82039,-0.84336 2.878723,-1.18236 0.285253,-0.0923 0.602203,-0.20808 0.909504,-0.33073 0.301791,-0.12126 0.580153,-0.27009 0.741383,-0.46715 0.165365,-0.18604 0.23978,-0.45062 0.224621,-0.75379 -0.01242,-0.30041 -0.08406,-0.61047 -0.162606,-0.91226 -0.359671,-1.42765 -0.915017,-2.94211 -1.456587,-4.28845 -0.235645,-0.59807 -0.525033,-1.24299 -0.526412,-1.43592 -0.01517,-0.37758 0.355533,0.0799 0.676617,0.51125 0.613227,0.98117 1.156173,2.20624 1.542024,3.42856 0.150209,0.46578 0.294901,0.9536 0.429948,1.45521 0.126781,0.49334 0.304549,1.04455 0.214975,1.69223 -0.03996,0.31971 -0.187413,0.66973 -0.425813,0.91364 -0.234266,0.24805 -0.504363,0.40928 -0.756543,0.54157 -0.505742,0.24667 -0.963249,0.44511 -1.434539,0.65594 -0.577398,0.26045 -1.398707,0.57878 -1.88929,0.67662 -0.6463,0.12816 -1.025261,0.27699 -1.360125,0.18052"
       id="path2553"
       style="stroke-width:0.352778" />
    <path
       class = "editable2"
       fill-rule="nonzero"
       fill="#BA0C2F"
       fill-opacity="1"
       d="m 61.751004,165.75903 c 0.07304,0.0937 0.0083,0.26321 -0.07855,0.30454 -0.112999,0.0538 -0.32384,0.0634 -0.6463,0.0165 -0.912262,-0.13229 -1.988509,-0.48369 -3.004125,-0.98668 -0.279742,-0.13367 -0.582909,-0.27836 -0.899858,-0.42857 -0.325216,-0.15985 -0.70969,-0.35277 -1.010102,-0.72209 -0.305925,-0.37758 -0.38034,-0.87505 -0.362423,-1.26917 0.01792,-0.40377 0.107485,-0.7593 0.188789,-1.06798 0.377582,-1.46623 0.931556,-3.04133 1.635732,-4.35185 0.307301,-0.58291 0.686262,-1.19613 0.850251,-1.30224 0.308681,-0.21773 0.117133,0.339 -0.03168,0.84336 -0.41341,1.05695 -0.894345,2.25447 -1.29122,3.43545 -0.152964,0.45061 -0.294901,0.92328 -0.420303,1.41248 -0.128157,0.48921 -0.243914,0.97979 -0.165364,1.38218 0.04134,0.19981 0.132291,0.34726 0.264583,0.47818 0.135047,0.13229 0.325219,0.24253 0.54157,0.33899 0.445107,0.18742 0.952225,0.37208 1.415246,0.53606 0.585664,0.20671 1.398707,0.48921 1.835545,0.71245 0.577398,0.29765 0.964628,0.39687 1.178221,0.66834"
       id="path2555"
       style="stroke-width:0.352778" />
    <path
       class = "editable3"
       fill-rule="nonzero"
       fill="#3a0153"
       fill-opacity="1"
       d="m 21.149867,146.26806 c -0.141938,-0.20533 0.01378,-0.32798 0.181901,-0.28526 0.223242,0.051 0.598069,0.28663 1.251259,0.51952 0.46302,0.16261 0.966005,0.28664 1.502061,0.36105 0.536057,0.0689 1.103809,0.0854 1.689475,0.062 1.171333,-0.0482 2.404677,-0.28939 3.622863,-0.63114 1.335318,-0.37207 2.885611,-0.98943 4.530989,-1.46348 0.822689,-0.23151 1.672938,-0.42443 2.519054,-0.50298 0.420301,-0.0441 0.840603,-0.0537 1.24988,-0.0468 0.403766,0.0317 0.803396,0.0468 1.175467,0.10886 1.773536,0.25632 3.520887,0.84474 5.224144,1.45245 1.706008,0.61047 3.374813,1.24988 4.981606,1.73771 1.422136,0.46578 3.035819,0.59669 3.425804,0.66008 0.389985,0.0978 0.261825,0.17225 -0.133671,0.23289 -0.39412,0.0744 -1.048688,0.0744 -1.666049,0.0234 -1.339452,-0.16123 -2.745049,-0.51263 -4.141005,-0.95774 -1.395952,-0.44924 -2.794659,-0.9729 -4.174077,-1.4304 -2.095994,-0.68627 -4.430391,-1.32292 -6.748252,-0.8158 -2.330262,0.43821 -4.547526,1.53789 -6.865386,2.18832 -0.720714,0.2012 -1.604036,0.38172 -2.469444,0.44786 -0.862652,0.0689 -1.704633,0.0138 -2.295812,-0.12678 -1.558561,-0.35553 -2.457042,-0.9412 -2.860807,-1.53375"
       id="path2557"
       style="stroke-width:0.352778" />
    <path
       class = "editable3"
       fill-rule="nonzero"
       fill="#3a0153"
       fill-opacity="1"
       d="m 83.93604,145.95524 c 0.223245,-0.0827 0.336244,0.073 0.248049,0.23427 -0.114378,0.20119 -0.436838,0.60082 -1.143772,0.99219 -1.001833,0.5457 -2.293056,0.81166 -3.607704,0.7593 -1.318782,-0.0345 -2.673395,-0.34038 -3.943946,-0.79927 -1.380793,-0.47955 -2.949,-1.13826 -4.566817,-1.57923 -0.80753,-0.22048 -1.627463,-0.37758 -2.423972,-0.42857 -0.198437,-0.0124 -0.395495,-0.0262 -0.589798,-0.0207 h -0.290767 c -0.09646,0.007 -0.192923,0.0152 -0.288011,0.0221 -0.190168,0.0152 -0.378957,0.0289 -0.564995,0.0441 -0.184658,0.0276 -0.367936,0.0551 -0.54708,0.0827 -0.424434,0.0524 -0.851627,0.16674 -1.28433,0.25218 -0.429948,0.11438 -0.86541,0.21222 -1.298113,0.34451 -0.87092,0.24391 -1.744595,0.5333 -2.61965,0.81442 -1.747354,0.57189 -3.504353,1.15066 -5.224145,1.51722 -0.762053,0.15572 -1.569586,0.29352 -2.243444,0.34865 -0.338999,0.0151 -0.63941,0.0427 -0.8847,0.0276 -0.245293,-0.0165 -0.429948,-0.0358 -0.531925,-0.0593 -0.403765,-0.0937 -0.249425,-0.1695 0.14194,-0.23426 0.394116,-0.0496 1.030771,-0.14883 1.624707,-0.28112 1.307758,-0.23978 2.677527,-0.68489 4.080369,-1.14929 1.404221,-0.46164 2.841516,-0.96876 4.27881,-1.41524 1.096916,-0.33762 2.247579,-0.678 3.465766,-0.91502 0.307301,-0.0482 0.617361,-0.0978 0.928797,-0.14745 0.31557,-0.0276 0.633896,-0.0551 0.953601,-0.0813 0.644923,-0.0234 1.293978,0.0193 1.932012,0.11575 2.559015,0.39274 4.881008,1.51033 7.127211,2.08359 0.697287,0.17639 1.540648,0.33349 2.345422,0.39963 0.806154,0.073 1.566831,0.0441 2.108398,-0.011 0.717959,-0.0648 1.273309,-0.24805 1.718416,-0.42719 0.110243,-0.0455 0.216351,-0.0896 0.316946,-0.13091 0.09646,-0.0496 0.188792,-0.0951 0.279742,-0.13643 0.186037,-0.0744 0.338998,-0.16399 0.502983,-0.22186"
       id="path2559"
       style="stroke-width:0.352778" />
    <path
       class = "editable3"
       fill-rule="nonzero"
       fill="#390052"
       fill-opacity="1"
       d="m 54.545242,157.11597 c -1.230587,1.23059 -3.224607,1.23059 -4.455195,0 -1.229212,-1.23059 -1.229212,-3.22461 0,-4.45382 1.230588,-1.23058 3.224608,-1.23058 4.455195,0 1.230588,1.22921 1.230588,3.22323 0,4.45382"
       id="path2561"
       style="stroke-width:0.352778" />
    <path
       class = "editable3"
       fill-rule="nonzero"
       fill="#390052"
       fill-opacity="1"
       d="m 54.025724,161.00204 c 0,0.84749 -0.687641,1.53376 -1.533758,1.53376 -0.847492,0 -1.535133,-0.68627 -1.535133,-1.53376 0,-0.84749 0.687641,-1.53513 1.535133,-1.53513 0.846117,0 1.533758,0.68764 1.533758,1.53513"
       id="path2563"
       style="stroke-width:0.352778" />
    <path
       class = "editable3"
       fill-rule="nonzero"
       fill="#3a0153"
       fill-opacity="1"
       d="m 22.687757,158.34105 c -0.05788,-0.26872 0.06752,-0.30041 0.214974,-0.1695 0.195682,0.17226 0.520899,0.59531 0.986676,1.305 1.318782,2.0147 2.800173,4.56544 4.623318,6.86263 0.988053,1.24713 2.312348,2.59485 3.886067,3.63802 1.55994,1.06109 3.343121,1.79145 4.940267,2.096 0.943957,0.18328 1.933388,0.24804 2.920063,0.15709 0.985298,-0.0882 1.969216,-0.33486 2.928331,-0.67248 1.923743,-0.6711 3.756533,-1.66604 5.634799,-2.32613 0.829578,-0.29352 1.721168,-0.55948 2.484603,-0.6587 0.376203,-0.0689 0.72347,-0.073 0.994943,-0.0978 0.276984,-0.001 0.486445,0.0138 0.602202,0.0317 0.460266,0.073 0.292143,0.14056 -0.14883,0.226 -0.110243,0.0179 -0.23702,0.04 -0.376202,0.062 -0.137805,0.0331 -0.288011,0.0675 -0.446486,0.10335 -0.31557,0.0593 -0.653189,0.17364 -0.981163,0.26872 -1.435915,0.41065 -2.893878,1.10932 -4.411098,1.82452 -1.515844,0.7152 -3.118503,1.44143 -4.824511,1.82728 -1.300868,0.28801 -2.718871,0.339 -4.116201,0.1254 -1.398709,-0.22186 -2.783637,-0.67386 -4.070725,-1.32843 -1.295356,-0.63941 -2.492871,-1.4745 -3.582899,-2.40605 -1.079004,-0.94533 -2.042253,-1.98575 -2.888368,-3.06476 -1.07487,-1.32843 -2.334397,-3.32796 -2.911795,-4.51583 -0.775836,-1.56132 -1.291222,-2.50389 -1.457965,-3.288"
       id="path2565"
       style="stroke-width:0.352778" />
    <path
       class = "editable3"
       fill-rule="nonzero"
       fill="#3a0153"
       fill-opacity="1"
       d="m 82.060533,158.18671 c 0.192923,-0.19706 0.289387,-0.11024 0.260448,0.0854 -0.03583,0.25769 -0.208086,0.76205 -0.555349,1.54202 -0.994943,2.19659 -2.454286,4.86586 -4.480003,7.16305 -1.090027,1.24161 -2.516297,2.61965 -4.179591,3.70554 -1.648132,1.10105 -3.537423,1.87551 -5.25308,2.19521 -1.012856,0.19293 -2.079459,0.26183 -3.148816,0.15985 -1.069358,-0.0978 -2.120802,-0.37344 -3.119879,-0.73173 -2.000913,-0.72209 -3.815789,-1.73495 -5.601726,-2.46945 -0.789616,-0.32108 -1.630218,-0.627 -2.345422,-0.78686 -0.354154,-0.0992 -0.679373,-0.13504 -0.938442,-0.19843 -0.260449,-0.04 -0.461645,-0.0634 -0.573264,-0.0951 -0.443727,-0.11575 -0.290766,-0.16812 0.165365,-0.21084 0.115753,-0.008 0.248045,-0.0165 0.39412,-0.0262 0.146071,0.006 0.304546,0.0124 0.471286,0.0207 0.336243,0.006 0.69729,0.0675 1.052823,0.11437 1.532378,0.30455 3.081291,0.95085 4.609535,1.63573 1.531003,0.68351 3.082675,1.38356 4.677065,1.74873 1.211294,0.27286 2.513541,0.31971 3.81992,0.11301 1.302247,-0.21636 2.60036,-0.65595 3.807519,-1.29398 1.216809,-0.6215 2.338533,-1.4373 3.35001,-2.34404 0.999081,-0.92329 1.89756,-1.9458 2.688555,-3.00137 0.496093,-0.65319 1.054198,-1.46348 1.562696,-2.25585 0.511249,-0.79237 0.982539,-1.55856 1.343586,-2.10151 0.939821,-1.44143 1.42627,-2.40192 1.992644,-2.96829"
       id="path2567"
       style="stroke-width:0.352778" />
    <path
       class = "editable3"
       fill-rule="nonzero"
       fill="#3a0153"
       fill-opacity="1"
       d="m 81.9558,158.93774 c -0.07855,0.0648 -0.15434,0.0221 -0.170875,-0.0537 -0.01379,-0.0951 -0.03996,-0.29904 0.03447,-0.57878 0.187414,-0.80477 0.504363,-1.75286 0.837848,-2.70647 0.374826,-1.03215 0.666972,-2.50251 0.804774,-3.63113 0.09233,-0.66697 0.140561,-1.37115 0.194303,-2.07257 0.0441,-0.7028 0.08268,-1.40284 0.108867,-2.06705 0.03447,-0.58843 0.0441,-1.2361 0.121267,-1.39458 0.143316,-0.31419 0.24529,0.20946 0.338999,0.68764 0.05374,0.52228 0.08682,1.0859 0.08544,1.66467 0.0028,0.57878 -0.02342,1.17271 -0.07579,1.75287 -0.08268,0.8847 -0.199817,1.8383 -0.367937,2.79604 -0.166744,0.95635 -0.385851,1.91547 -0.633896,2.81533 -0.15434,0.5581 -0.402389,1.32567 -0.614606,1.72944 -0.270097,0.53468 -0.394119,0.8847 -0.662837,1.05833"
       id="path2569"
       style="stroke-width:0.352778" />
    <path
         class = "editable3"
       fill-rule="nonzero"
       fill="#3a0153"
       fill-opacity="1"
       d="m 23.401581,158.85506 c -0.01102,0.10197 -0.09508,0.1254 -0.159852,0.0827 -0.07579,-0.0579 -0.237023,-0.18741 -0.378961,-0.44511 -0.418923,-0.72347 -0.79375,-1.69085 -1.026638,-2.70095 -0.265961,-1.09279 -0.599447,-2.5852 -0.748275,-3.74275 -0.199815,-1.36426 -0.28112,-2.87597 -0.205327,-4.22231 0.02618,-0.59669 0.09508,-1.2485 0.175011,-1.40147 0.162608,-0.30317 0.232888,0.23014 0.300412,0.70556 0.02756,0.5209 0.05788,1.07349 0.08819,1.64124 0.02618,0.56775 0.0565,1.14929 0.09784,1.71842 0.0565,0.86816 0.16812,1.80109 0.350021,2.73127 0.180524,0.93155 0.431327,1.85759 0.722092,2.71749 0.179146,0.53468 0.445107,1.27193 0.55535,1.70325 0.139182,0.57189 0.304546,0.89986 0.230132,1.21268"
       id="path2571"
       style="stroke-width:0.352778" />
  </g>
</svg>
