<?xml version="1.0" encoding="UTF-8"?>
<svg width="1200pt" height="1200pt" version="1.1" viewBox="0 0 1200 1200" xmlns="http://www.w3.org/2000/svg">
 <path transform="scale(12)" d="m70.9 62.2c0-0.099935 0-9.5999 8.5-17.8" fill="none" stroke="#000" stroke-miterlimit="10" stroke-width=".25"/>
 <path transform="scale(12)" d="m88.8 69.6-13.4 0.40006h-51.6s-10.2 0.099935-10.6-0.40006" fill="none" stroke="#000" stroke-miterlimit="10" stroke-width=".25"/>
 <path transform="scale(12)" d="m86.3 52.7v1.6003" fill="none" stroke="#000" stroke-miterlimit="10" stroke-width=".25"/>
 <path transform="scale(12)" d="m85.3 52.7v1.6003" fill="none" stroke="#000" stroke-miterlimit="10" stroke-width=".25"/>
 <path transform="scale(12)" d="m84.3 52.7v1.6003" fill="none" stroke="#000" stroke-miterlimit="10" stroke-width=".25"/>
 <path transform="scale(12)" d="m83.3 52.7v1.6003" fill="none" stroke="#000" stroke-miterlimit="10" stroke-width=".25"/>
 <path transform="scale(12)" d="m82.3 52.7v1.6003" fill="none" stroke="#000" stroke-miterlimit="10" stroke-width=".25"/>
 <path transform="scale(12)" d="m81.3 52.7v1.6003" fill="none" stroke="#000" stroke-miterlimit="10" stroke-width=".25"/>
 <path transform="scale(12)" d="m80.3 52.7v1.6003" fill="none" stroke="#000" stroke-miterlimit="10" stroke-width=".25"/>
 <path transform="scale(12)" d="m79.3 52.7v3.9001" fill="none" stroke="#000" stroke-miterlimit="10" stroke-width=".25"/>
 <path transform="scale(12)" d="m78.8 52.6v3.9001" fill="none" stroke="#000" stroke-miterlimit="10" stroke-width=".25"/>
 <path transform="scale(12)" d="m79.8 52.5v4" fill="none" stroke="#000" stroke-miterlimit="10" stroke-width=".25"/>
 <path transform="scale(12)" d="m80.6 52.7v4" fill="none" stroke="#000" stroke-miterlimit="10" stroke-width=".25"/>
 <path transform="scale(12)" d="m82.3 52.9v3.9001" fill="none" stroke="#000" stroke-miterlimit="10" stroke-width=".25"/>
 <path transform="scale(12)" d="m83.3 52.8v3.8997" fill="none" stroke="#000" stroke-miterlimit="10" stroke-width=".25"/>
 <path transform="scale(12)" d="m84 52.2v3.9001" fill="none" stroke="#000" stroke-miterlimit="10" stroke-width=".25"/>
 <path transform="scale(12)" d="m78.3 52.7v1.6003" fill="none" stroke="#000" stroke-miterlimit="10" stroke-width=".25"/>
 <path transform="scale(12)" d="m77.3 52.7v1.6003" fill="none" stroke="#000" stroke-miterlimit="10" stroke-width=".25"/>
 <path transform="scale(12)" d="m13.6 62.2h59.5l19.3-0.80013s0.099935-3.6999 0-7c-0.099935-3.3001-10.1-10-10.1-10" fill="none" stroke="#000" stroke-miterlimit="10" stroke-width=".25"/>
 <path transform="scale(12)" d="m92.4 62.2-0.099935 4.4001" fill="none" stroke="#000" stroke-miterlimit="10" stroke-width=".25"/>
 <path transform="scale(12)" d="m84 43.5v-3.0999s1.8001-0.59994 4.6999-0.5c2.9001 0.099935 4.3001-0.40006 4.3001 1.8001 0 2.1999-0.69987 3.1999-0.69987 3.1999h-6v1.9001" fill="none" stroke="#000" stroke-miterlimit="10" stroke-width=".25"/>
 <path transform="scale(12)" d="m85.3 46.5s0.30013-4.5999 1-5.5999" fill="none" stroke="#000" stroke-miterlimit="10" stroke-width=".25"/>
 <path transform="scale(12)" d="m83.3 43.7h-1l-6.7002-14.7s-1.6999-2.5-4.6999-2.9001-16.5-1-25-0.90006" fill="none" stroke="#000" stroke-miterlimit="10" stroke-width=".25"/>
 <path transform="scale(12)" d="m79.7 72.3v3.8997h-7.7998v-2.2998" fill="none" stroke="#000" stroke-miterlimit="10" stroke-width=".25"/>
 <path transform="scale(12)" d="m79 72.5h-2.6999" fill="none" stroke="#000" stroke-miterlimit="10" stroke-width=".25"/>
 <path transform="scale(12)" d="m72.5 75.5h6.5" fill="none" stroke="#000" stroke-miterlimit="10" stroke-width=".25"/>
 <path transform="scale(12)" d="m71.6 76.2-0.2998-0.69987" fill="none" stroke="#000" stroke-miterlimit="10" stroke-width=".25"/>
 <path transform="scale(12)" d="m79.7 68.2h7.3001v-3.1999h-7.5999" fill="none" stroke="#000" stroke-miterlimit="10" stroke-width=".25"/>
 <path transform="scale(12)" d="m61.9 44.3h-22.2" fill="none" stroke="#000" stroke-miterlimit="10" stroke-width=".25"/>
 <path transform="scale(12)" d="m30.3 62.2c0-0.099935 0-9.5999-8.5-17.8" fill="none" stroke="#000" stroke-miterlimit="10" stroke-width=".25"/>
 <path transform="scale(12)" d="m12.5 69.6 13.3 0.40006h51.6s10.2 0.099935 10.6-0.40006" fill="none" stroke="#000" stroke-miterlimit="10" stroke-width=".25"/>
 <path transform="scale(12)" d="m15 52.7v1.6003" fill="none" stroke="#000" stroke-miterlimit="10" stroke-width=".25"/>
 <path transform="scale(12)" d="m16 52.7v1.6003" fill="none" stroke="#000" stroke-miterlimit="10" stroke-width=".25"/>
 <path transform="scale(12)" d="m17 52.7v1.6003" fill="none" stroke="#000" stroke-miterlimit="10" stroke-width=".25"/>
 <path transform="scale(12)" d="m18 52.7v1.6003" fill="none" stroke="#000" stroke-miterlimit="10" stroke-width=".25"/>
 <path transform="scale(12)" d="m19 52.7v1.6003" fill="none" stroke="#000" stroke-miterlimit="10" stroke-width=".25"/>
 <path transform="scale(12)" d="m20 52.7v1.6003" fill="none" stroke="#000" stroke-miterlimit="10" stroke-width=".25"/>
 <path transform="scale(12)" d="m21 52.7v1.6003" fill="none" stroke="#000" stroke-miterlimit="10" stroke-width=".25"/>
 <path transform="scale(12)" d="m22 52.7v3.9001" fill="none" stroke="#000" stroke-miterlimit="10" stroke-width=".25"/>
 <path transform="scale(12)" d="m22.4 52.6v3.9001" fill="none" stroke="#000" stroke-miterlimit="10" stroke-width=".25"/>
 <path transform="scale(12)" d="m21.4 52.5v4" fill="none" stroke="#000" stroke-miterlimit="10" stroke-width=".25"/>
 <path transform="scale(12)" d="m20.7 52.7v4" fill="none" stroke="#000" stroke-miterlimit="10" stroke-width=".25"/>
 <path transform="scale(12)" d="m19 52.9v3.9001" fill="none" stroke="#000" stroke-miterlimit="10" stroke-width=".25"/>
 <path transform="scale(12)" d="m18 52.8v3.8997" fill="none" stroke="#000" stroke-miterlimit="10" stroke-width=".25"/>
 <path transform="scale(12)" d="m17.2 52.2v3.9001" fill="none" stroke="#000" stroke-miterlimit="10" stroke-width=".25"/>
 <path transform="scale(12)" d="m23 52.7v1.6003" fill="none" stroke="#000" stroke-miterlimit="10" stroke-width=".25"/>
 <path transform="scale(12)" d="m24 52.7v1.6003" fill="none" stroke="#000" stroke-miterlimit="10" stroke-width=".25"/>
 <path transform="scale(12)" d="m87.7 62.2h-59.5l-19.4-0.89974s-0.099935-3.6999 0-7 10.2-10 10.2-10" fill="none" stroke="#000" stroke-miterlimit="10" stroke-width=".25"/>
 <path transform="scale(12)" d="m8.8001 62.2 0.19987 4.4001" fill="none" stroke="#000" stroke-miterlimit="10" stroke-width=".25"/>
 <path transform="scale(12)" d="m17.2 43.5v-3.0999s-1.8001-0.59994-4.6999-0.5c-2.9001 0.099935-4.3001-0.40006-4.3001 1.8001 0 2.1999 0.69987 3.1999 0.69987 3.1999h6v1.9001" fill="none" stroke="#000" stroke-miterlimit="10" stroke-width=".25"/>
 <path transform="scale(12)" d="m16 46.5s-0.30013-4.5999-1-5.5999" fill="none" stroke="#000" stroke-miterlimit="10" stroke-width=".25"/>
 <path transform="scale(12)" d="m18 43.7h1l6.5999-14.7s1.6999-2.5 4.6999-2.9001 16.5-1 25-0.90006" fill="none" stroke="#000" stroke-miterlimit="10" stroke-width=".25"/>
 <path transform="scale(12)" d="m21.6 72.3v3.8997h7.7002v-2.2998" fill="none" stroke="#000" stroke-miterlimit="10" stroke-width=".25"/>
 <path transform="scale(12)" d="m22.2 72.5h2.7002" fill="none" stroke="#000" stroke-miterlimit="10" stroke-width=".25"/>
 <path transform="scale(12)" d="m28.7 75.5h-6.5" fill="none" stroke="#000" stroke-miterlimit="10" stroke-width=".25"/>
 <path transform="scale(12)" d="m29.6 76.2 0.40006-0.69987" fill="none" stroke="#000" stroke-miterlimit="10" stroke-width=".25"/>
 <path transform="scale(12)" d="m21.6 68.2h-7.4001v-3.1999h7.6003" fill="none" stroke="#000" stroke-miterlimit="10" stroke-width=".25"/>
 <path transform="scale(12)" d="m39.3 44.3h22.3" fill="none" stroke="#000" stroke-miterlimit="10" stroke-width=".25"/>
 <path d="m994.8 528h13.199l3.6016-27.602-6 45.602-16.801-12-4.8008-3.6016z"/>
 <path d="m1033.2 499.2s0-12 21.602-10.801c21.602 1.1992 51.602-8.3984 57.602 4.8008s-2.3984 38.398-9.6016 38.398c-7.1992 0-62.398-2.3984-62.398-2.3984s-4.8008 3.6016-4.8008 7.1992c0 3.6016-2.3984-7.1992-2.3984-7.1992s-2.3984 4.8008 0 7.1992c2.3984 2.3984 3.6016 6 3.6016 6v8.3984l-6-3.6016 7.1992 6-1.1992 13.199-12-9.6016c-1.2031 1.207 2.3945-49.191 8.3945-57.594z"/>
 <path d="m1040.4 732s3.6016-22.801-4.8008-19.199l-7.1992 2.3984s32.398-21.602 28.801-42c-2.3984-19.199-2.3984-54-2.3984-54s8.3984 55.199 7.1992 75.602v36l-24 6z"/>
 <path d="m907.2 690s-24-8.3984-12-60 50.398-100.8 62.398-98.398c12 2.3984 8.3984 3.6016 9.6016 13.199 1.1992 9.6016-9.6016 30-9.6016 30l-12 19.199c0.003906 1.1992-64.797 57.602-38.398 96z"/>
 <path d="m973.2 546 13.199-14.398-13.199-39.602-9.5977-20.398 18 56.398z"/>
 <path d="m732 572.4h-133.2v-37.199h144s18 22.801-10.801 37.199z"/>
 <path d="m268.8 780h684v38.398h-684z"/>
 <path d="m1044 776.4h9.6016v39.602h-9.6016z"/>
 <path d="m1030.8 895.2 19.199-57.602 15.602-2.3984v-16.801h-10.801l4.8008-32.398 14.398-6-9.6016-3.6016h-7.1992l7.1992-6v-19.199l-15.602-6-153.6 6 159.6-10.801s15.602-8.3984 15.602 4.8008c1.1992 13.199 9.6016 40.801 9.6016 40.801l12 31.199 16.801-46.801s0 44.398-8.3984 66c-8.3984 21.602-45.602 99.602-45.602 99.602l-44.398 4.8008 33.602-9.6016c-0.003906 2.4023 10.797-55.199-13.203-36z"/>
 <path d="m1002 913.2s-21.602 13.199-220.8 13.199h-206.4v18h393.6s30 3.6016 86.398-8.3984c0 0-36 10.801-70.801 10.801s12-20.398 43.199-46.801l31.199-26.398s-32.398 34.797-56.398 39.598z"/>
 <path d="m421.2 897.6h415.2v-30h116.4s-93.602 0-93.602 15.602-1.1992 28.801-1.1992 28.801h-21.602z"/>
 <path d="m981.6 585.6c-38.398 0-69.602 31.199-69.602 69.602 0 38.398 31.199 69.602 69.602 69.602 38.398 0 69.602-31.199 69.602-69.602-0.003906-38.402-32.402-69.602-69.602-69.602 40.801 0 73.199 32.398 73.199 73.199s-33.602 73.199-73.199 73.199c-39.602 0-73.199-32.398-73.199-73.199-0.003906-40.801 32.398-73.199 73.199-73.199z"/>
 <path d="m927.6 622.8s18-34.801 54-31.199c36 3.6016 46.801 31.199 46.801 31.199l-21.602 7.1992s13.199 9.6016 21.602 9.6016c8.3984 0 16.801 4.8008 9.6016 6-7.1992 1.1992-28.801-1.1992-27.602 4.8008 1.1992 6-13.199 21.602-28.801 18-15.602-3.6016-24-16.801-20.398-19.199 1.1992-1.1992-2.3984-1.1992-7.1992-2.3984-7.1992-1.1992-16.801-1.1992-16.801-1.1992s28.801-6 31.199-6c2.3984 0 6-6-2.3984-9.6016-8.3984-2.3984-34.801-8.3984-38.398 0-3.6016 8.3984-1.1992 16.801 3.6016 15.602s-4.8008 1.1992-4.8008 7.1992v30s36 43.199 55.199 37.199 55.199-19.199 55.199-36v-16.801s-13.199 57.602-60 61.199c0 0-64.801-20.398-58.801-68.398 5.9961-48.004-13.203 4.7969 9.5977-37.203z"/>
 <path d="m756 524.4h-294l3.6016 96 7.1992-85.199h278.4z"/>
 <path d="m1110 795.6s-3.6016 219.6-26.398 219.6c-22.801 0-94.801 7.1992-104.4-3.6016-9.6016-9.6016-10.801-32.398-10.801-32.398l1.1992-34.801s-2.3984 6 24 2.3984c26.398-3.6016 57.602-9.6016 57.602-9.6016l33.602-99.602z"/>
 <path d="m765.6 544.8s159.6 3.6016 174-4.8008c14.398-8.3984 0-12 0-12h-174v16.801z"/>
 <path d="m715.2 508.8s235.2 16.801 243.6 19.199l8.3984 2.3984s3.6016 0 1.1992-6c-2.3984-4.8008-44.398-134.4-64.801-166.8-20.398-32.398-40.801-33.602-97.199-42-56.398-8.3984-262.8 0-262.8 0v38.398h158.4s106.8-9.6016 135.6 36l-2.3984 54s-8.3984-50.398-27.602-50.398c-20.398 0-91.199-2.3984-96 15.602-4.8008 16.801-18 70.801-18 70.801l-10.801 25.199h-132z"/>
 <path d="m219.6 528h-13.203l-2.3984-27.602 6 45.602 15.602-12 4.7969-3.6016z"/>
 <path d="m181.2 499.2s0-12-21.602-10.801c-21.598 1.2031-51.598-8.3984-57.598 4.8008s2.3984 38.398 9.6016 38.398c7.1992 0 62.398-2.3984 62.398-2.3984s4.8008 3.6016 4.8008 7.1992c0 3.6016 2.3984-7.1992 2.3984-7.1992s2.3984 4.8008 0 7.1992c-2.3984 2.3984-3.6016 6-3.6016 6v8.3984l6-3.6016-7.1992 6 1.1992 13.199 12-9.6016c2.4023 1.207-1.1992-49.191-8.3984-57.594z"/>
 <path d="m175.2 732s-3.6016-22.801 4.8008-19.199l7.1992 2.3984s-32.398-21.602-28.801-42c2.3984-19.199 2.3984-54 2.3984-54s-8.3984 55.199-7.1992 75.602v36l24 6z"/>
 <path d="m307.2 690s24-8.3984 12-60-50.398-100.8-62.398-98.398c-12 2.3984-8.3984 3.6016-9.6016 13.199-1.1992 9.6016 9.6016 30 9.6016 30l12 19.199c1.1992 1.1992 66 57.602 38.398 96z"/>
 <path d="m242.4 546-14.398-14.398 14.398-39.602 9.6016-20.398-18 56.398z"/>
 <path d="m483.6 572.4h133.2v-37.199h-144c-1.1992 0-19.199 22.801 10.801 37.199z"/>
 <path d="m261.6 780h684v38.398h-684z"/>
 <path d="m160.8 776.4h9.6016v39.602h-9.6016z"/>
 <path d="m184.8 895.2-19.199-57.602-15.602-2.3984v-16.801h10.801l-4.8008-32.398-14.398-6 9.6016-3.6016h7.1992l-7.1992-6v-19.199l15.602-6 153.6 6-159.6-10.801s-15.602-8.3984-15.602 4.8008c-1.1992 13.199-9.6016 40.801-9.6016 40.801l-12 31.199-16.801-46.801s0 44.398 8.3984 66c8.3984 21.602 45.602 99.602 45.602 99.602l44.398 4.8008-33.602-9.6016c-1.1992 2.4023-11.996-55.199 13.203-36z"/>
 <path d="m212.4 913.2s21.602 13.199 220.8 13.199h206.4v18h-392.4s-30 3.6016-86.398-8.3984c0 0 36 10.801 70.801 10.801 34.801 0-12-20.398-43.199-46.801l-31.199-26.398c-0.003906 0 31.195 34.797 55.195 39.598z"/>
 <path d="m793.2 897.6h-415.2v-30h-116.4s93.602 0 93.602 15.602 1.1992 28.801 1.1992 28.801h21.602z"/>
 <path d="m234 585.6c38.398 0 69.602 31.199 69.602 69.602 0 38.398-31.199 69.602-69.602 69.602-38.398 0-69.602-31.199-69.602-69.602s31.203-69.602 69.602-69.602c-40.801 0-73.199 32.398-73.199 73.199s32.398 73.199 73.199 73.199 73.199-32.398 73.199-73.199-32.398-73.199-73.199-73.199z"/>
 <path d="m288 622.8s-18-34.801-54-31.199c-36 3.6016-46.801 31.199-46.801 31.199l21.602 7.1992s-13.199 9.6016-21.602 9.6016c-8.3984 0-16.801 4.8008-9.6016 6 7.1992 1.1992 28.801-1.1992 27.602 4.8008s13.199 21.602 28.801 18c15.602-3.6016 24-16.801 20.398-19.199-1.1992-1.1992 2.3984-1.1992 7.1992-2.3984 7.1992-1.1992 16.801-1.1992 16.801-1.1992s-28.801-6-31.199-6c-2.3984 0-6-6 2.3984-9.6016 8.3984-2.3984 34.801-8.3984 38.398 0 3.6016 8.3984 1.1992 16.801-3.6016 15.602s4.8008 1.1992 4.8008 7.1992v30s-36 43.199-55.199 37.199c-19.199-6-55.199-19.199-55.199-36v-16.801s13.199 57.602 60 61.199c0 0 64.801-20.398 58.801-68.398-5.9961-48.004 13.203 4.7969-9.5977-37.203z"/>
 <path d="m458.4 524.4h295.2l-4.8008 96-6-85.199h-278.4z"/>
 <path d="m105.6 795.6s3.6016 219.6 26.398 219.6c22.801 0 94.801 7.1992 104.4-3.6016 9.6016-10.801 10.801-32.398 10.801-32.398l-1.1992-34.801s2.3984 6-24 2.3984c-26.398-3.6016-57.602-9.6016-57.602-9.6016l-32.398-99.598z"/>
 <path d="m448.8 544.8s-159.6 3.6016-174-4.8008c-13.199-8.3984 0-12 0-12h174v16.801z"/>
 <path d="m500.4 508.8s-235.2 16.801-243.6 19.199l-8.3984 2.3984s-3.6016 0-1.1992-6c2.3984-4.8008 44.398-134.4 64.801-166.8 20.398-32.398 40.801-33.602 97.199-42 56.398-8.3984 262.8 0 262.8 0v38.398l-157.2 0.003906s-106.8-9.6016-135.6 36l2.3984 54s8.3984-50.398 27.602-50.398c20.398 0 91.199-2.3984 96 15.602 4.8008 16.801 18 70.801 18 70.801l10.801 25.199h129.6z"/>
 <path d="m588 705.6s3.6016 9.6016 12 15.602 8.3984 3.6016 8.3984 3.6016 14.398-9.6016 13.199-16.801c-1.1992-7.1992-22.801-7.1992-22.801-7.1992z"/>
 <path d="m252 1017.6s174 25.199 370.8 25.199 294-25.199 294-25.199l60-22.801s13.199-44.398-36-46.801c-49.199-2.3984-700.8-10.801-700.8-10.801s26.398 38.398-6 52.801c-32.398 14.398-44.398 30 18 27.602z"/>
 <path d="m544.8 360v25.199h75.602s45.602 3.6016 48-3.6016c3.6016-6 6-20.398-7.1992-36-13.199-15.602-108 2.3984-108 2.3984z"/>
 <path d="m606 380.4v10.801h2.3984v-9.5977z"/>
 <path d="m513.6 460.8h207.6l-14.398 10.801h-225.6z"/>
 <path d="m488.4 513.6s-9.6016-3.6016 19.199-13.199c28.801-9.6016 214.8-31.199 267.6-16.801 22.801 6 2.3984-3.6016-48-4.8008-63.602-2.3984-169.2 4.8008-208.8 30 0 0-31.199 20.398-30 4.8008z"/>
 <path d="m699.6 519.6c2.3984-4.8008 63.602-38.398 111.6-38.398s140.4 9.6016 140.4 9.6016-4.8008 4.8008-18 4.8008c-13.199 0-72-13.199-98.398-4.8008-26.398 8.3984-60 25.199-60 25.199s33.602-26.398 56.398-30c22.801-3.6016-24-10.801-74.398 13.199-51.602 22.797-57.602 20.398-57.602 20.398z"/>
</svg>
