<?xml version="1.0" encoding="UTF-8"?>
<svg width="1200pt" height="1200pt" version="1.1" viewBox="0 0 1200 1200" xmlns="http://www.w3.org/2000/svg">
 <path class = "editable" d="m1155.1 619.14c8.0156 13.273 11.793 43.07-0.42969 55.238-2.4336 2.3242-5.3008 4.1445-8.4375 5.3594-14.184 5.8398-13.809 11.477-21.141 21.242v0.003906c-4.5742 5.125-10.867 8.3945-17.691 9.1875-6.5625 43.238-11.738 90-65.973 90.402-22.789 0.84375-45.562-1.9922-67.453-8.3906-18.215-6.1016-27.039-24.328-36.441-39.73-86.668-0.44141-173.27 5.0039-259.2 16.293-16.734 35.055-37.078 60.336-79.352 61.023-33.195 0.53516-79.098-0.84375-99.805-30.375h-0.42188c-69.898 0-143.15-1.6953-215.71-6.6367-0.16016 0.32031-0.32031 0.58203-0.47656 0.9375-25.809 36.441-104.37 33.367-127.5-4.1328l-6.4766 0.16016c-15.461 0.32031-36.863 2.3906-48.918-9.4609v-0.003906c-1.0742-1.0117-1.832-2.3125-2.1758-3.75-0.14453-0.20703-0.25-0.4375-0.32031-0.68359-0.9375-2.3359-1.7539-5.043-2.7109-7.1172h0.003906c-0.8125-1.9766-1.9609-3.793-3.4062-5.3711-0.5625-0.42188-1.0781-0.90234-1.5352-1.4336-4.5195 0.054688-9.0859 1.1719-13.492 1.0703-5.9961 0.21484-11.859-1.7891-16.473-5.625-1.75-1.3906-2.7031-3.5547-2.5469-5.7852-0.058594-0.28125-0.09375-0.56641-0.10547-0.85547-0.054688-9.9844-0.85156-19.922 0-29.852v0.003906c0.054687-0.67188 0.19531-1.3359 0.42188-1.9688-1.4805-0.26172-2.9141-0.47656-4.3516-0.74219h0.003907c-2.9023 0.28125-5.668-1.293-6.9102-3.9258-7.6445-15.25-10.246-32.531-7.4336-49.352 0.76953-7.9531 4.1953-15.414 9.7188-21.188 4.5781-3.8438 10.289-6.082 16.258-6.375 0.16016-0.9375 0.32031-1.9688 0.47656-2.9258-21.859-46.574 23.824-83.551 64.773-95.238 34.875-8.8633 70.496-14.465 106.41-16.734 19.332-1.875 38.719-3.4492 58.004-5.6797 8.3359-0.9375 17.738-1.2188 27.188-1.875v-0.003906c-0.03125-3.7109 1.1055-7.3359 3.2461-10.363 2.1445-3.0312 5.1875-5.3086 8.6953-6.5117 4.6953-2.125 9.9492-2.6875 14.984-1.6094 5.0391 1.082 9.6016 3.75 13.012 7.6094 52.219-35.109 81.797-111.12 148.83-123.7 73.727-13.82 148.67-10.836 223.03-6.375 39.215 2.1523 78.195 7.4102 116.58 15.723 32.863 8.1289 63.973 22.188 91.789 41.484 15.336 8.4141 29.941 18.098 43.66 28.949 18.695 16.996 34.414 16.875 58.051 17.156 26.082 0.32031 58.695-6 82.809 6.4297 11.418 5.8867 14.129 30.938 3.75 38.559v0.003906c-7.3594 4.3984-15.801 6.6719-24.375 6.5625-4.9414 0.47656-9.8828 1.0586-14.867 1.4805-8.8359 1.875-17.562 4.2344-26.141 7.0703 15.992 7.9688 31.555 17.633 47.008 26.504v-0.003907c9.1992 4.0898 17.289 10.32 23.586 18.172 1.6406 2.8672 5.6797 30.75 2.7109 30.805 6.4531-0.87109 12.922 1.5039 17.277 6.3477zm-27.516 51.836c11.84-9.1875 18.273-13.125 16.875-30.75v-0.003907c-0.125-1.957-0.59375-3.8789-1.3789-5.6797-5.3359-0.074219-10.676 0.12109-15.992 0.58203-1.4258 0.58594-2.9297 0.96484-4.4609 1.1133 1.7578 11.598 2.5039 23.328 2.2305 35.055zm-3.0859-48.18v-0.84375h0.003906c-2-5.1523-2.8164-10.691-2.3906-16.199-8.3359 1.4336-7.5 13.648-6.0547 22.145l-0.003906-0.003906c2.7539-0.57813 5.5391-0.96484 8.3438-1.1602 0.085937-0.58203 0.066406-1.1758-0.054688-1.7539-0.13281-0.73047-0.078125-1.4805 0.16016-2.1836zm-66.656-101.25c9.2891-4.4062 62.625-7.5938 62.035-16.473-0.10937-1.4648-0.64062-2.8672-1.5352-4.0312-28.789-0.42188-62.672-2.3906-83.867 19.754h-0.003907c4.4297 4.1211 9.0742 8.0039 13.914 11.633 1.7344-4.6445 5.0977-8.5039 9.4609-10.863zm59.008 150.64c0.40234-11.918-0.33984-23.848-2.2227-35.625-3.6797 0.36719-7 2.375-9.0352 5.4648l-0.16016 0.47656v0.003906c1.1445 10.082 1.4805 20.242 1.0117 30.383 3.5078-0.16016 6.957-0.42188 10.406-0.70312zm2.1836 7.6953c-4.3594 0.47656-8.6641 0.85156-13.012 1.0117-0.27344 4.2461-0.63672 8.5039-1.0703 12.695h0.003907c5.7852-3.3047 10.633-8.0352 14.078-13.742zm-9.8242-73.32c2.043-5.1797 6.9727-8.6445 12.535-8.8125-4.9961-26.82-54.18-32.664-71.336-49.875-0.35156-0.31641-0.66797-0.67188-0.9375-1.0586-33.676-22.211-55.398-58.32-87.055-83.07-6.7969-4.7812-13.754-9.3008-21.133-13.969-30.758-19.602-59.23-37.613-95.625-44.832-78-15.918-157.64-22.32-237.19-19.07-18.375 0.9375-36.562 3.0742-54.871 4.8281-19.332 1.8086-42.703 1.7539-60.121 11.793-0.32031 0.16016-0.63672 0.42188-1.0117 0.63672 26.211-3.2656 52.648-4.3516 79.039-3.2422 44.457 0.054687 91.621-3.9766 135.7 1.6484 62.043 7.8672 30.758 90 14.664 128.01 4.1445 0.054687 7.9688 0.054687 10.621 0.11328 0.33984 0.019532 0.67969 0.074219 1.0117 0.16016-0.0625-0.79297 0.027343-1.5859 0.26172-2.3438 10.68-34.688 16.098-72.711 30.066-106.23v-0.003906c0.46484-1.1172 1.2617-2.0625 2.2891-2.707 0.3125-1.7422 1.7852-3.0391 3.5508-3.1328 47.812 0 95.625 3.9297 138.52 23.438 17.953 8.1836 83.926 40.586 76.695 67.93-5.4648 20.625-38.344 21.777-55.312 23.008-2.4922 0.20703-4.9961 0.26172-7.5 0.47656 15.562 28.125 4.3594 64.688-6.3203 93.102-8.2344 21.855-15.734 44.75-24.172 67.109 8.1758-0.625 16.352-1.207 24.535-1.7422 0.054688-0.11328 0.054688-0.27344 0.16016-0.375 22.734-31.023 46.105-98.906 94.867-82.594 11.25-15.301 27.836-27.355 47.164-23.746 27.57 5.2109 40.527 25.387 45.57 50.672v-0.003906c1.4648-0.90625 2.9922-1.707 4.5742-2.3906-1.9727-7.8203-1.7148-16.043 0.75-23.727zm-18.383 108.25c2.0234-49.688-5.3633-113.34-65.914-108.25h-0.003907c-9.5742 10.57-16.344 23.371-19.688 37.238-4.3594 16.621-5.793 35.324-9.6094 52.961v-0.003907c-1.4414 19.543 1.7031 39.148 9.1875 57.254 4.6328 9.543 12.203 17.348 21.602 22.262 9.4023 4.9141 20.129 6.6797 30.609 5.0391 17.531-6.4219 24.965-21.242 29.109-38.773 1.4336-7.9141 2.9141-16.246 4.2461-24.797 0.19922-0.97656 0.30078-1.9336 0.46094-2.8906zm7.5-221.86c-28.688-4.3594-77.129 0.84375-88.012-0.16016-1.1133-0.11328-2.2266-0.27344-3.3477-0.47656 7.1172 7.8086 14.23 15.562 21.676 22.941 18.047-18.977 44.23-22.004 69.73-22.27zm-81.215 291.12c-5.7578-3.543-10.863-8.0508-15.086-13.332-9.6758-13.344-15.352-29.172-16.359-45.629-1.3086 2.4883-2.7812 4.8828-4.4062 7.1719-6.8711 8.6641-16.941 14.195-27.938 15.348 9.375 15.141 18.32 29.645 38.137 32.879 8.3242 1.4258 16.988 2.7461 25.699 3.6016zm-16.68-159.61c1.7227-4.1094 3.7461-8.0859 6.0547-11.898-39.676-11.371-61.773 47.008-80.523 75.523 19.969-1.1133 39.816-1.6953 59.539-1.7539l0.003907 0.003906c2.7266-21.098 7.7461-41.832 14.973-61.836zm-19.227 80.363c1.1211-3.4531 2.0625-6.9648 2.8125-10.52-31.762 0.10156-63.684 1.6953-95.719 4.3594-1.2734 3.2344-2.5977 6.4766-3.9844 9.6641 7.8672-0.53516 15.676-0.9375 23.438-1.2734 24.316-0.81641 49.328 0.9375 73.5-2.1953zm-11.25-195.25c15.402-11.363-38.438-45.836-45.938-50.09-9.4258-5.3086-19.203-9.957-29.27-13.914 5.0273 24.535 6.832 49.621 5.3711 74.625 3.0273-0.10156 6-0.21484 9.0273-0.375 18.199-0.75 45.543 1.0508 60.844-10.207zm-26.082 227.34c7.2461-0.59375 14.207-3.1016 20.172-7.2617 5.9648-4.1641 10.719-9.832 13.773-16.43-32.09 3.9297-64.969 3.8242-97.688 4.7812-2.9727 6.6367-6.207 13.07-9.5547 19.445 23.363-0.75 46.801-1.0859 70.312-1.0117l0.003907-0.003906c0.77734 0.007812 1.5469 0.13281 2.2852 0.375 0.25 0.011718 0.49609 0.058594 0.73047 0.14062zm-21.742-169.51c0.11328-1.875 0.11328-3.8242 0.054687-5.7383-6.9102 0.85156-13.914 0.85156-20.82 1.707-2.1289 0.26172-9.5078 0.58203-10.781 2.8125-0.79688 1.4336-2.3359 3.4492-0.375 4.3047 6.2656 1.707 12.871 1.6875 19.125-0.058593 4.3477-0.63281 8.6289-1.6445 12.797-3.0273zm-0.42188-13.594c-0.96094-8.2422-3.8945-16.133-8.5586-22.996-35.531 2.0703-71.176 2.5508-106.71 4.6875-0.97656 0.035156-1.9453-0.18359-2.8125-0.63672-2.2344 3.4922-5.3516 6.332-9.0352 8.2305-7.8594 3.5781-16.879 3.6016-24.75 0.054688-7.0117 7.3867-23.258 9.5078-27.992-1.6484h-0.003906c-0.49609-1.0938-0.8125-2.2578-0.9375-3.4492-33.738 10.387-21.824 79.285-22.762 105.15-0.84375 23.109-1.6406 46.164-2.0703 69.207 55.566-8.5977 111.12-16.359 166.1-21.141 7.2734-19.172 13.754-38.766 21.086-57.516h-0.003906c8.1172-18.484 14.137-37.816 17.953-57.637-6.1016 1.7148-12.367 2.7656-18.695 3.1406-5.9531 0.47656-16.574 1.1641-20.023-5.2109v-0.003907c-1.4297-3.3633-1.2812-7.1953 0.40234-10.441s4.7305-5.5703 8.3086-6.3398c10.086-1.793 20.273-2.9414 30.504-3.4492zm-29.531-33.195c1.8242-26.332-0.38672-52.789-6.5625-78.449-2.5508-0.85156-5.1016-1.5938-7.6953-2.3438 6.5781 26.473 9.4766 53.73 8.6055 81 1.8281-0.046874 3.7422-0.16016 5.6523-0.20703zm-17.055 188.44c1.332-3.1797 2.6055-6.3203 3.8828-9.5078-54.074 4.8359-108.46 12.535-163.07 20.98 0 3.4023-0.046875 6.7969-0.10156 10.145 37.5-4.4062 74.625-12.852 112.07-17.102 15.723-1.7969 31.453-3.3359 47.223-4.5078zm3.4023-187.92h0.003906c1.0625-28.254-2.2188-56.5-9.7227-83.758-31.445-5.7344-63.25-9.2852-95.184-10.621-13.125 32.504-18.59 68.887-28.789 102.4 0.16016 0 0.27344-0.054688 0.375-0.054688h-0.003906c3.3203-2.4414 6.8789-4.5391 10.625-6.2617-0.47656-23.316 33.469-40.902 48.121-17.43 2.9531 5.8203 4.1172 12.383 3.3477 18.863 23.688-1.3789 47.484-2.2227 71.23-3.1328zm-17.211 216.68c3.5078-6.3281 6.7969-12.805 9.7773-19.445-14.445 0.53516-28.848 1.4336-43.191 3.1875-37.387 4.5664-74.57 12.852-112.07 17.156 0 3.2344 0 6.4219 0.054687 9.6094 48.445-5.3711 96.832-8.8203 145.43-10.508zm-71.652-201.27c4.7891-2.3984 8.332-6.7227 9.7422-11.891 1.4102-5.168 0.55469-10.691-2.3555-15.191-10.199-16.414-37.82-1.4922-33.195 15.938 1.8867 4.9453 5.6914 8.918 10.555 11.02 4.8594 2.0977 10.359 2.1445 15.254 0.125zm-26.879 2.2305v0.003907c-2.4688-2.1523-4.3828-4.8672-5.5781-7.9141-3.8164 1.707-8.8672 4.1445-8.5977 6.4766 0.36719 2.9805 5.2031 4.1992 7.5 3.9844h0.003907c2.4336-0.13281 4.7695-1.0234 6.6719-2.5469zm-51.254-13.332c11.68-27.027 29.953-68.148 19.012-96.883-10.621-27.883-75.477-16.875-98.68-17.156-52.801-0.58203-114.31-8.5508-165 9.9375v0.003906c-17.914 15.684-34.77 32.543-50.453 50.457-10.863 13.348-22.574 25.98-35.062 37.82 8.9805 0.375 17.953 0.69531 26.934 1.1719 3.1914-3.25 6.7188-6.1523 10.52-8.6641 1.9336-0.12109 3.8242-0.60547 5.5781-1.4336 48.621-1.6055 97.262 2.6016 144.89 12.535 0.39062 0.10938 0.76562 0.26953 1.1133 0.47656 2 0.11719 3.5742 1.75 3.6211 3.75-0.003906 1.1406 0.10156 2.2734 0.31641 3.3945 45.469 2.6055 90.984 4.5664 136.88 4.5664zm-0.87891 66.715c0.53516-20.82 1.1719-42.648 14.605-54.543-4.8828-0.11328-10.668-0.27344-15.723-0.63672-0.55078-0.054687-1.0898-0.20312-1.5938-0.43359-1.3203 0-2.6992-0.046874-4.0312-0.046874-38.672 8.9727-81.43 6.5625-120.84 10.68-38.137 3.9844-76.012 9.2891-113.51 16.996h0.003906c7.1094 2.832 13.191 7.7539 17.449 14.113 4.2578 6.3594 6.4883 13.859 6.3984 21.512 0.44531 20.559-8.9961 40.082-25.387 52.5 9.3711-1.6172 18.543-4.2383 27.355-7.8086 14.598-6.3711 28.336-14.547 40.895-24.336 9.8828-7.5 15.938-12.43 16.875-11.477 0.79688 0.79688-3.6641 7.332-12.75 16.258-12.031 11.762-26.145 21.18-41.625 27.777-2.1758 0.9375-4.3516 1.707-6.5625 2.4453 24.543-0.10156 49.051-0.1875 73.52-0.26172 0.33984 0.035156 0.67578 0.10547 1.0039 0.20703 12.168-22.621 29.859-41.973 56.727-45.723 26.023-3.6094 48.965 19.172 55.82 42.336 5.8672 21.375 7.6328 43.668 5.2109 65.703 7.8008-1.2734 15.609-2.4922 23.438-3.75 0.30859-40.539 1.6875-81.086 2.7188-121.51zm-2.8125 157.07c0-3.2422 0.054688-6.4883 0-9.7227-8.8125 0.85156-17.691 1.4922-26.605 1.8086-0.63672 3.8164-1.3867 7.6406-2.1289 11.465 9.5898-1.2734 19.199-2.4375 28.734-3.5508zm0-17.746v-9.668l-24.328 3.8242c-0.32031 2.5508-0.63672 5.1016-1.0039 7.5938 8.5234-0.26172 16.969-0.89844 25.332-1.75zm-44.297 31.398v-0.003906c6.1016-22.59 9.0508-45.918 8.7656-69.316 0.39453-15.914-3.8906-31.594-12.328-45.094-10.621-14.062-36.43-29.793-54.758-19.285-19.672 16.188-34.09 37.855-41.43 62.25-4.7812 16.789-7.8672 37.715-13.594 56.41 0.16406 0.32031 0.28516 0.66016 0.36719 1.0117 4.0391 23.746 9.375 47.324 33.414 58.641h-0.003906c6.8047 3.2695 14.184 5.168 21.723 5.5781 30.945-4.7812 44.699-22.996 57.871-50.195zm-100.08-221.55c29.691-3.2891 61.406-3.1875 92.156-5.6797-52.688-1.5938-105.05-5.043-157.5-7.9688-33.637-0.96875-67.27 1.9727-100.23 8.7656-33.043 6.2734-65.25 16.34-95.984 30-23.438 10.621-36.562 20.242-37.445 19.023-0.375-0.53516 2.5977-3.3477 8.2305-7.9688 2.8672-2.2305 6.6953-4.7344 11.043-7.7539 4.4609-2.7109 9.5156-5.8984 15.355-8.9258h0.003906c30.57-15.699 63.258-26.879 97.043-33.188 10.145-1.9688 20.129-3.5625 29.793-4.7344-19.227-1.0586-38.512-2.0156-57.844-2.7109-0.36328 0.51562-0.85938 0.91797-1.4336 1.1719-76.117 37.184-167.26 61.773-219.84 132.74 7.082-0.625 14.191-0.875 21.301-0.75 43.18 1.875 86.363 2.2305 129.54 2.2305 19.07 0 38.137-0.10156 57.188-0.10156 13.152-12.762 27.918-23.742 43.922-32.672 0.375-23.68 14.184-50.297 35.43-58.688h-0.003907c3.9766-1.543 8.1367-2.5625 12.375-3.0273 38.547-8.8672 77.582-15.465 116.9-19.766zm-2.0156 124.69-38.617 0.16016c1.4531 15.078-1 30.277-7.1133 44.137 10.766-0.90625 21.461-2.5 32.023-4.7695 0.46094-0.074218 0.92578-0.09375 1.3867-0.058594 1.6211-8.5742 3.8164-17.027 6.5625-25.312 1.7539-4.668 3.668-9.3906 5.7383-14.125zm12.055 147.98c-16.203-11.023-27.254-28.133-30.645-47.438-5.3555 12.477-15.715 22.121-28.539 26.57 12.105 13.941 37.125 19.508 59.168 20.898zm-72.188-30.121c30.938-2.3359 39.141-35.477 45.516-66.871-7.9141 1.5938-15.824 2.8672-23.793 3.75-4.1445 23.043-14.344 47.211-39.992 52.586-35.164 7.4336-71.25 3.0742-106.88 1.875-88.332-3.0859-176.93-1.1172-265.11-7.5 0.27344 0.74219 0.58984 1.4922 0.85156 2.2305 12.91 10.312 44.773 2.8125 59.812 2.9258 37.5 0.32031 73.773 1.5391 111.17 4.4531 72.188 5.5781 146.86 6.168 215.91 6.168h0.003906c0.82422 0.027344 1.6445 0.16797 2.4375 0.41016zm5.6797-72.816h0.003906c6.7773-13.91 9.5156-29.441 7.9102-44.828-6.2617 0.054688-12.535 0.054688-18.797 0.10156 5.5234 14.559-4.1992 31.922-11.906 45.629 7.5859-0.074219 15.188-0.39453 22.727-0.87109zm-15.086 46.527 0.003907 0.003907c11.066-8.8438 18.148-21.727 19.688-35.805-26.129 2.0234-52.5 1.332-78.75 1.3867h-28.91c-1.0586 13.855-12.32 23.953-20.551 34.359-0.85156 1.2305-2.4492 1.6953-3.8242 1.1172-0.10156 0-0.21484 0.054688-0.32031 0.054688-18.488 0.32031-37.398 4.6875-55.508-1.0117-1.5703-0.42969-2.6836-1.8242-2.7578-3.4492-1.6133-0.41406-2.7578-1.8438-2.8125-3.5078v-27.59h-9.8828c-55.086-0.32031-110.96 0.63672-166.41-1.4336 0.078125 0.4375 0.078125 0.89062 0 1.332-1.1875 7.4453-4.7344 14.312-10.117 19.59-5.3867 5.2773-12.32 8.6875-19.789 9.7227-1.0352 0.40625-2.125 0.65625-3.2344 0.74219h-0.63672c-1.5391 0.27344-3.0273 0.47656-4.6211 0.63672 0.67188 0.77734 1.2969 1.5977 1.875 2.4492 16.043 1.2188 32.086 2.1211 48.121 2.7109v-24.07c0.019532-0.46094 0.070313-0.92187 0.16016-1.375-0.60547-1.2617-0.5625-2.7344 0.11328-3.957 0.67578-1.2227 1.9023-2.043 3.2891-2.2031 44.609-4.7773 89.668-3.2422 133.85 4.5664 0.52344 0.14063 1.0234 0.35547 1.4883 0.63672 1.6992 0.375 2.8672 1.9297 2.7578 3.6641-0.20703 8.4922 1.332 16.875 1.6484 25.387 9.1328 0.21484 18.273 0.42188 27.402 0.74219 35.27 1.1719 70.594 3.3477 105.86 4.0391 18.73 0.375 45.871 3.1328 61.809-8.707zm-2.6055-75.938h-49.875l0.003906 0.003907c0.52344 4.1719 0.83594 8.3711 0.9375 12.578 14.445 0 28.941 0.054688 43.445 0.27344 0.28906 0.023438 0.57422 0.074219 0.85156 0.16016 2.0312-4.1211 3.5703-8.4648 4.5742-12.949zm-214.96-10.555h214.86c-0.30078-1.3047-0.76562-2.5625-1.3867-3.75-0.14844-0.30859-0.24609-0.64062-0.28125-0.98438-73.453 0.32031-146.96 0.63672-220.43 0.32031-43.66-0.16016-87.695-3.9297-131.25-1.8008-20.926 1.0039-46.734 2.9727-63.102-12.113-0.20703 0-0.36719 0.054687-0.52344 0.054687-7.5 0.36719-13.387 0.26172-16.039 7.6953 31.082 15.191 75.09 10.945 108.84 10.84 36.383-0.10156 72.883-0.26172 109.31-0.26172zm162-18.168c27.094-1.9688 54.375-32.297 44.625-60.555-2.9961-9.2188-10.223-16.445-19.445-19.441 4.8594 5.0742 7.7266 11.73 8.0742 18.75 0.30469 14.691-5.4375 28.867-15.883 39.207-8.2617 10.18-20.641 16.137-33.75 16.246-0.77344-0.10156-1.5391-0.26172-2.2852-0.48047 5.2422 4.3086 11.883 6.5391 18.664 6.2734zm38.672 59.223c1.5938-2.8672 3.5625-6.1602 5.5234-9.6641-88.492-1.2188-177.14 1.1172-265.63 1.332-40.098 0.10156-80.09 0.79688-120.14-0.42969v-0.003906c-12.941 0.61719-25.887-1.1445-38.195-5.2031 0.45703 1.6484 1.0273 3.2656 1.6992 4.8359 3.9375 0.74219 7.9219 1.4336 11.906 1.9609 1.2578 0.13281 2.4805 0.49219 3.6094 1.0664 77.492 7.5938 156.8 5.5703 234.51 5.9453 41.477 0.16016 82.961 0.10156 124.5 0.054687 14.023-0.054687 28.152 0.20703 42.223 0.10547zm-13.809-111.33c2.1289-12.535-3.6641-27.73-17.531-28.312-6.4219 1.6445-12.23 5.1133-16.727 9.9844-11.418 13.008-17.477 29.863-16.949 47.164 1.5195 5.918 6.9648 9.9688 13.07 9.7227 9.1055-1.2188 17.461-5.6914 23.531-12.59 7.293-7.0508 12.367-16.074 14.605-25.969zm-41.586-89.445c48.227 2.6055 96.301 6 144.42 8.8672h-0.003907c-45.965-9.1953-92.832-13.082-139.69-11.578-0.34375-0.039062-0.67969-0.11328-1.0117-0.21484-0.14844 0.20313-0.32812 0.38281-0.53516 0.53125-1.0664 0.74219-2.125 1.5938-3.1875 2.3906zm12.691 182.88c-0.054688-4.1953-0.39844-8.3828-1.0312-12.535h-56.914c0 4.2461 0.10156 8.4922 0.32031 12.852 19.227-0.21094 38.398-0.31641 57.625-0.31641zm-65.867-38.832h44.672c-6.668-6.1719-10.871-14.551-11.844-23.586-11.668 6.7969-22.664 14.695-32.828 23.586zm29.43 67.828h-16.523c0.79688 7.8086 2.1289 15.516 2.9258 23.316 6.7656-6.2344 11.5-14.355 13.594-23.316zm-21.145 27.695c-0.47656-7.0117-1.5938-13.922-2.5508-20.879-14.422-1.3281-28.93-1.5391-43.387-0.63672v21.301c15.223 2.3008 30.695 2.375 45.938 0.21484zm-8.0156-56.363c-0.21484-4.3516-0.32031-8.7109-0.32031-12.898h-122.16c-39.195 0-78.664 0.10156-117.86-1.4922-14.555-0.26172-29.078-1.3984-43.5-3.4023 0.91406 6.5273 1 13.141 0.26562 19.688 20.41 1.3008 40.887 1.25 61.293-0.16016 37.023-0.52344 74.062-0.52344 111.12-0.68359s74.09-0.63672 111.17-1.0117zm-12.309-186.71c-3.4766-3.0117-8.0742-4.4062-12.637-3.8242-6.5625 0.63672-12.695 5.2578-12.375 10.039 8.6094-0.75 17.051-2.8477 25.012-6.2148zm-65.559 253.57c-0.32031-7.4336-1.3789-14.766-1.5938-22.152-42.418-7.2969-85.641-8.6914-128.44-4.1445v23.953c43.348 1.5469 86.633 1.5469 130.03 2.3438zm39.375-231.16c-24.113 3.75-49.773 4.1445-72.664 6.2617-37.66 3.4609-76.875 5.2109-113.44 15.676-0.58203 0.16016-1.2188 0.375-1.8008 0.53516 9.7109 4.1445 17.082 12.387 20.125 22.5 5.6914 16.949 2.8008 35.602-7.75 50.035-7.7109 11.387-19.336 19.539-32.664 22.906-13.332 3.3711-27.438 1.7188-39.629-4.6367-0.003906 0.31641-0.039063 0.62891-0.10156 0.9375 13.293 11.758 35.285 11.664 56.051 10.344 45.469-65.438 121.16-93.434 191.91-124.56zm-64.875 261.11-10.668-0.79688c-25.586-1.7734-51.242-2.2539-76.875-1.4336 20.828 16.895 66.777 19.66 87.543 2.2305zm-121.63-170.07c18.75-23.531 11.793-58.539-20.07-61.828-1.3867 0.53516-2.7109 1.1719-4.0391 1.7539l-0.003907-0.003906c3.2266 0.41016 6.3164 1.5547 9.0312 3.3477 17.102 12.113 14.289 39.148 4.1445 54.977h-0.003906c-5.9219 8.6875-14.293 15.418-24.055 19.332 13.711-0.31641 26.559-6.7695 34.996-17.578zm-19.07-3.8242c7.1172-11.102 13.012-30.43 3.9297-42.188-16.199-21.094-42.648 8.2305-44.773 25.445v-0.003906c-0.09375 0.71875-0.38672 1.3984-0.84375 1.9609-0.55859 6.3633 0.18359 12.777 2.1758 18.852 6.9531 19.508 31.02 9.3203 39.516-4.0703zm10.512 107.4c-4.6562-1.0078-9.3789-1.6992-14.129-2.0742 0.65234 6.2852 0.74219 12.613 0.27344 18.91 6.8008-3.3906 11.836-9.5117 13.855-16.836zm-24.273 20.184c3.0273-0.63672 2.5508-6 2.4922-8.3906 0-4.7812-0.47656-9.5625-0.47656-14.289-12.637-0.375-25.387 0.47656-38.137 0.47656-0.42188 6.5625-0.20703 13.219 0 19.855 9.375 0.75 18.637 2.3438 28.039 2.5508l0.003907 0.003906c2.6758 0.24219 5.3711 0.17188 8.0312-0.20703zm-33.57-49.688c0.75391-6.7266 0.52344-13.523-0.68359-20.184-7-1.5273-13.82-3.7891-20.344-6.75-0.51562 3.2656-0.71094 6.5742-0.58203 9.8789 0.089844 3.0938 0.33594 6.1797 0.74219 9.2461 6.293 4.0742 13.398 6.7266 20.82 7.7812z" fill="#617d88"/>
 <path class = "editable" d="m1094.6 586.31c7.9609 11.25 7.9141 20.398 7.0039 20.398-1.4805 0.32031-3.6094-7.4336-11.945-16.473v0.003907c-11.562-11.457-25.121-20.707-40.004-27.301-17.418-8.3359-33.992-14.551-45.992-19.332s-19.285-8.0703-18.91-9.2891 8.3438 0.046876 20.879 3.2891c16.512 4.2031 32.574 10.004 47.961 17.316 16.023 6.9648 30.098 17.742 41.008 31.387z" fill="#617d88"/>
 <path class = "editable" d="m1081.2 653.77c8.3906 25.547 13.172 65.008-3.2422 88.594-12.43 17.898-42.918 27.402-57.945 6.1602-20.504-29.109-19.172-80.578 0.375-109.53 20.707-30.648 50.395-10.828 60.812 14.773zm-20.98 95.289c27.777-18.066 22.145-66.188 13.273-93.168-5.5234-13.648-25.07-46.742-45.676-15 0.85156-0.32031 1.7539-0.63672 2.6523-0.9375 4.0859-1.4766 8.5312-1.6367 12.711-0.45703 4.1836 1.1758 7.8906 3.6289 10.605 7.0195 13.762 17.812 15.883 50.297 11.633 71.914-0.63672 3.1328-1.3789 6.375-2.2773 9.4492 0.09375 1.1016-0.29297 2.1914-1.0664 2.9844-2.4961 8.4727-8.2422 15.613-15.984 19.863-2.9492 1.375-6.2461 1.8359-9.4609 1.3242 3.8125 1.7773 8.0508 2.4414 12.227 1.9141 4.1758-0.53125 8.1133-2.2305 11.363-4.9062zm-1.8086-39.523c0.11328-2.6992 0.21484-5.5234 0.21484-8.3359-3.9609-0.91016-8-1.4258-12.059-1.5391-0.45312 1.2891-1.1172 2.4883-1.9688 3.5547 4.6875 5.2031 8.0234 11.531 12.328 17.055 0.82812-3.5273 1.3398-7.1211 1.5195-10.734zm0.16016-16.406h-0.003906c-0.21094-6.7812-0.99219-13.535-2.332-20.188-4.0391 3.9297-8.1836 7.6953-11.84 11.953h-0.003907c1.3867 2.0664 2.3242 4.3984 2.7578 6.8438 3.8398 0.12109 7.6602 0.58594 11.418 1.3906zm-4.9414-28.848c0.054687 0 0.16016-0.10156 0.21484-0.16016-2.8125-7.9141-11.102-20.445-19.922-18.43-0.074218 0.53516-0.27344 1.0469-0.58203 1.4883 0 0.03125-0.027343 0.058594-0.058593 0.058594 2.4922 10.652 3.9883 21.516 4.4648 32.445 0.14844 0.0625 0.29297 0.13281 0.42969 0.21484 4.7812-5.5781 10.406-10.301 15.449-15.617zm-2.0156 70.754h-0.003907c0.95313-1.8867 1.8047-3.8203 2.5508-5.7969-6.1602-6.4766-9.8828-14.867-16.098-21.348v0.003907c-1.1211 10.969-3.582 21.762-7.3281 32.137 3.2852 2.5977 7.5859 3.543 11.66 2.5586 4.0781-0.98047 7.4727-3.7812 9.2148-7.5938zm-16.098-36.066c3.5078 0.054688 4.5195-2.2305 4.0391-5.4766-0.26172-2.0156-1.875-6.3672-4.4609-6.4766-6.7422-0.20703-5.9453 10.52-0.42188 12.055h0.16016c0.26172 0 0.41797-0.10156 0.68359-0.10156zm-5.7266-19.07h-0.003906c-0.20312-7.3477-1.0195-14.668-2.4453-21.879-4.1133 8.7617-6.7344 18.148-7.7539 27.777 1.3203 0.10156 2.6523 0.21484 3.9844 0.21484 0.10156 0 0.16016 0.046875 0.26172 0.046875 1.1953-2.6914 3.3047-4.875 5.9531-6.1602zm-5.1016 54.02c3.1953-9.0781 5.4727-18.457 6.7969-27.992-4.4766-2.2578-7.1875-6.9531-6.9102-11.953-5.3047-0.054687-3.3477-0.11328-4.4609-0.21484l-0.003907-0.003907c-0.61328 6.5469-0.77344 13.125-0.47656 19.688 0.32031 5.9492 1.4453 11.828 3.3477 17.477 0.48047 1.0508 1.0547 2.0547 1.7148 3z" fill="#617d88"/>
 <path class = "editable" d="m700.41 666.47c0.15625 8.4492-0.15625 16.898-0.9375 25.312-0.47656 5.8984-0.9375 9.1953-1.5938 9.1953s-1.2734-3.3008-1.875-9.1406c-0.60156-5.8398-0.9375-14.551-1.875-24.852-0.55078-5.5117-1.4922-10.98-2.8125-16.359-0.9375-2.8125-1.875-6.2734-3.0195-8.8789-1.2734-2.8125-2.6055-5.8867-3.9844-8.9141-6.3438-12.867-16.562-23.418-29.223-30.168-12.969-6.0312-27.566-7.6211-41.531-4.5195-11.586 2.5664-22.523 7.4844-32.137 14.445-16.145 12.375-22.895 24.375-24.215 23.371-0.53516-0.375 0.79688-3.4023 3.6641-8.6641v0.003906c4.5352-7.3516 10.137-13.984 16.625-19.688 9.9492-8.3516 21.66-14.344 34.254-17.523 15.828-3.9883 32.551-2.375 47.324 4.5664 14.395 7.6016 25.879 19.738 32.672 34.527 1.3203 3.3945 2.6523 6.6953 3.9844 9.8711 1.1055 3.1289 2.0078 6.3242 2.7109 9.5625 1.1875 5.8828 1.8477 11.855 1.9688 17.852z" fill="#617d88"/>
 <path class = "editable" d="m653.66 674.8c10.312 30.066 13.445 78.75-12.32 103.12-23.27 22.039-48.555 10.359-61.031-16.152-0.054688-0.16016-0.054688-0.32031-0.10156-0.47656-0.046876-0.16016-0.21484-0.26172-0.27344-0.47656-12.797-35.371-10.312-81 18.543-107.66 18.637-17.234 48.441 1.832 55.184 21.645zm-4.6211 72.074h-0.003907c5.7305-20.574 5.5273-42.348-0.57812-62.812-4.9414-14.344-22.789-37.445-40.312-28.473 8.6367 3.1172 15.945 9.0977 20.707 16.949 0.80469 0.63281 1.3555 1.5352 1.5469 2.543 19.285 33.129 13.492 94.266-15.242 105.85 3.8867 0.62109 7.8711 0.14453 11.5-1.375 3.6328-1.5195 6.7656-4.0234 9.0508-7.2305 6.1953-7.4453 10.742-16.121 13.328-25.453zm-15.723-20.504c-0.375-0.007812-0.74609-0.042969-1.1172-0.10156-2.3945-0.71094-4.8477-1.2109-7.332-1.4922-0.40625 2.8438-1.6406 5.5039-3.5508 7.6484 3.0742 5.1016 5.8398 10.312 8.5508 15.617l-0.003906 0.003906c1.9766-7.0703 3.1367-14.344 3.4531-21.676zm0.054688-8.0156c-0.14062-11.297-2.3359-22.473-6.4766-32.98-2.5039 7.1172-4.2578 14.492-6.3281 21.723 2.1836 2.8516 3.6602 6.1836 4.3008 9.7188 2.8789 0.24609 5.7227 0.76172 8.5039 1.5391zm-7.2734 39.57c-0.054687-0.10156-0.16016-0.16016-0.21484-0.26172-3.6641-6.9102-7.1172-13.922-11.102-20.625-0.11328 0.070312-0.24219 0.10938-0.375 0.11328-1.0586 12.637-4.4062 24.852-6.5625 37.285 8.3594-2.2891 15.137-8.418 18.254-16.512zm-4.0391-81.695-0.003906 0.003906c-4.6016-7.8906-12.605-13.199-21.664-14.363-0.054687 0.046875-0.11328 0.16016-0.21484 0.20703 0.30469 0.39062 0.52344 0.84766 0.63672 1.332 3.4414 12.715 6.1016 25.629 7.9688 38.672 1.6133-0.19922 3.2539-0.089844 4.8281 0.31641 2.2539-8.8906 5.0781-17.633 8.4453-26.164zm-10.621 52.5c12.273-1.8008 3.1875-22.781-3.1875-18.43h-0.003906c-2.2461 2.7734-3.2578 6.3438-2.793 9.8789 0.46094 3.5352 2.3555 6.7266 5.2383 8.8242 0.23438-0.11328 0.48438-0.19531 0.74219-0.24219zm-4.8828 7.125-0.003906 0.003906c-0.74219-0.44922-1.4531-0.94922-2.1289-1.4922-2.9727 10.207-7.2969 19.969-12.863 29.027-0.16797 0.26562-0.38672 0.5-0.63672 0.69141 2.5547 3.6211 5.6094 6.8594 9.0742 9.6211 2.0352-12.648 5.625-25.023 6.5625-37.773zm-5.8398-29.531c0.20703-0.21484 0.36719-0.47656 0.58203-0.75l-0.007812 0.003906c-1.5039-12.051-3.8672-23.977-7.0664-35.691-5.1758 7.043-8.8594 15.062-10.828 23.578-0.42969 2.2891-0.79688 4.6211-1.1172 6.9648 6.3828 1.1445 12.578 3.1367 18.43 5.9258zm-2.1328 20.234h0.53516-0.003906c-1.5664-4.0547-2.082-8.4414-1.4883-12.75-5.1367-2.5547-10.609-4.3594-16.258-5.3633-0.625 7.8047-0.53125 15.652 0.27344 23.438 5.625-1.8477 11.305-3.4492 16.941-5.3242zm-2.9727 9.3008-12.91 3.9844c0.94531 5.4336 2.2773 10.793 3.9844 16.039 3.6289-6.3711 6.6172-13.09 8.9258-20.051z" fill="#617d88"/>
</svg>
