<?xml version="1.0" encoding="UTF-8"?>
<svg width="1200pt" height="1200pt" version="1.1" viewBox="0 0 1200 1200" xmlns="http://www.w3.org/2000/svg">
 <path class = "editable" d="m380.63 1140c-10.688 0-63.141-28.5-85.172-40.734l-1.5938-1.2656c-21.891-24.328-41.109-78.188-51.422-107.11-8.2031-22.875-13.547-46.125-17.859-64.781-1.8281-7.8281-3.4688-15.047-5.1562-21.375-5.8125-22.219-9.3281-49.031-9.3281-62.062 0-5.6719 0.65625-17.016 1.4062-30.141 0.9375-16.406 2.0156-34.969 2.0156-46.359 0-19.828-8.9531-75-9.0469-75.562-0.46875-2.4375-11.484-63.047-12.609-74.625-1.1719-11.719-1.1719-35.859-1.1719-47.438l-0.046875-3.4688c-0.23438-13.547-0.70312-41.719 15.094-97.547 17.812-63 75.938-134.21 109.73-157.55 27.938-19.266 82.781-35.766 102.28-41.25-3.0469-7.2188-6.1406-16.969-4.125-23.062 2.8594-8.5312 11.203-8.5312 81.141 11.578 9.3281 2.6719 17.297 4.9688 22.078 6.1406 2.4844 0.60938 4.5 1.0312 6.0938 1.3125-0.60938-0.60938-1.2188-1.2188-1.875-1.7812-5.625-3-49.547-26.438-64.359-33.844-1.0312-0.51562-100.22-58.031-94.5-78.984 2.0625-7.5938 6.1406-10.594 9.1875-11.766 6.2344-2.4375 11.859 0.9375 12.516 1.3594l123.61 69.75c-1.0312-16.641-2.7656-46.922-2.7656-57.703 0-13.359 1.6406-58.359 22.781-75.516 14.625-11.859 33.328-16.266 40.875-9.5625 2.7656 2.4375 4.7344 7.2656 1.2188 12.891-2.7656 4.4062-4.125 14.766-5.4844 25.734-1.0312 7.7344-2.1562 16.547-3.9844 24.891-0.75 3.4219-1.6875 6.7969-2.625 10.172-4.5 16.312-8.7188 31.734 5.5781 61.266 8.8125 18.188 15.656 22.5 18.938 23.438 3.2344 0.89062 5.8125-0.42188 8.8594-2.3438-0.32812-3.8906-4.875-13.875-8.0156-20.672-1.5938-3.375-3.1406-6.8438-4.5938-10.219-7.4062-17.25-6.2812-51.609-2.6719-69.797 1.1719-5.9062 1.8281-12.141 2.4375-18.188 1.1719-11.297 2.3438-23.016 7.1719-33.422 3.0938-6.6562 6.9844-9.5625 11.578-8.4844 6.8438 1.5 10.312 12.141 10.312 31.594 0 9.3281 12.844 34.359 24.234 56.391 4.7812 9.2812 9.6562 18.75 14.016 27.75 10.359 21.422 20.953 39.188 28.078 49.266-0.42188-2.1562-0.89063-4.3594-1.3594-6.4219-4.875-22.734-12.234-57.141-1.2188-82.594 16.031-36.984 70.688-72.938 85.219-76.594 15.188-3.7969 29.484 0.60938 37.266 11.531 6.0938 8.5312 16.031 34.266 14.812 76.781-1.3125 46.031-41.25 99.281-45.797 105.19-6.9844 9.0938-15.562 13.359-21.281 16.172-0.5625 0.28125-1.1719 0.60938-1.7812 0.89062 9.6094 2.625 32.203 4.3594 46.875 1.7812 17.859-3.1406 72.422-31.734 94.547-48 18.938-13.969 67.875-34.078 80.906-31.641 3.1875 0.60938 4.7812 2.3438 5.625 3.7031 1.0781 1.8281 2.0625 4.875 0.60937 9.1875-3.2344 9.6562-17.484 21.844-27.562 25.875-4.2188 1.6875-13.922 18.562-21 30.844-8.3438 14.531-16.969 29.531-25.828 39.469-22.266 25.031-79.312 23.25-90.562 22.594l-3.1406-0.1875c-5.5312-0.32812-13.781-0.79688-19.031-0.46875 1.0781 0.89062 2.4375 2.0156 4.3125 3.3281 21.047 15.047 85.359 11.906 103.03 6.0469 16.969-5.6719 51.656-11.719 76.172-11.719 21.188 0 38.531-7.4062 38.672-7.5l6.4688-2.8125 1.8281 6.75c0.60937 2.2031 14.344 54.234-15.562 80.391-22.781 19.969-49.875 9.5625-71.578 1.2188-7.4531-2.8594-14.438-5.5312-20.344-6.7031-15.281-2.9062-44.672-1.9219-62.812-0.9375 18.047 14.484 51 40.969 63.188 50.719 17.859 14.297 33.141 35.438 46.922 56.203 17.906 26.859 25.922 51.656 23.812 73.641-0.75 8.0625-1.7812 20.859-2.9531 35.297-2.25 28.266-5.0625 63.469-7.3594 80.297-3.0938 22.641-16.219 43.688-30.094 66-2.3906 3.8438-4.8281 7.7812-7.2656 11.719-16.359 26.859-52.312 64.078-73.594 79.406-21.516 15.562-43.875 33.609-64.594 52.125-12.469 11.156-33.656 25.172-52.312 37.547-14.297 9.4688-27.797 18.422-34.547 24.188-16.219 13.922-123.32 94.828-159.19 120.28-40.453 28.688-77.297 44.531-98.953 42.188-12-1.2656-28.453 5.2969-41.719 10.594-9.6094 3.7969-16.5 6.5625-21.609 6.5625zm-78.375-50.859c33.75 18.703 72.094 38.203 78.469 38.672 2.625 0 10.266-3.0469 16.969-5.7188 14.531-5.7656 32.484-12.984 47.531-11.391 18.281 1.9219 53.109-13.406 90.609-40.031 34.688-24.609 142.69-106.17 158.29-119.58 7.3125-6.2812 20.484-15 35.766-25.078 18.328-12.141 39.094-25.922 50.953-36.469 21.047-18.844 43.734-37.125 65.578-52.922 19.922-14.344 54.938-50.672 70.312-75.891 2.4375-3.9844 4.875-7.9219 7.3125-11.859 13.172-21.188 25.641-41.156 28.406-61.172 2.25-16.5 5.0625-51.516 7.3125-79.641 1.1719-14.484 2.2031-27.375 2.9531-35.438 2.25-23.812-10.641-48.891-21.844-65.719-13.266-19.922-27.844-40.172-44.438-53.438-17.156-13.688-75.375-60.562-75.375-60.562l-11.906-9.5625 15.234-1.2188c2.2969-0.1875 57.047-4.5938 81.562 0.09375 6.9844 1.3125 14.484 4.2188 22.453 7.2656 20.625 7.9219 41.906 16.125 59.203 0.98438 18.75-16.406 15.656-47.906 13.219-61.547-7.7344 2.5312-21.141 5.9531-36.609 5.9531-23.016 0-56.578 5.8594-72.328 11.109-18.047 6.0469-87.469 11.25-113.95-7.6875-7.5938-5.4375-14.25-11.391-11.859-18.234 2.9531-8.4375 16.078-7.7344 34.312-6.6562l3.0938 0.1875c28.312 1.5 66.375-2.3438 80.766-18.516 8.0156-9 16.688-24.141 24.375-37.453 12.047-21 19.266-33 27-36.094 7.125-2.8594 15.047-10.219 18.656-15.141-13.828 2.6719-48.891 16.125-66.469 29.062-21.375 15.75-78.703 46.5-99.609 50.203-17.062 3.0469-51.844 1.4531-60.891-6.1406-2.9062-2.4375-3.3281-5.25-3.3281-6.7031 0-6.9375 6.1875-10.031 11.625-12.75 5.25-2.625 11.766-5.8125 17.016-12.703 4.3125-5.5781 42.094-55.875 43.266-98.109 1.1719-40.828-8.6719-63.938-12.562-69.375-3.75-5.2969-12.188-9.8438-24.422-6.75-12.281 3.0469-62.906 37.172-76.969 69.609-9.4688 21.844-2.625 53.953 1.9219 75.188 2.6719 12.562 3.9375 18.797 3 23.062-0.9375 4.3125-4.0781 6.1875-6.7031 6.4688-13.031 1.4531-36.281-44.672-45.844-64.547-4.3125-8.9531-9.1406-18.281-13.875-27.469-13.734-26.625-25.594-49.641-25.594-61.969 0-4.7344-0.32812-9-0.79688-12.422-2.25 7.2656-3.0938 15.469-3.9844 24-0.65625 6.3281-1.3125 12.844-2.625 19.312-3.3281 16.547-4.1719 48.422 1.9219 62.625 1.4062 3.2812 2.9531 6.6094 4.4531 9.9375 7.6406 16.688 13.688 29.859 4.5 35.391-4.4531 2.7656-11.109 6.8906-19.781 4.4062-9.4219-2.7188-18.094-12.469-26.531-29.812-16.312-33.609-11.016-52.828-6.3281-69.797 0.84375-3.1406 1.7344-6.3281 2.4375-9.5625 1.7344-7.8281 2.8125-15.938 3.7969-23.812 1.4531-11.344 2.7656-21.328 5.9062-28.125-4.5938 0.14062-13.547 2.5312-22.781 9.9844-13.5 10.969-18.328 42.469-18.328 66.094 0 14.484 3.375 67.594 3.4219 68.109l0.70312 11.203-143.39-80.906c-0.70312-0.375-1.5938-0.51562-1.8281-0.46875-0.28125 0.09375-1.125 0.98438-1.8281 3.6562 2.625 9.9375 69.188 55.406 88.219 64.922 15.891 7.9219 64.734 34.078 65.25 34.359l1.0312 0.70312c6.0938 5.1094 12.656 12.562 9.2812 19.078-3.4688 6.8906-13.5 5.4844-23.812 2.9062-4.8281-1.2188-12.938-3.5156-22.5-6.2812-18.188-5.25-54.141-15.562-66.094-16.5 0.75 4.1719 3.2812 11.297 6.4219 17.578l3.3281 6.7031-7.2656 1.875c-0.75 0.1875-73.594 19.406-105.42 41.391-31.547 21.75-88.125 91.312-104.95 150.84-15.281 54.094-14.859 81.094-14.672 94.031l0.046875 3.6562c0 11.391 0 35.109 1.125 46.219 1.125 11.062 12.375 73.125 12.516 73.734 0.375 2.3906 9.2344 56.812 9.2344 77.625 0 11.719-1.0781 30.469-2.0156 47.062-0.70312 12.422-1.4062 24.141-1.4062 29.438 0 12.047 3.4219 38.016 8.9062 58.969 1.6875 6.4219 3.375 13.781 5.25 21.75 4.4531 19.312 9.5156 41.156 17.484 63.422 9.9375 27.844 28.359 79.359 48.375 102.28zm289.97-867.24-0.046875 0.046875z"/>
 <path class = "editable" d="m821.81 393.37c-29.297-24.047-93.703-64.031-102.94-69.375-9.5156-5.5312-51.797-11.859-86.672-15.047-27.422-2.4844-60.797-4.875-75.516-1.3594-13.641 3.2344-19.312-3.0938-28.031-12.75-1.7344-1.9219-3.6094-4.0312-5.7188-6.2344-9.4688-9.9375-24.938-11.062-42.797-12.328-4.0312-0.28125-8.2031-0.60938-12.422-0.98438-22.453-2.2031-38.016 2.6719-38.203 2.7188l-1.8281-5.8125c0.65625-0.23438 16.875-5.2969 40.641-3 4.1719 0.42188 8.25 0.70312 12.281 0.98438 19.125 1.3594 35.625 2.5781 46.734 14.203 2.1562 2.25 4.0781 4.4062 5.8594 6.375 8.25 9.1406 11.953 13.359 22.078 10.922 15.609-3.75 49.594-1.3125 77.531 1.2188 25.359 2.2969 76.688 8.5781 89.203 15.797 9.3281 5.4375 74.156 45.703 103.78 69.938l-3.8438 4.6875z"/>
 <path class = "editable" d="m557.76 339.14c-1.1719 0-1.9688-0.28125-2.625-0.65625l-2.2031-1.3594 0.98438-2.3906c2.3906-5.7656 10.875-24.609 19.922-24.609 3.3281 0 4.9219 1.7812 5.5781 2.8594 2.9062 4.6406-0.79688 13.172-2.0156 15.656l-0.9375 1.125c-9.8906 7.2656-15.562 9.3281-18.797 9.3281zm16.594-22.875c-3.0938 0-8.2969 7.4062-12.328 15.516 2.25-1.0781 5.5781-3 10.359-6.4219 1.8281-4.0781 2.625-8.2031 2.0156-9.0938z"/>
 <path class = "editable" d="m475.64 397.4c-0.89062 0-1.7344-0.1875-2.4375-0.5625-2.2969-1.1719-3.8906-3.75-4.2188-6.8438-0.28125-2.6719 0.046875-9.7031 9.2344-17.062 4.2656-3.375 8.2969-4.6406 12.094-3.7031 5.3438 1.3125 7.7344 6.4219 7.9688 6.9844l0.65625 1.4531-0.79688 1.3594c-5.5781 9.2812-15.938 18.375-22.5 18.375zm12.234-22.359c-2.0625 0-4.2656 1.3594-5.8594 2.6719-7.0781 5.625-7.1719 10.359-7.0312 11.672s0.65625 1.9219 0.89062 2.0625h0.09375c1.9688 0 10.172-5.25 15.984-14.016-0.65625-0.89062-1.7344-1.9219-3.1406-2.25-0.32812-0.09375-0.65625-0.09375-0.9375-0.09375z"/>
 <path class = "editable" d="m399.84 427.97c-1.5938 0-3.0938-0.1875-4.3125-0.42188l-1.2188-0.60938c-7.9219-6.2344 3.1875-20.531 9.1406-28.172l1.0312-1.3594c2.7656-3.5625 7.1719-4.8281 10.781-3.0469 1.875 0.9375 7.6406 4.9688 3.9844 18.562-3.2344 11.953-12.562 15.047-19.406 15.047zm-2.1094-6.2344c3.1875 0.42188 12.656 0.65625 15.656-10.406 1.8281-6.75 0.84375-10.688-0.84375-11.531-0.9375-0.51562-2.2969 0.046875-3.2344 1.3125l-1.0781 1.3594c-10.547 13.547-11.156 17.859-10.5 19.219z"/>
 <path class = "editable" d="m485.29 463.36-1.0781-0.60938c-5.6719-3.1406-7.5938-10.594-5.1562-19.922 1.9219-7.4531 6.6562-15.469 12.375-15.469 4.1719 0 6.5156 1.9219 7.7344 3.5625 2.7656 3.6094 3.0469 9.6094 0.89062 17.391-3.2812 11.812-13.172 14.578-13.594 14.672l-1.1719 0.32812zm6.0938-29.906c-1.2188 0.09375-5.0156 4.5469-6.6562 11.719-0.9375 4.1719-1.0312 9.1406 1.4062 11.531 2.1094-0.98438 6.3281-3.7031 8.0625-9.9375 1.5938-5.625 1.6406-10.172 0.14062-12.094-0.375-0.51562-1.125-1.1719-2.9062-1.1719z"/>
 <path class = "editable" d="m561.24 406.82c-1.5 0-2.9062-0.42188-4.2188-1.3125-3.1875-2.25-4.6406-6.0469-4.0781-10.641 0.98438-7.875 7.6875-16.969 14.297-19.5 3.5156-1.3594 6.8906-0.89062 9.4688 1.3594 6 5.2031 3.1875 14.578-2.25 21.562-3.7031 4.6875-8.7656 8.5312-13.266 8.5312zm-0.70312-6.2812c1.2188 0.84375 5.2969-0.98438 9.1875-5.9531 3.6094-4.5938 5.9062-10.781 3.0938-13.219-0.60938-0.51562-1.5469-0.98438-3.2812-0.28125-4.5938 1.7344-9.75 8.9531-10.453 14.578-0.28125 2.3438 0.23438 3.9844 1.5469 4.9219z"/>
 <path class = "editable" d="m620.29 432.37c-2.0625 0-3.8906-0.65625-5.3438-2.0156-5.7188-5.2969-1.9688-15.984 4.4062-23.391 6.3281-7.2656 13.359-9.2344 18.375-5.2031 2.8125 2.2969 3.9375 5.8125 3.1875 9.9375-1.4062 7.8281-9.75 17.578-17.156 20.062-1.2188 0.42188-2.3906 0.60938-3.5156 0.60938zm11.672-26.531c-2.7188 0-6.0938 2.9531-7.9688 5.1562-4.7344 5.4375-7.1719 12.844-4.875 14.953 0.5625 0.51562 1.5 0.5625 2.8125 0.09375 5.3438-1.7812 12.047-9.6562 13.078-15.328 0.51562-2.8594-0.65625-3.8438-1.0312-4.125-0.60938-0.46875-1.2656-0.70312-1.9688-0.70312z"/>
 <path class = "editable" d="m533.76 522.74c-0.84375 0-1.7344-0.14063-2.5312-0.46875-7.3125-2.625-8.0625-13.969-5.0156-23.297 2.9531-9.1875 8.7188-13.734 14.906-11.906 3.4688 1.0312 5.9062 3.8438 6.7969 7.9219 1.7344 7.7812-2.1094 19.969-7.9688 25.125-1.9219 1.7344-4.0781 2.625-6.1875 2.625zm-0.46875-6.1406c0.65625 0.23438 1.5938-0.09375 2.625-0.98437 4.2188-3.7031 7.3125-13.594 6.0469-19.219-0.65625-2.8594-2.1094-3.2812-2.5781-3.4219-3.5625-1.0312-6.3281 4.5469-7.4062 7.9688-2.4375 7.5469-1.3125 14.766 1.3125 15.703z"/>
 <path class = "editable" d="m648.56 527.34c-0.84375 0-1.7344-0.14062-2.5312-0.46875-7.3125-2.625-8.0625-13.922-5.0156-23.25 2.9531-9.1875 8.7188-13.781 14.906-11.953 3.4688 0.98438 5.9062 3.7969 6.7969 7.9219 1.7344 7.7812-2.1094 19.969-7.9688 25.125-1.9688 1.7344-4.0781 2.625-6.1875 2.625zm4.7812-29.953c-3.0938 0-5.5781 4.9219-6.6094 8.1094-2.4375 7.5469-1.2656 14.719 1.3125 15.656 0.65625 0.28125 1.5938-0.09375 2.625-0.98438 4.2188-3.7031 7.3125-13.641 6.0469-19.219-0.65625-2.8594-2.1094-3.2344-2.5781-3.375-0.28125-0.09375-0.5625-0.14062-0.84375-0.14062z"/>
 <path class = "editable" d="m585.84 574.45c-0.46875 0-0.89062-0.046875-1.3594-0.14062-7.6406-1.3594-10.266-12.422-8.8594-22.078 1.4062-9.5156 6.2344-15.141 12.75-14.297 3.6094 0.42188 6.4688 2.7656 8.0156 6.7031 3 7.3594 1.2188 20.062-3.6562 26.109-1.9688 2.4375-4.3594 3.7031-6.8906 3.7031zm-0.23438-6.0938c0.70312 0.09375 1.5469-0.32812 2.4375-1.4062 3.5156-4.3594 4.9688-14.625 2.7656-19.969-1.125-2.7188-2.625-2.8594-3.0938-2.9531h-0.375c-3.375 0-5.1562 5.6719-5.6719 9.1406-1.1719 7.8281 1.1719 14.719 3.8906 15.234z"/>
 <path class = "editable" d="m692.06 596.72c-0.46875 0-0.89062-0.046875-1.3594-0.14062-7.6406-1.3594-10.266-12.422-8.8594-22.078 1.4062-9.5625 6.4688-15.047 12.703-14.297 3.6094 0.42188 6.4688 2.7656 8.0156 6.7031 3.0469 7.3594 1.2188 20.062-3.6562 26.109-1.9688 2.4375-4.3594 3.7031-6.8906 3.7031zm-0.23438-6.0938c0.70312 0.09375 1.5469-0.32812 2.4375-1.4062 3.5156-4.3594 4.9688-14.625 2.7656-19.969-1.125-2.7188-2.625-2.8594-3.0938-2.9531h-0.375c-3.375 0-5.1562 5.6719-5.625 9.1406-1.1719 7.8281 1.1719 14.719 3.8906 15.234z"/>
 <path class = "editable" d="m614.26 657.84c-1.125 0-2.25-0.28125-3.3281-0.75-6.9844-3.4219-6.4219-14.766-2.3906-23.672 3.9844-8.8125 10.266-12.703 16.172-10.219 3.3281 1.4062 5.4375 4.4531 5.8594 8.625 0.84375 7.9219-4.3594 19.594-10.734 24.094-1.8281 1.3125-3.75 1.9219-5.5781 1.9219zm-0.65625-6.2344c0.70313 0.375 1.5938 0.09375 2.7188-0.70312 4.5938-3.1875 8.8125-12.703 8.2031-18.422-0.32813-2.9062-1.6875-3.4688-2.1562-3.6562-3.3281-1.3125-6.7969 3.7969-8.2969 7.125-3 6.5625-3.1875 14.344-0.46875 15.703z"/>
 <path class = "editable" d="m640.97 734.44c-0.51562 0-0.98438-0.046875-1.5-0.14062-7.6406-1.5469-9.9844-12.656-8.3438-22.312 1.6406-9.5156 6.6562-14.812 13.031-13.969 3.5625 0.51562 6.375 2.9531 7.875 6.8438 2.8594 7.4062 0.75 20.109-4.2656 26.016-1.9688 2.3438-4.3594 3.5625-6.7969 3.5625zm-0.28125-6.0938c0.75 0.1875 1.5938-0.32812 2.4375-1.3594 3.6562-4.2656 5.2969-14.531 3.2344-19.922-1.0312-2.7188-2.5312-2.9531-3.0469-3-3.5625-0.60938-5.625 5.3906-6.2344 8.9531-1.3125 7.8281 0.84375 14.766 3.5625 15.328z"/>
 <path class = "editable" d="m727.82 756.94c-1.3125 0-2.5781-0.32812-3.75-0.98438-6.75-3.8438-5.5312-15.141-0.98438-23.766 4.5-8.5312 10.969-12.094 16.734-9.1875 3.2344 1.5938 5.1562 4.7812 5.3438 8.9531 0.375 7.9219-5.5312 19.312-12.188 23.391-1.7812 1.0781-3.5625 1.6406-5.25 1.6406zm-0.70312-6.2344c0.65625 0.375 1.5938 0.1875 2.7656-0.5625 4.7812-2.9531 9.5625-12.141 9.2812-17.906-0.14062-2.9062-1.5-3.5625-1.9219-3.7969-3.2812-1.5938-7.0312 3.375-8.7188 6.6094-3.375 6.375-4.0781 14.109-1.4062 15.656z"/>
 <path class = "editable" d="m792.94 728.95c-1.3125 0-2.5781-0.32812-3.75-0.98438-6.75-3.8438-5.5312-15.094-0.98438-23.766 4.5-8.5781 10.922-12.094 16.734-9.2344 3.2344 1.5938 5.1562 4.7812 5.3438 8.9531 0.375 7.9219-5.5312 19.312-12.188 23.391-1.7812 1.0781-3.5156 1.6406-5.2031 1.6406zm8.0625-28.781c-2.9062 0-5.9062 4.125-7.3594 6.8906-3.7031 6.9844-3.7969 14.25-1.4062 15.609 0.65625 0.375 1.5938 0.1875 2.7656-0.51562 4.7812-2.9531 9.5625-12.141 9.2812-17.906-0.14062-2.9062-1.5-3.5625-1.9219-3.7969s-0.89062-0.32812-1.3125-0.32812z"/>
 <path class = "editable" d="m869.48 694.74c-0.84375 0-1.7344-0.14062-2.5781-0.46875-7.3125-2.6719-7.9688-13.969-4.9219-23.297 3.0469-9.1406 8.7656-13.688 14.953-11.906 3.4688 1.0312 5.8594 3.8438 6.75 7.9219 1.7344 7.7812-2.2031 19.969-8.1094 25.078-1.9219 1.7344-4.0781 2.5781-6.1406 2.5781zm4.875-29.906c-3.0938 0-5.5781 4.9219-6.6562 8.0625-2.4844 7.5469-1.3594 14.719 1.2656 15.656 0.70312 0.28125 1.5938-0.09375 2.625-0.98438 4.2188-3.7031 7.4062-13.594 6.1406-19.219-0.60938-2.8594-2.0625-3.2812-2.5312-3.4219-0.28125-0.09375-0.60938-0.14062-0.84375-0.14062z"/>
 <path class = "editable" d="m660.42 847.6c-2.8125 0-5.1562-1.0781-6.6562-3.0469-4.6875-6.1875 0.79688-16.078 8.3906-22.219 7.5-6.1406 14.812-6.8438 19.031-1.9688 2.3906 2.7188 2.8594 6.4219 1.4062 10.359-2.7656 7.4531-12.656 15.609-20.344 16.781-0.60938 0.09375-1.2188 0.14062-1.8281 0.14062zm13.594-24.375c-2.625 0-6 2.1094-8.0625 3.75-6.1406 4.9688-9.0469 11.625-7.4062 13.828 0.46875 0.60938 1.3125 0.79688 2.7656 0.60938 5.5312-0.84375 13.547-7.4531 15.516-12.844 1.0312-2.7188 0.046875-3.8906-0.28125-4.2656-0.65625-0.75-1.5938-1.0781-2.5781-1.0781z"/>
 <path class = "editable" d="m549.84 708.89c-0.98438 0-1.9219-0.1875-2.8594-0.5625-7.1719-2.9531-7.4062-14.297-3.9375-23.438 3.375-9.0469 9.375-13.406 15.469-11.25 3.4219 1.1719 5.7188 4.0781 6.4219 8.2031 1.3594 7.8281-3.0469 19.875-9.1406 24.75-1.9219 1.5469-3.9844 2.3438-5.9531 2.3438zm5.7188-29.672c-3.0469 0-5.6719 4.7344-6.8438 7.8281-2.7656 7.4062-1.9219 14.625 0.60938 15.703 0.65625 0.28125 1.5938 0 2.6719-0.89062 4.3594-3.5156 7.9219-13.266 6.9375-18.938-0.51562-2.8594-1.9219-3.375-2.3906-3.5156-0.32812-0.09375-0.65625-0.14062-0.9375-0.14062z"/>
 <path class = "editable" d="m564.71 783.14c-0.98438 0-1.9219-0.1875-2.8594-0.5625-7.1719-2.9531-7.4062-14.297-3.9375-23.484 3.375-9.0469 9.2344-13.406 15.469-11.25 3.4219 1.1719 5.7188 4.0781 6.4219 8.2031 1.3594 7.8281-3.0469 19.875-9.1406 24.75-1.9219 1.5469-3.9375 2.3438-5.9531 2.3438zm5.6719-29.719c-3.0469 0-5.6719 4.7344-6.7969 7.7812-2.8125 7.4062-1.9688 14.672 0.60938 15.703 0.65625 0.28125 1.5938 0 2.6719-0.84375 4.3594-3.5156 7.9219-13.266 6.9375-18.938-0.51562-2.8594-1.9219-3.3281-2.3906-3.5156-0.32812-0.09375-0.65625-0.14062-0.98438-0.14062z"/>
 <path class = "editable" d="m593.21 849.94c-0.98438 0-1.9219-0.1875-2.8594-0.5625-7.1719-2.9531-7.4062-14.297-3.9375-23.438 3.375-9.0469 9.375-13.359 15.469-11.25 3.4219 1.1719 5.7188 4.0781 6.4219 8.2031 1.3594 7.8281-3.0469 19.875-9.1406 24.75-1.9219 1.5469-3.9844 2.3438-5.9531 2.3438zm5.7188-29.672c-3.0469 0-5.6719 4.7344-6.8438 7.8281-2.7656 7.4062-1.9219 14.625 0.60938 15.703 0.65625 0.28125 1.5938 0 2.6719-0.89062 4.3594-3.5156 7.9219-13.266 6.9375-18.938-0.51562-2.8594-1.9219-3.375-2.3906-3.5156-0.32812-0.09375-0.65625-0.14062-0.9375-0.14062z"/>
 <path class = "editable" d="m597.94 925.69c-0.9375 0-1.8281-0.1875-2.7188-0.5625-6.75-2.8125-6.9844-13.359-3.75-21.891 3.1875-8.4375 8.8125-12.469 14.531-10.5 3.2344 1.125 5.3906 3.8438 6.0938 7.7344 1.2656 7.2656-2.8594 18.422-8.4844 22.969-1.8281 1.4531-3.75 2.2031-5.625 2.2031zm-0.375-6.1406c0.46875 0.23438 1.2656-0.046875 2.2031-0.75 3.9844-3.1875 7.2188-12 6.2812-17.156-0.42188-2.4844-1.6406-2.9062-2.0625-3.0469-3.0938-1.0781-5.7188 3.8438-6.8438 6.8906-2.5312 6.7031-1.8281 13.219 0.375 14.109z"/>
 <path class = "editable" d="m547.36 989.72c-0.89062 0-1.7344-0.1875-2.5781-0.46875-6.7969-2.6719-7.2656-13.219-4.2188-21.797 3-8.5312 8.4844-12.609 14.297-10.781 3.2344 1.0312 5.4844 3.75 6.2344 7.5938 1.4531 7.2656-2.4375 18.516-7.9688 23.156-1.8281 1.5469-3.7969 2.3438-5.7188 2.3438zm-0.42188-6.1406c0.51562 0.23438 1.3125-0.046875 2.2031-0.79688 3.8906-3.2812 6.9375-12.188 5.9062-17.297-0.46875-2.4844-1.6875-2.8594-2.1094-3-3.0469-0.98438-5.625 3.9375-6.7031 7.0312-2.3906 6.75-1.5469 13.219 0.70312 14.109z"/>
 <path class = "editable" d="m504.14 843.1c-0.98438 0-1.9219-0.1875-2.8594-0.5625-7.1719-2.9531-7.4062-14.297-3.9375-23.484 3.375-9.0469 9.2344-13.406 15.469-11.25 3.4219 1.1719 5.6719 4.0781 6.4219 8.2031 1.3594 7.8281-3.0469 19.875-9.1406 24.75-1.9219 1.5469-3.9375 2.3438-5.9531 2.3438zm5.7188-29.672c-3.0469 0-5.6719 4.7344-6.8438 7.7812-2.8125 7.4062-1.9688 14.625 0.60938 15.703 0.70312 0.28125 1.5938 0 2.6719-0.84375 4.3594-3.5156 7.9219-13.266 6.9375-18.938-0.51562-2.8594-1.9219-3.3281-2.3906-3.5156-0.32812-0.09375-0.65625-0.14062-0.9375-0.14062z"/>
 <path class = "editable" d="m480.74 764.86c-0.98438 0-1.9219-0.1875-2.8594-0.5625-7.1719-2.9531-7.4062-14.297-3.9375-23.438 3.375-9.0469 9.375-13.406 15.469-11.25 3.4219 1.1719 5.7188 4.0781 6.4219 8.2031 1.3594 7.8281-3.0469 19.875-9.1406 24.75-1.9219 1.5469-3.9844 2.3438-5.9531 2.3438zm5.7188-29.672c-3.0469 0-5.6719 4.7344-6.8438 7.8281-2.7656 7.4062-1.9219 14.625 0.60937 15.703 0.65625 0.28125 1.5938 0.046875 2.6719-0.89062 4.3594-3.5156 7.9219-13.266 6.9375-18.938-0.51563-2.8594-1.9219-3.375-2.3906-3.5156-0.32812-0.09375-0.65625-0.14062-0.9375-0.14062z"/>
 <path class = "editable" d="m440.76 690.05c-0.98438 0-1.9219-0.1875-2.8594-0.5625-7.1719-2.9531-7.4062-14.297-3.9375-23.438 3.375-9.0469 9.375-13.406 15.469-11.25 3.4219 1.1719 5.7188 4.0781 6.4219 8.2031 1.3594 7.8281-3.0469 19.875-9.1406 24.75-1.9219 1.5469-3.9844 2.3438-5.9531 2.3438zm5.7188-29.672c-3.0469 0-5.6719 4.7344-6.8438 7.8281-2.7656 7.4062-1.9219 14.625 0.60938 15.703 0.65625 0.28125 1.5938 0 2.6719-0.89062 4.3594-3.5156 7.9219-13.266 6.9375-18.938-0.51562-2.8594-1.9219-3.375-2.3906-3.5156-0.32812-0.09375-0.65625-0.14062-0.9375-0.14062z"/>
 <path class = "editable" d="m394.22 622.4c-0.98438 0-1.9219-0.1875-2.8594-0.5625-7.1719-2.9531-7.4062-14.297-3.9375-23.438 3.375-9.0469 9.375-13.406 15.469-11.25 3.4219 1.1719 5.7188 4.0781 6.4219 8.2031 1.3594 7.8281-3.0469 19.875-9.1406 24.75-1.9219 1.5469-3.9844 2.3438-5.9531 2.3438zm5.7188-29.719c-3.0469 0-5.6719 4.7344-6.8438 7.8281-2.7656 7.4062-1.9219 14.625 0.60938 15.703 0.65625 0.32812 1.5938 0.046875 2.6719-0.89062 4.3594-3.5156 7.9219-13.266 6.9375-18.938-0.51562-2.8594-1.9219-3.375-2.3906-3.5156-0.32812-0.09375-0.65625-0.14062-0.9375-0.14062z"/>
 <path class = "editable" d="m350.53 550.74c-0.98438 0-1.9219-0.1875-2.8594-0.5625-7.1719-2.9531-7.4062-14.297-3.9375-23.484 3.375-9.0469 9.2344-13.406 15.469-11.25 3.4219 1.1719 5.6719 4.0781 6.4219 8.2031 1.3594 7.8281-3.0469 19.875-9.1406 24.75-1.9219 1.5469-3.9844 2.3438-5.9531 2.3438zm5.7188-29.672c-3.0469 0-5.6719 4.7344-6.8438 7.7812-2.8125 7.4062-1.9688 14.625 0.60938 15.703 0.65625 0.28125 1.5938 0 2.6719-0.89062 4.3594-3.5156 7.9219-13.266 6.9375-18.938-0.51562-2.8594-1.9219-3.3281-2.3906-3.5156-0.32812-0.09375-0.65625-0.14062-0.9375-0.14062z"/>
 <path class = "editable" d="m413.06 512.48c-0.98438 0-1.9219-0.1875-2.8594-0.5625-7.1719-2.9531-7.4062-14.297-3.9375-23.484 3.375-9.0469 9.1875-13.406 15.469-11.25 3.4219 1.1719 5.7188 4.0781 6.4219 8.2031 1.3594 7.8281-3.0469 19.875-9.1406 24.75-1.9219 1.5469-3.9375 2.3438-5.9531 2.3438zm5.7188-29.719c-3.0469 0-5.6719 4.7344-6.7969 7.7812-2.8125 7.4062-1.9688 14.672 0.60938 15.703 0.65625 0.28125 1.5938 0 2.6719-0.84375 4.3594-3.5156 7.9219-13.266 6.9375-18.938-0.51562-2.8594-1.9219-3.3281-2.3906-3.5156-0.32812-0.09375-0.65625-0.14062-0.98438-0.14062z"/>
 <path class = "editable" d="m339.71 655.18c-0.89062 0-1.7812-0.1875-2.625-0.51562-6.4219-2.6719-6.7031-12.656-3.6562-20.766 2.9531-7.9219 8.3906-11.859 13.875-9.9844 3.0938 1.0781 5.2031 3.7031 5.8125 7.4062 1.2188 6.8906-2.7188 17.438-8.0625 21.75-1.7344 1.3594-3.5625 2.1094-5.3906 2.1094zm4.9688-25.594c-2.1094 0-4.2656 3.0938-5.5312 6.4688-2.25 6-1.7344 12.141 0.28125 12.984 0.51562 0.23438 1.3125-0.23438 1.875-0.70312 3.7031-2.9531 6.7031-11.156 5.8594-15.938-0.375-2.25-1.4062-2.5781-1.7812-2.7188-0.23438-0.09375-0.46875-0.14062-0.70312-0.14062z"/>
 <path class = "editable" d="m457.6 576.42c-0.98438 0-1.9219-0.1875-2.8594-0.5625-7.1719-3-7.4062-14.297-3.9375-23.484 3.375-9.0469 9.1875-13.406 15.422-11.25 3.4219 1.1719 5.7188 4.0781 6.4219 8.2031 1.4062 7.8281-3.0469 19.875-9.1406 24.75-1.9219 1.5469-3.9844 2.3438-5.9531 2.3438zm-0.51562-6.1875c0.70312 0.32812 1.5938-0.046875 2.6719-0.89062 4.3594-3.5156 7.9219-13.266 6.9375-18.938-0.51562-2.8594-1.9219-3.3281-2.3906-3.5156-3.4688-1.125-6.5156 4.2656-7.7812 7.6406-2.5312 6.75-2.25 14.531 0.60938 15.703z"/>
 <path class = "editable" d="m412.22 795.71c-0.98438 0-1.9219-0.1875-2.8594-0.5625-7.1719-2.9531-7.4062-14.297-3.9375-23.484 3.375-9.0469 9.2812-13.406 15.422-11.25 3.4219 1.1719 5.7188 4.0781 6.4219 8.2031 1.3594 7.8281-3.0469 19.875-9.1406 24.75-1.9219 1.5469-3.9375 2.3438-5.9531 2.3438zm5.7188-29.672c-3.0469 0-5.6719 4.7344-6.8438 7.7812-2.7656 7.4062-1.9219 14.672 0.60938 15.703 0.65625 0.28125 1.5938 0 2.6719-0.84375 4.3594-3.5156 7.9219-13.266 6.9375-18.938-0.51562-2.8594-1.9219-3.375-2.3906-3.5156-0.32812-0.09375-0.65625-0.14062-0.9375-0.14062z"/>
 <path class = "editable" d="m356.81 829.4c-0.98438 0-1.9219-0.1875-2.8594-0.5625-7.1719-2.9531-7.4062-14.297-3.9375-23.484 3.375-9.0469 9.2812-13.406 15.422-11.25 3.4219 1.1719 5.7188 4.0781 6.4219 8.2031 1.3594 7.8281-3.0469 19.875-9.1406 24.75-1.9219 1.5469-3.9844 2.3438-5.9531 2.3438zm-0.51562-6.2344c0.65625 0.32812 1.5938 0 2.6719-0.89062 4.3594-3.5156 7.9219-13.266 6.9375-18.938-0.51562-2.8594-1.9219-3.375-2.3906-3.5156-3.375-1.1719-6.5156 4.2656-7.7812 7.6406-2.7656 7.4062-1.9688 14.672 0.60938 15.703z"/>
 <path class = "editable" d="m435.05 880.22c-0.98438 0-1.9219-0.1875-2.8594-0.5625-7.1719-2.9531-7.4062-14.297-3.9375-23.484 3.375-9.0469 9.2344-13.406 15.469-11.25 3.4219 1.1719 5.7188 4.0781 6.4219 8.2031 1.3594 7.8281-3.0469 19.875-9.1406 24.75-1.9219 1.5469-3.9375 2.3438-5.9531 2.3438zm5.7188-29.672c-3.0469 0-5.6719 4.7344-6.7969 7.7812-2.8125 7.4062-1.9688 14.672 0.60938 15.703 0.65625 0.28125 1.5938 0 2.6719-0.84375 4.3594-3.5156 7.9219-13.266 6.9375-18.938-0.51562-2.8594-1.9219-3.3281-2.3906-3.5156-0.32812-0.09375-0.65625-0.14062-0.98438-0.14062z"/>
 <path class = "editable" d="m465.89 951.61c-0.98438 0-1.9219-0.1875-2.8594-0.5625-7.1719-2.9531-7.4062-14.297-3.9375-23.484 3.375-9 9.2344-13.359 15.469-11.25 3.4219 1.1719 5.7188 4.0781 6.4219 8.2031 1.3594 7.8281-3.0469 19.875-9.1406 24.75-1.9219 1.5469-3.9375 2.3438-5.9531 2.3438zm5.7188-29.719c-3.0469 0-5.6719 4.7344-6.8438 7.7812-2.7656 7.4062-1.9688 14.672 0.60938 15.703 0.70312 0.28125 1.5938 0 2.6719-0.84375 4.3594-3.5156 7.9219-13.266 6.9375-18.938-0.51562-2.8594-1.9219-3.3281-2.3906-3.5156-0.32812-0.09375-0.65625-0.14062-0.98438-0.14062z"/>
 <path class = "editable" d="m399.1 977.86c-0.98438 0-1.9219-0.1875-2.8594-0.5625-7.1719-2.9531-7.4062-14.297-3.9375-23.438 3.375-9.0469 9.375-13.406 15.469-11.25 3.4219 1.1719 5.7188 4.0781 6.4219 8.2031 1.3594 7.8281-3.0469 19.875-9.1406 24.75-1.9219 1.5469-3.9844 2.3438-5.9531 2.3438zm5.7188-29.672c-3.0469 0-5.6719 4.7344-6.8438 7.8281-2.7656 7.4062-1.9219 14.625 0.60938 15.703 0.65625 0.28125 1.5938 0 2.6719-0.89062 4.3594-3.5156 7.9219-13.266 6.9375-18.938-0.51562-2.8594-1.9219-3.3281-2.3906-3.5156-0.32812-0.09375-0.65625-0.14062-0.98438-0.14062z"/>
 <path class = "editable" d="m302.29 943.6c-0.98438 0-1.9219-0.1875-2.8594-0.5625-7.1719-3-7.4062-14.344-3.9375-23.531 3.4219-9.0469 9.2812-13.312 15.422-11.203 3.4219 1.1719 5.7188 4.0781 6.4219 8.2031 1.3594 7.8281-3.0469 19.875-9.1406 24.75-1.9219 1.5469-3.9844 2.3438-5.9531 2.3438zm-0.5625-6.1875c0.65625 0.28125 1.5938 0 2.6719-0.89062 4.3594-3.5156 7.9219-13.266 6.9375-18.938-0.51562-2.8594-1.9219-3.3281-2.3906-3.5156-3.4688-1.125-6.5156 4.2188-7.7812 7.5938-2.8125 7.4062-1.9688 14.672 0.5625 15.75z"/>
 <path class = "editable" d="m659.53 785.02c-1.2656 0-2.4844-0.32812-3.6094-0.89062-6.7969-3.75-5.8125-15.047-1.4062-23.766 4.3594-8.625 10.781-12.234 16.547-9.5156 3.2812 1.5469 5.25 4.6875 5.5312 8.8594 0.5625 7.9219-5.1562 19.406-11.719 23.625-1.7812 1.125-3.6094 1.7344-5.3438 1.7344zm-0.70312-6.2344c0.65625 0.375 1.5938 0.14062 2.7656-0.60938 4.7344-3.0469 9.3281-12.328 8.9531-18.094-0.1875-2.9062-1.5469-3.5156-2.0156-3.75-3.2344-1.5-6.9375 3.5156-8.5781 6.75-3.5625 7.0781-3.5625 14.344-1.125 15.703z"/>
 <path class = "editable" d="m478.45 1029.8c-0.98438 0-1.9219-0.1875-2.8594-0.5625-7.1719-3-7.4062-14.344-3.9375-23.531 3.375-9.0469 9.2812-13.359 15.422-11.203 3.4219 1.1719 5.7188 4.0781 6.4219 8.2031 1.3594 7.8281-3.0469 19.875-9.1406 24.75-1.9219 1.5469-3.9375 2.3438-5.9531 2.3438zm-0.51562-6.2344c0.65625 0.28125 1.5938 0 2.6719-0.84375 4.3594-3.5156 7.9219-13.266 6.9375-18.938-0.51562-2.8594-1.9219-3.3281-2.3906-3.5156-3.5156-1.125-6.5156 4.2188-7.7812 7.6406-2.5312 6.75-2.25 14.531 0.60938 15.703z"/>
 <path class = "editable" d="m533.11 909.14c-0.84375 0-1.6406-0.1875-2.4375-0.46875-5.8125-2.4375-6.0938-11.391-3.375-18.609 2.6719-7.0781 7.5938-10.594 12.562-8.8594 2.8125 0.9375 4.7344 3.3281 5.3438 6.75 1.125 6.2344-2.2969 15.422-7.125 19.312-1.5938 1.2656-3.2812 1.9219-4.9219 1.9219zm-0.14062-6.1406c0.28125 0.1875 0.84375-0.23438 1.2188-0.5625 3.0469-2.4375 5.625-9.5156 4.9219-13.5-0.28125-1.7344-1.0312-1.9688-1.3125-2.0625-1.7812-0.5625-3.75 2.2031-4.875 5.25-1.9219 5.2031-1.4062 10.266 0 10.828z"/>
 <path class = "editable" d="m340.69 1011.3c-0.84375 0-1.6406-0.1875-2.4375-0.46875-5.8594-2.3906-6.0938-11.391-3.375-18.609 2.6719-7.125 7.6406-10.594 12.562-8.9062 2.8594 0.9375 4.7344 3.375 5.3438 6.75 1.0781 6.2344-2.2969 15.375-7.125 19.266-1.5938 1.2656-3.2812 1.9219-4.9219 1.9219zm-0.14062-6.0938c0.32812 0.1875 0.84375-0.23438 1.2656-0.5625 3.0469-2.4375 5.625-9.5156 4.9219-13.5-0.32812-1.7344-1.0312-1.9688-1.3125-2.0625-1.7812-0.5625-3.75 2.2031-4.9219 5.2969-1.9219 5.1562-1.3594 10.266 0 10.828z"/>
 <path class = "editable" d="m414.47 1063.1c-0.9375 0-1.6875-0.23438-2.25-0.42188-5.1562-2.1094-5.4375-9.8438-3.0938-16.078 2.2969-6.1406 6.6562-9.2344 11.062-7.6875 2.5312 0.84375 4.2188 3 4.7344 6 0.9375 5.2969-1.9688 13.172-6.0938 16.5-1.6406 1.3125-3.1406 1.6875-4.4062 1.6875zm3.5625-18.469c-0.89062 0-2.2969 1.7344-3.1875 4.125-1.6406 4.3125-0.9375 7.8281-0.32812 8.25 1.1719-0.28125 4.0781-4.3125 4.5-9.0469 0.14062-1.4531-0.046875-3.0469-0.75-3.2812-0.09375-0.046875-0.14062-0.046875-0.23438-0.046875z"/>
 <path class = "editable" d="m363.74 1098.7c-0.9375 0-1.7344-0.23438-2.25-0.42188-5.1562-2.1094-5.4375-9.8438-3.0938-16.078 2.2969-6.1406 6.6562-9.1875 11.062-7.6875 2.5781 0.84375 4.2656 3 4.7812 6 0.9375 5.2969-1.9688 13.172-6.0938 16.5-1.6406 1.3125-3.1406 1.6875-4.3594 1.6875zm3.5156-18.469c-0.89062 0-2.2969 1.7344-3.1875 4.125-1.6406 4.3125-0.9375 7.8281-0.32812 8.25 1.1719-0.32812 4.0781-4.3125 4.5-9.0469 0.14062-1.4531-0.046876-3.0469-0.79688-3.3281-0.046874-0.046875-0.14062-0.046875-0.23437-0.046875z"/>
 <path class = "editable" d="m306.19 1047c-4.4062 0-8.8125-4.5469-11.109-9.6562-2.7188-6-1.7812-11.203 2.3906-13.266 2.4375-1.1719 5.1562-0.84375 7.6406 0.89062 4.4062 3.0938 7.9219 10.688 7.3125 15.938-0.42188 3.6562-2.5312 5.0625-3.7969 5.5781-0.79688 0.32812-1.5938 0.46875-2.3906 0.46875zm-5.7188-17.531c-0.09375 0-0.23438 0.046875-0.28125 0.09375-0.84375 0.42188-0.65625 2.8125 0.46875 5.2969 1.875 4.1719 4.6406 5.9531 5.5781 6.0938 0.60938-1.0312-0.14062-5.9062-3.1875-9.5625-0.79688-0.98438-1.875-1.8281-2.5781-1.8281z"/>
 <path class = "editable" d="m261.19 977.68c-5.2969 0-8.8125-6.6562-9.4219-13.078-0.60938-6.5625 1.9219-11.156 6.5625-11.766 2.6719-0.32812 5.1094 0.79688 6.8906 3.2812 3.1875 4.3594 4.0312 12.703 1.7812 17.484-1.5469 3.3281-4.0781 3.9375-5.3906 4.0312-0.14062 0-0.28125 0.046875-0.42188 0.046875zm-2.0156-18.797h-0.09375c-0.9375 0.14062-1.5469 2.4375-1.2656 5.1562 0.42188 4.5469 2.5781 7.4531 3.3281 7.5469 0.89062-0.75 1.7812-5.6719 0.09375-10.078-0.51562-1.3125-1.3125-2.625-2.0625-2.625z"/>
 <path class = "editable" d="m358.36 903.98c-0.84375 0-1.6406-0.1875-2.4375-0.46875-5.8125-2.3906-6.0938-11.391-3.375-18.609 2.6719-7.125 7.5938-10.594 12.562-8.9062 2.8594 0.9375 4.7344 3.375 5.3438 6.75 1.0781 6.2344-2.2969 15.422-7.125 19.266-1.5938 1.2656-3.2812 1.9219-4.9219 1.9219zm4.3125-22.312c-1.5938 0-3.375 2.5781-4.4531 5.3438-1.9219 5.1562-1.3594 10.266 0 10.828 0.28125 0.1875 0.79688-0.1875 1.2188-0.5625 3.0469-2.4375 5.625-9.5156 4.9219-13.5-0.28125-1.7344-1.0312-1.9688-1.3125-2.0625-0.14062-0.046875-0.28125-0.09375-0.46875-0.09375z"/>
 <path class = "editable" d="m259.64 887.72c-0.84375 0-1.6406-0.1875-2.4375-0.46875-5.8125-2.4375-6.0938-11.391-3.375-18.609 2.6719-7.0781 7.6406-10.594 12.562-8.8594 2.8125 0.9375 4.7344 3.3281 5.3438 6.75 1.125 6.2344-2.2969 15.422-7.125 19.312-1.5938 1.2656-3.2812 1.9219-4.9219 1.9219zm-0.09375-6.1406c0.28125 0.1875 0.84375-0.23438 1.2188-0.5625 3.0469-2.4375 5.625-9.5156 4.9219-13.5-0.28125-1.7344-1.0312-1.9688-1.3125-2.0625-1.8281-0.5625-3.75 2.2031-4.875 5.25-1.9219 5.2031-1.4062 10.266 0 10.828z"/>
 <path class = "editable" d="m305.48 840.19c-0.84375 0-1.6406-0.1875-2.4375-0.46875-5.8125-2.3906-6.0938-11.391-3.375-18.609 2.6719-7.125 7.5938-10.594 12.562-8.9062 2.8594 0.9375 4.7344 3.375 5.3438 6.75 1.0781 6.2344-2.2969 15.422-7.125 19.312-1.5938 1.2656-3.2812 1.9219-4.9219 1.9219zm4.3125-22.312c-1.5938 0-3.375 2.5781-4.4531 5.3438-1.9219 5.1562-1.3594 10.266 0 10.828 0.23438 0.1875 0.79688-0.1875 1.2188-0.5625 3.0469-2.4375 5.625-9.5156 4.9219-13.5-0.28125-1.7344-1.0312-1.9688-1.3125-2.0625-0.14062-0.046875-0.28125-0.09375-0.46875-0.09375z"/>
 <path class = "editable" d="m510.42 642.66c-0.98438 0-1.9219-0.1875-2.8594-0.5625-7.1719-2.9531-7.4062-14.297-3.9375-23.484 3.375-9.0469 9.2344-13.406 15.469-11.25 3.4219 1.1719 5.7188 4.0781 6.4219 8.2031 1.3594 7.8281-3.0469 19.875-9.1406 24.75-1.9219 1.5469-3.9375 2.3438-5.9531 2.3438zm5.7188-29.672c-3.0469 0-5.6719 4.7344-6.7969 7.7812-2.8125 7.4062-1.9688 14.672 0.60938 15.703 0.65625 0.28125 1.5938 0.046875 2.6719-0.84375 4.3594-3.5156 7.9219-13.266 6.9375-18.938-0.51562-2.8594-1.9219-3.3281-2.3906-3.5156-0.32812-0.09375-0.65625-0.14062-0.98438-0.14062z"/>
 <path class = "editable" d="m391.69 725.58c-6.4688 0-12.703-7.4531-15.75-15.469-3.375-9.0469-1.7812-16.172 4.2188-18.656 3.3281-1.4062 6.9844-0.70312 10.266 1.9688 6.1875 4.9688 10.781 16.969 9.4219 24.609-0.65625 3.6094-2.5781 6.1406-5.4844 7.125-0.89062 0.32812-1.7812 0.46875-2.6719 0.46875zm-8.0625-28.781c-0.5625 0-0.9375 0.14062-1.125 0.23438-3.375 1.4062-2.1094 7.5-0.84375 10.875 2.8125 7.4062 8.1094 12.328 10.781 11.438 0.70312-0.23438 1.1719-1.0781 1.4062-2.4375 0.98438-5.5312-2.7656-15.188-7.2656-18.844-1.2656-1.0312-2.2969-1.3125-3-1.3125z"/>
 <path class = "editable" d="m327.28 744.61c-0.79688 0-1.5469-0.14062-2.2969-0.42188-6.3281-2.3438-6.9375-12-4.3125-19.922 2.5781-7.7344 7.6875-11.719 13.031-10.078 3.0469 0.89062 5.1562 3.375 5.9062 6.9375 1.4531 6.7031-1.8281 16.781-6.8906 21.188-1.7344 1.5-3.5625 2.25-5.4375 2.25zm-0.23438-6.1406c0.46875 0.14062 1.2188-0.375 1.6406-0.70312 3.375-2.9531 5.9062-10.828 4.9219-15.328-0.42188-2.0625-1.3594-2.2969-1.7344-2.4375-2.1094-0.51562-4.3594 2.7656-5.5312 6.1875-1.9219 5.7656-1.2656 11.578 0.65625 12.281z"/>
 <path class = "editable" d="m292.31 767.81c-0.79688 0-1.4531-0.1875-1.9219-0.32812-4.875-1.7812-5.4844-8.9531-3.5625-14.812s5.9062-8.8125 10.125-7.5469c2.4375 0.70312 4.125 2.6719 4.7344 5.4844 1.0781 4.875-1.3594 12.234-5.0625 15.422-1.5938 1.3594-3.0938 1.7812-4.3125 1.7812zm2.8125-16.875c-0.46875 0-1.2188 0.79688-1.8281 1.9688-1.8281 3.5625-1.5938 7.8281-0.89062 8.7188 1.2188-0.70312 3.4219-4.7344 3.4219-8.4844 0-1.1719-0.28125-2.1094-0.60938-2.2031z"/>
 <path class = "editable" d="m245.02 824.34c-0.79688 0-1.4531-0.1875-1.9219-0.32812-4.875-1.7812-5.4844-8.9531-3.5625-14.812s5.9062-8.7656 10.125-7.5469c2.4375 0.70312 4.125 2.6719 4.7344 5.4844 1.0781 4.875-1.3594 12.234-5.0625 15.422-1.5938 1.3594-3.0938 1.7812-4.3125 1.7812zm2.8125-16.875c-0.51562 0-1.2656 0.9375-1.7812 1.9688-1.8281 3.5625-1.5938 7.8281-0.89062 8.7656 1.2188-0.70312 3.4219-4.7344 3.4219-8.4844 0-1.1719-0.28125-2.1094-0.60938-2.2031h-0.09375z"/>
 <path class = "editable" d="m224.63 793.26c-0.42188 0-0.75-0.046875-1.0312-0.09375-5.1562-0.98438-6.8906-7.9688-5.9062-14.062 0.9375-6.0938 4.2656-9.7031 8.7656-9.0938 2.5312 0.32812 4.5 1.9688 5.5781 4.6406 1.8281 4.6406 0.65625 12.281-2.4375 16.078-1.7344 2.0625-3.5625 2.5312-4.875 2.5312zm0.9375-17.203c-0.46875 0-1.0781 0.9375-1.5 2.25-1.2188 3.7969-0.28125 7.9688 0.5625 8.7656 1.0781-0.89062 2.625-5.25 2.0156-8.9531-0.1875-1.1719-0.60938-2.0625-0.98438-2.1094h-0.046875z"/>
 <path class = "editable" d="m305.44 598.78c-0.79688 0-1.4531-0.1875-1.9219-0.32812-4.875-1.8281-5.4844-9-3.5156-14.812 1.9219-5.8125 5.9062-8.7656 10.125-7.5469 2.4375 0.70312 4.125 2.6719 4.7344 5.4844 1.0781 4.875-1.3594 12.234-5.0156 15.422-1.5938 1.4062-3.0938 1.7812-4.3125 1.7812zm2.8125-16.875c-0.46875 0-1.1719 0.79688-1.7812 1.9688-1.8281 3.5625-1.5938 7.8281-0.89062 8.7656 1.2188-0.70312 3.4219-4.7344 3.4219-8.4844 0-1.1719-0.28125-2.1094-0.60938-2.25z"/>
 <path class = "editable" d="m258.94 563.29c-0.46875 0-0.89062-0.046875-1.2188-0.14062-5.8125-1.1719-7.6406-9.2812-6.4688-16.359 1.1719-6.9844 5.0625-11.062 10.031-10.359 2.8125 0.375 4.9688 2.25 6.1406 5.2969 2.0625 5.4844 0.60938 14.391-3.0938 18.797-1.875 2.25-3.9375 2.7656-5.3906 2.7656zm1.4062-20.812c-1.3594 0-2.5781 2.7188-3.0469 5.3906-0.84375 5.0625 0.60938 9.1406 1.6875 9.375l-0.60938 3 0.60938-3c0.98438-0.14062 3.375-4.3594 3.3281-9.7031 0-2.2969-0.60938-4.8281-1.8281-5.0156h-0.14062z"/>
 <path class = "editable" d="m296.06 523.36c-0.46875 0-0.89062-0.046875-1.2188-0.14062-5.8125-1.1719-7.6406-9.3281-6.4688-16.359 1.1719-6.9844 5.0625-11.016 10.031-10.359 2.8125 0.42188 5.0156 2.2969 6.1875 5.3438 2.0625 5.4375 0.60938 14.391-3.0938 18.75-1.875 2.25-3.8906 2.7656-5.3906 2.7656zm1.3594-20.812c-1.3594 0-2.5781 2.7188-3.0469 5.3438-0.84375 5.0625 0.60938 9.1875 1.6875 9.375l-0.60938 3 0.60938-3c0.98438-0.14062 3.375-4.3594 3.3281-9.6562 0-2.2969-0.60938-4.875-1.8281-5.0625z"/>
 <path class = "editable" d="m349.5 378.05c-2.4375 0-3.9844-1.1719-4.7344-1.9688-4.0312-4.3125-0.79688-12 4.2656-17.062 5.0625-4.9688 10.594-6 14.203-2.625 2.0625 1.9688 2.7656 4.7812 1.9219 7.9219-1.5 5.6719-7.9219 12.047-13.453 13.453-0.79688 0.1875-1.5469 0.28125-2.1562 0.28125zm8.6719-17.531c-1.2656 0-3.2812 1.2656-4.8281 2.8125-3.6094 3.6094-4.8281 7.7812-4.125 8.5781l-2.25 2.0625 2.25-2.0625c0.89062 0.5625 5.25-1.5938 8.3438-5.8594 1.3594-1.875 2.3906-4.3125 1.4531-5.25-0.23438-0.23438-0.5625-0.32812-0.89062-0.32812z"/>
 <path class = "editable" d="m498.1 331.4c-2.4375 0-3.9375-1.1719-4.7344-1.9688-4.0312-4.3594-0.79688-12.047 4.2656-17.062 5.0156-4.9688 10.594-6 14.156-2.5781 2.0625 1.9219 2.7656 4.7344 1.9219 7.875-1.5 5.6719-7.875 12.047-13.453 13.453-0.79688 0.1875-1.5469 0.28125-2.2031 0.28125zm8.6719-17.578c-1.2656 0-3.2344 1.2656-4.8281 2.8125-3.6562 3.6094-4.875 7.7812-4.125 8.5781l-2.25 2.0625 2.25-2.0625c0.9375 0.375 5.2969-1.5938 8.3438-5.9062 1.3594-1.875 2.3438-4.3125 1.4531-5.2031-0.23438-0.23438-0.5625-0.32812-0.89062-0.32812z"/>
 <path class = "editable" d="m439.78 333.32c-3.6562 0-5.3438-1.9219-6.0469-3.1406-3.0469-5.1094 1.7344-11.906 7.7812-15.75 5.9062-3.8438 11.625-3.6562 14.391 0.42188 1.5938 2.3438 1.6875 5.25 0.23438 8.1094-2.625 5.2031-10.266 10.125-15.984 10.312h-0.32812zm9.75-15.562c-1.3125 0-3.1875 0.75-4.7812 1.7812-4.3125 2.7656-6.375 6.6094-5.8125 7.5469l-2.625 1.5469 2.625-1.5469c0.79688 0.65625 5.5312-0.46875 9.4688-4.0781 1.6875-1.5469 3.1406-3.6562 2.4375-4.7344-0.28125-0.375-0.75-0.5625-1.3125-0.5625z"/>
 <path class = "editable" d="m638.11 337.22c-4.3125 0-8.25-4.7812-9.9844-9.9375-1.9219-5.8125-0.5625-10.5 3.5625-12.047 2.3906-0.84375 4.875-0.32812 7.0312 1.5469 3.75 3.2344 6.2344 10.547 5.25 15.281-0.70312 3.375-2.9062 4.5469-4.125 4.875-0.60938 0.1875-1.1719 0.28125-1.7344 0.28125zm-4.2188-16.312s-0.09375 0-0.09375 0.046875c-0.42188 0.14062-0.5625 1.2656-0.32812 2.625 0.65625 3.9375 3.375 7.1719 4.4531 7.5 0.5625-1.3125-0.14062-5.8125-2.3438-8.8125-0.60938-0.84375-1.3125-1.3594-1.6875-1.3594z"/>
 <path class = "editable" d="m677.86 346.6c-0.46875 0-0.9375-0.09375-1.2656-0.14062-5.0625-1.2188-6.5156-8.25-5.2969-14.25s4.6875-9.4219 9.0938-8.6719c2.4844 0.42188 4.4062 2.1562 5.3438 4.8281 1.6406 4.6875 0.14062 12.234-3.0938 15.844-1.6875 1.875-3.4219 2.3438-4.7344 2.3438zm1.4531-17.016c-0.46875 0-1.0781 0.84375-1.5938 2.1094-1.4062 3.7031-0.65625 7.875 0.14062 8.7656 1.125-0.84375 2.8125-5.1094 2.3438-8.8125-0.14062-1.125-0.51562-2.0156-0.89062-2.0625h-0.046875z"/>
 <path class = "editable" d="m745.22 371.48c-3.75 0-7.9219-3.1406-10.594-6.9375-3.4688-5.0156-3.4688-9.9844 0-12.562 2.0625-1.5469 4.5938-1.6875 7.2188-0.51562 4.5 2.0625 8.9531 8.3438 9.2812 13.219 0.23438 3.4688-1.5469 5.1562-2.5781 5.8594-1.0312 0.65625-2.1562 0.9375-3.3281 0.9375zm-6.7031-14.719c-0.09375 0-0.1875 0.046875-0.23438 0.09375-0.375 0.28125-0.1875 1.4062 0.42188 2.625 1.7344 3.6094 5.25 5.9062 6.4219 5.9531 0.14062-1.4062-1.7344-5.5781-4.7344-7.7812-0.75-0.5625-1.4531-0.84375-1.875-0.84375z"/>
 <path class = "editable" d="m780.56 447.19c-4.8281 0-8.25-5.9062-9.0938-11.719-0.84375-6.0469 1.4062-10.453 5.7188-11.203 2.4375-0.46875 4.875 0.60938 6.6562 2.8125 3.0938 3.8906 4.2188 11.531 2.2969 16.031-1.3594 3.1875-3.7031 3.8906-4.9688 4.0312-0.23438 0.046875-0.42188 0.046875-0.65625 0.046875zm-2.2969-16.922h-0.046875c-0.46875 0.09375-0.79688 1.1719-0.79688 2.5781-0.09375 3.9844 2.0156 7.6406 3.0469 8.2031 0.75-1.1719 0.9375-5.7656-0.70312-9.0938-0.46875-0.98438-1.125-1.6875-1.4531-1.6875z"/>
 <path class = "editable" d="m859.36 470.29c-4.8281 0-8.25-5.8594-9.0469-11.672-0.84375-6.0469 1.4062-10.453 5.7188-11.203 2.5312-0.46875 4.875 0.5625 6.6562 2.8125 3.0938 3.8906 4.2188 11.531 2.2969 15.984-1.3125 3.1875-3.7031 3.8906-4.9688 4.0781-0.23438 0.046875-0.42188 0.046875-0.65625 0.046875zm-2.2969-16.875h-0.046875c-0.42188 0.09375-0.79688 1.1719-0.79688 2.5312-0.09375 3.9844 1.9688 7.6875 3.0469 8.25 0.75-1.1719 0.9375-5.7656-0.70312-9.0938-0.46875-0.98438-1.0781-1.6875-1.4531-1.6875z"/>
 <path class = "editable" d="m889.74 583.36c-4.8281 0-8.25-5.8594-9.0938-11.672-0.84375-6.0469 1.4062-10.453 5.7188-11.203 2.4375-0.46875 4.875 0.5625 6.6562 2.8125 3.0938 3.8906 4.2188 11.531 2.2969 15.984-1.3594 3.1875-3.7031 3.8906-4.9688 4.0781-0.23438 0.046875-0.42188 0.046875-0.65625 0.046875zm-2.25-16.922h-0.046875c-0.46875 0.09375-0.79688 1.1719-0.79688 2.5781-0.09375 3.9844 2.0156 7.6406 3.0469 8.2031 0.75-1.1719 0.9375-5.7188-0.70312-9.0938-0.46875-0.98438-1.0781-1.6875-1.4531-1.6875z"/>
 <path class = "editable" d="m284.44 442.13c-0.9375 0-1.7812-0.23438-2.3438-0.46875-5.4844-2.25-5.7656-10.594-3.2812-17.297 2.4844-6.6562 7.125-9.8906 11.766-8.2969 2.6719 0.89062 4.4531 3.1875 5.0625 6.375 1.0312 5.7656-2.1094 14.25-6.5625 17.859-1.7344 1.4062-3.3281 1.8281-4.6406 1.8281zm3.8438-20.344c-1.3125 0-2.8594 2.3438-3.7969 4.7344-1.7812 4.7812-1.125 9.0938-0.09375 9.5156l-1.1719 2.8125 1.1719-2.8125c0.75 0.046875 4.125-3.6562 5.1094-8.9062 0.42188-2.25 0.32812-4.9219-0.89062-5.2969-0.09375-0.046875-0.23438-0.046875-0.32812-0.046875z"/>
 <path class = "editable" d="m242.06 472.97c-0.98438 0-1.7812-0.23438-2.3438-0.46875-5.4844-2.25-5.8125-10.594-3.2812-17.297 2.4844-6.6094 7.125-9.8438 11.766-8.2969 2.6719 0.89062 4.4531 3.1875 5.0625 6.375 1.0312 5.7656-2.0625 14.25-6.5625 17.859-1.7344 1.4062-3.3281 1.8281-4.6406 1.8281zm3.8438-20.344c-1.3125 0-2.8594 2.2969-3.75 4.6875-1.7812 4.7812-1.125 9.1406-0.09375 9.5625l-1.1719 2.8125 1.1719-2.8125c1.0312 0 4.1719-3.75 5.1094-8.9531 0.42188-2.25 0.28125-4.8281-0.89062-5.25-0.09375-0.046875-0.23438-0.046875-0.32812-0.046875z"/>
 <path class = "editable" d="m218.06 559.45c-0.9375 0-1.7812-0.23438-2.3438-0.46875-5.4844-2.25-5.7656-10.594-3.2812-17.297 2.4375-6.6094 7.0312-9.8906 11.766-8.2969 2.6719 0.89062 4.5 3.1875 5.0625 6.375 1.0312 5.7656-2.0625 14.25-6.5625 17.859-1.7344 1.4062-3.375 1.8281-4.6875 1.8281zm3.8438-20.297c-1.3125 0-2.8594 2.2969-3.75 4.6875-1.7812 4.7812-1.125 9.1406-0.14062 9.5625l-1.1719 2.8125 1.1719-2.8125h0.046875c1.0312 0 4.125-3.7031 5.0625-8.8594 0.42188-2.25 0.32812-4.9219-0.89062-5.3438-0.09375-0.046875-0.23438-0.046875-0.32812-0.046875z"/>
 <path class = "editable" d="m237.74 635.72c-0.9375 0-1.7812-0.23438-2.3438-0.46875-5.4844-2.25-5.7656-10.594-3.2812-17.297 2.4375-6.6094 7.0312-9.8906 11.766-8.2969 2.6719 0.89062 4.5 3.1875 5.0625 6.375 1.0312 5.7656-2.0625 14.25-6.5625 17.859-1.7344 1.4062-3.375 1.8281-4.6875 1.8281zm3.8438-20.344c-1.3125 0-2.9062 2.3438-3.7969 4.7344-1.7812 4.7812-1.125 9.0938-0.09375 9.5156l-1.1719 2.8125 1.1719-2.8125h0.046876c1.0312 0 4.125-3.7031 5.0625-8.8594 0.42187-2.25 0.32812-4.9219-0.89063-5.3438-0.09375-0.046875-0.23437-0.046875-0.32812-0.046875z"/>
 <path class = "editable" d="m254.02 725.9c-0.51562 0-0.9375-0.046875-1.3125-0.14062-5.7656-1.2656-7.5469-9.4219-6.1875-16.5 1.3125-6.9375 5.2969-10.875 10.172-10.172 2.8125 0.42188 4.9688 2.3438 6.0938 5.3906 2.0156 5.4844 0.42188 14.391-3.3281 18.75-1.875 2.2031-3.8906 2.7188-5.3438 2.7188zm1.5469-20.812c-1.3594 0-2.625 2.6719-3.0938 5.2969-0.9375 5.0625 0.46875 9.1875 1.5469 9.4219l-0.65625 2.9531 0.65625-2.9531c0.98438-0.14062 3.4219-4.2656 3.4688-9.5625 0.046875-2.3438-0.51562-4.9219-1.7812-5.1562h-0.1875z"/>
 <path class = "editable" d="m288.28 654.37c-0.51562 0-0.9375-0.046875-1.3125-0.14062-5.7656-1.2656-7.5469-9.4219-6.2344-16.453 1.2656-6.9375 5.2969-10.969 10.172-10.219 2.8125 0.42188 4.9688 2.3438 6.0938 5.3906 2.0156 5.4844 0.42188 14.391-3.375 18.75-1.875 2.1562-3.8906 2.6719-5.3438 2.6719zm1.5469-20.812c-1.3594 0-2.625 2.6719-3.0938 5.2969-0.9375 5.0625 0.46875 9.1875 1.5469 9.4219l-0.65625 2.9531 0.65625-2.9531c1.0312-0.14062 3.4219-4.3594 3.4688-9.7031 0.046875-2.2969-0.5625-4.8281-1.7812-5.0156z"/>
 <path class = "editable" d="m344.68 458.34c-0.84375 0-1.5938-0.1875-2.1094-0.375-5.5781-2.0156-6.1875-10.359-3.9844-17.156 2.2031-6.7031 6.6094-10.125 11.438-8.7656 2.7188 0.79688 4.5938 3 5.2969 6.1406 1.2656 5.7188-1.5469 14.344-5.8125 18.094-1.7812 1.5938-3.4688 2.0156-4.8281 2.0156zm3.3281-20.484c-1.3125 0-2.8125 2.3906-3.6562 4.875-1.5938 4.875-0.75 9.1406 0.28125 9.5156l-1.0312 2.8594 1.0781-2.8594c1.0312 0 3.9844-3.8438 4.7344-9.0938 0.32812-2.2969 0.14062-4.875-1.125-5.25-0.09375-0.046875-0.1875-0.046875-0.28125-0.046875z"/>
 <path class = "editable" d="m713.39 682.6c-0.89062 0-1.8281-0.1875-2.7188-0.51562-7.2656-2.8125-7.7344-14.156-4.5-23.391 3.1875-9.0938 9.0469-13.594 15.188-11.578 3.4219 1.0781 5.8125 3.9375 6.6094 8.0625 1.5469 7.7812-2.625 19.922-8.5781 24.938-1.9219 1.6406-4.0312 2.4844-6.0469 2.4844zm-0.51562-6.1875c0.75 0.28125 1.5938-0.046875 2.6719-0.9375 4.3125-3.6094 7.6406-13.406 6.5156-19.078-0.5625-2.8594-2.0156-3.2812-2.4844-3.4688-3.4688-1.0312-6.4219 4.4062-7.6406 7.8281-2.3906 6.7969-1.9219 14.578 0.9375 15.703z"/>
 <path class = "editable" d="m776.76 657.47c-0.89062 0-1.8281-0.1875-2.7188-0.51562-7.2656-2.8125-7.7344-14.109-4.4531-23.344 3.1875-9.1406 9.0469-13.594 15.188-11.625 3.4219 1.0781 5.8125 3.9375 6.6094 8.0625 1.5469 7.8281-2.625 19.922-8.5781 24.938-1.9219 1.6406-4.0312 2.4844-6.0938 2.4844zm5.2969-29.812c-3.0938 0-5.625 4.8281-6.7031 7.9219-2.625 7.4531-1.6406 14.672 0.9375 15.656 0.75 0.32812 1.5938-0.046875 2.6719-0.9375 4.3125-3.6094 7.6406-13.406 6.5156-19.078-0.5625-2.8594-2.0156-3.2812-2.4844-3.4688-0.32812-0.09375-0.60938-0.14062-0.89062-0.14062z"/>
 <path class = "editable" d="m839.86 624.1c-7.6406 0-12.328-10.219-12.891-19.875-0.5625-9.6094 3.1406-15.938 9.6094-16.5 3.6094-0.28125 6.8438 1.4062 9.1875 4.9219 4.4062 6.6094 5.2031 19.406 1.6406 26.297-1.6875 3.2812-4.3125 5.1094-7.3594 5.1562zm-2.4375-30.375h-0.32812c-3.6094 0.32812-4.2656 6.5156-4.0781 10.125 0.42188 7.875 4.0781 14.156 6.7969 14.156h0.046875c0.75 0 1.4531-0.65625 2.1094-1.875 2.5781-4.9688 1.9219-15.328-1.2656-20.156-1.3594-2.0156-2.625-2.25-3.2812-2.25z"/>
 <path class = "editable" d="m751.45 548.76c-0.42188 0-0.89062-0.046875-1.3594-0.14062-7.6406-1.3594-10.266-12.375-8.8594-22.078 1.4062-9.5625 6.2344-15.047 12.703-14.297 3.6094 0.42188 6.4219 2.7656 8.0156 6.6562 3 7.3594 1.2188 20.062-3.6562 26.109-1.9688 2.3906-4.3594 3.7031-6.8906 3.7031zm1.5-30.469c-3.375 0-5.1562 5.6719-5.6719 9.1406-1.0312 7.125 0.89062 14.672 3.8906 15.188 0.75 0.14062 1.5469-0.32812 2.4375-1.4062 3.5156-4.3594 4.9688-14.625 2.7656-19.969-1.125-2.7188-2.625-2.8594-3.0938-2.9531h-0.375z"/>
 <path class = "editable" d="m804.56 553.31c-0.46875 0-0.89062-0.046875-1.3594-0.14062-7.6406-1.3594-10.266-12.422-8.8594-22.078 1.4062-9.5625 6.5156-15.094 12.703-14.297 3.6094 0.42188 6.4688 2.7656 8.0156 6.7031 3 7.3594 1.2188 20.062-3.6562 26.109-1.9688 2.4375-4.3594 3.7031-6.8906 3.7031zm-0.28125-6.0938c0.75 0.09375 1.5469-0.32812 2.4375-1.4062 3.5156-4.3594 4.9688-14.625 2.7656-19.969-1.125-2.7188-2.625-2.8594-3.0938-2.9531h-0.375c-3.375 0-5.1562 5.6719-5.6719 9.1406-1.1719 7.8281 1.1719 14.719 3.8906 15.234z"/>
 <path class = "editable" d="m700.31 438.98c-1.125 0-2.1562-0.375-3-1.0781-8.4844-6.9844-8.0625-16.781-3.8906-23.344 4.0312-6.3281 10.734-8.8594 16.266-6.2812 3.2344 1.5469 5.0625 4.6406 5.0625 8.7656 0 7.9688-6.75 18.938-11.812 21.328-0.89062 0.42188-1.7344 0.60938-2.5781 0.60938zm4.8281-25.641c-2.5781 0-5.0625 2.1094-6.6094 4.4531-2.4375 3.8906-3.3281 10.031 2.0156 14.906 2.25-1.3594 7.4531-8.6719 7.9688-14.766 0.32812-3.3281-0.98438-3.9375-1.5-4.1719-0.65625-0.32812-1.2656-0.42188-1.9219-0.42188z"/>
 <path class = "editable" d="m898.26 496.22c-4.2188 0-8.25-4.4531-10.172-9.4219-2.25-5.6719-1.0781-10.5 2.9062-12.234 2.3438-0.98438 4.875-0.5625 7.125 1.1719 3.9375 3.0469 6.75 10.219 6 15-0.5625 3.4219-2.6719 4.6406-3.8906 5.1094-0.65625 0.23438-1.3125 0.32812-1.9688 0.32812zm-4.6875-16.078s-0.09375 0-0.14062 0.046875c-0.42188 0.1875-0.51562 1.3125-0.1875 2.6719 0.84375 3.8906 3.75 6.9375 4.875 7.2656 0.46875-1.3125-0.42188-5.8125-2.8125-8.6719-0.65625-0.79688-1.3594-1.3125-1.7344-1.3125z"/>
 <path class = "editable" d="m927.52 622.26c-0.32812 0-0.65625-0.046875-0.89062-0.09375-5.1562-0.84375-7.0781-7.7344-6.2812-13.781 0.79688-6.0938 4.1719-9.75 8.4375-9.2812 2.5312 0.23438 4.5469 1.8281 5.6719 4.4531 1.9688 4.5469 1.0312 12.234-1.9688 16.031-1.6875 2.1562-3.6094 2.6719-4.9219 2.6719zm0.65625-17.109c-0.46875 0-1.0312 0.89062-1.4531 2.2031-1.125 3.7969-0.09375 7.9219 0.75 8.7188 1.0781-0.9375 2.4375-5.2969 1.7344-8.9531-0.23438-1.125-0.65625-1.9688-1.0312-1.9688h-0.046875z"/>
 <path class = "editable" d="m934.78 708.32c-0.32812 0-0.65625-0.046875-0.89062-0.09375-5.1562-0.84375-7.0781-7.7344-6.2812-13.781 0.79688-6.0938 4.2188-9.75 8.4375-9.3281 2.5312 0.23438 4.5469 1.8281 5.6719 4.4531 1.9219 4.5938 0.98438 12.234-1.9688 16.078-1.6875 2.1562-3.6094 2.6719-4.9219 2.6719zm0.65625-17.109c-0.46875 0-1.0781 0.9375-1.4531 2.25-1.125 3.7969-0.09375 7.9219 0.75 8.7188 1.0781-0.9375 2.4375-5.2969 1.7344-8.9531-0.23438-1.125-0.65625-1.9688-1.0312-1.9688h-0.046875z"/>
 <path class = "editable" d="m880.36 761.11c-1.2656 0-2.4375-0.375-3.5156-1.125-5.6719-4.0312-3.1875-14.484 0.79688-20.531 4.2188-6.375 9.0469-6.6094 12.188-4.6406 2.625 1.6406 3.9844 4.5938 3.7969 8.3906-0.32812 6.5625-5.1562 14.719-10.078 17.109-1.0781 0.51562-2.1562 0.79688-3.1875 0.79688zm5.8125-21.234c-1.4062 0-3.3281 2.8125-3.4219 2.9531-3.2344 4.875-3.8438 11.156-2.3906 12.188l-1.7812 2.4844 1.7812-2.4375h0.046875c1.0781 0 4.5469-3.1875 6.375-8.5312 1.0781-3.1406 1.0312-5.7656-0.14062-6.4688-0.14062-0.09375-0.32812-0.14062-0.51562-0.14062z"/>
 <path class = "editable" d="m797.86 795.66c-2.2031 0-4.0312-0.89062-5.25-2.5781-4.0781-5.625 1.7344-14.719 7.4531-19.125 6.0469-4.6406 10.734-3.2812 13.031-0.42188 1.9688 2.3906 2.25 5.625 0.84375 9.1875-2.4375 6.0938-9.6562 12.234-15.094 12.891-0.32812 0.046875-0.65625 0.046875-1.0312 0.046875zm9.6562-18.609c-1.4531 0-3.6562 1.6875-3.75 1.7344-4.5469 3.4688-7.2188 9.3281-6.2344 10.734l-2.4844 1.7812 2.4844-1.7344c0.89062 0.375 5.2969-1.4062 8.8594-5.9531 2.0625-2.625 2.8594-5.1562 1.9688-6.1875-0.23438-0.28125-0.5625-0.375-0.89062-0.375z"/>
 <path class = "editable" d="m738.32 824.76c-2.2031 0-4.0312-0.89062-5.25-2.5781-4.0312-5.6719 1.7344-14.719 7.4531-19.125 6.0469-4.6406 10.734-3.2812 13.031-0.42188 1.9688 2.3906 2.25 5.6719 0.84375 9.1875-2.4375 6.0938-9.6562 12.234-15.094 12.891-0.32812 0.046875-0.65625 0.046875-1.0312 0.046875zm9.6562-18.609c-1.4531 0-3.6562 1.6875-3.75 1.7344-4.6406 3.5625-7.2656 9.2812-6.2344 10.734l-2.4844 1.7812 2.4844-1.7344c0.89062 0.42188 5.2969-1.4062 8.8594-5.9531 2.0625-2.625 2.8594-5.1562 1.9688-6.1875-0.23438-0.28125-0.5625-0.375-0.89062-0.375z"/>
 <path class = "editable" d="m805.55 852.19c-2.2031 0-4.0312-0.89062-5.25-2.5781-4.0312-5.6719 1.7344-14.719 7.4531-19.125 6.0469-4.6406 10.734-3.2812 13.031-0.42188 1.9688 2.3906 2.25 5.625 0.84375 9.1406-2.4375 6.0938-9.6562 12.234-15.141 12.891-0.32812 0.046875-0.70312 0.046875-1.0312 0.046875zm9.7031-18.609c-1.4531 0-3.6562 1.6875-3.75 1.7344-4.6406 3.5625-7.2656 9.2812-6.2344 10.734l-2.4844 1.7812 2.4844-1.7344c0.79688 0.42188 5.3438-1.4531 8.8594-6 2.0625-2.625 2.8594-5.1094 1.9688-6.1875-0.23438-0.28125-0.5625-0.375-0.89062-0.375z"/>
 <path class = "editable" d="m740.86 887.29c-2.2031 0-4.0312-0.89062-5.2031-2.5781-4.0781-5.625 1.7344-14.719 7.4531-19.125 6.0938-4.6406 10.734-3.2812 13.078-0.42188 1.9688 2.3906 2.25 5.625 0.84375 9.1875-2.4375 6.0938-9.6562 12.234-15.094 12.891-0.32812 0.046875-0.65625 0.046875-1.0312 0.046875zm9.7031-18.609c-1.4531 0-3.6562 1.6875-3.75 1.7812-4.6406 3.5625-7.2656 9.2812-6.1875 10.734l-2.4844 1.7812 2.4844-1.7344c0.79688 0.42188 5.4375-1.5938 8.8594-6.0469 2.0156-2.625 2.8125-5.1094 1.9219-6.1406-0.23438-0.28125-0.5625-0.375-0.89062-0.375z"/>
 <path class = "editable" d="m662.53 912.14c-2.2031 0-4.0312-0.89062-5.25-2.5781-4.0312-5.6719 1.7344-14.719 7.4531-19.125 6.0469-4.6406 10.734-3.2812 13.031-0.42188 1.9688 2.3906 2.25 5.6719 0.84375 9.1875-2.4375 6.0938-9.6562 12.234-15.094 12.891-0.32812 0.046875-0.65625 0.046875-1.0312 0.046875zm9.6562-18.609c-1.4531 0-3.6562 1.6875-3.75 1.7344-4.6406 3.5625-7.2656 9.2812-6.2344 10.734l-2.4844 1.7812 2.4844-1.7344c0.89062 0.375 5.2969-1.4062 8.8594-5.9531 2.0625-2.625 2.8594-5.1562 1.9688-6.1875-0.23438-0.28125-0.5625-0.375-0.89062-0.375z"/>
 <path class = "editable" d="m612.37 984.52c-2.2031 0-4.0312-0.89062-5.2031-2.5781-4.0781-5.625 1.7344-14.719 7.4531-19.125 6.0938-4.6406 10.734-3.2812 13.078-0.42188 1.9688 2.3906 2.25 5.625 0.84375 9.1875-2.4375 6.0938-9.6562 12.234-15.094 12.891-0.32812 0.046875-0.65625 0.046875-1.0312 0.046875zm9.7031-18.656c-1.4531 0-3.6562 1.6875-3.75 1.7812-4.6406 3.5625-7.2656 9.2812-6.1875 10.734l-2.4844 1.7812 2.4844-1.7344c0.84375 0.42188 5.4375-1.5938 8.8594-6.0469 2.0156-2.625 2.8125-5.1094 1.9219-6.1406-0.23438-0.28125-0.5625-0.375-0.89062-0.375z"/>
 <path class = "editable" d="m553.31 1041.5c-2.2031 0-4.0312-0.89062-5.25-2.5781-4.0312-5.6719 1.7344-14.719 7.4531-19.125 6.0469-4.6406 10.734-3.2812 13.031-0.42188 1.9688 2.3906 2.25 5.6719 0.84375 9.1875-2.4375 6.0938-9.6562 12.234-15.094 12.891-0.32812 0.046875-0.65625 0.046875-1.0312 0.046875zm9.6562-18.609c-1.4531 0-3.6562 1.6875-3.75 1.7344-4.6406 3.5625-7.2656 9.2812-6.2344 10.734l-2.4844 1.7812 2.4844-1.7344c0.89062 0.42188 5.2969-1.4062 8.8594-5.9531 2.0625-2.625 2.8594-5.1562 1.9688-6.1875-0.23438-0.28125-0.5625-0.375-0.89062-0.375z"/>
 <path class = "editable" d="m477.47 1083.6c-1.3594 0-2.625-0.1875-3.7031-0.51562-2.5312-0.79688-4.1719-2.5781-4.5938-4.875-1.3125-6.8438 7.7344-12.656 14.766-14.25 7.4062-1.6875 11.109 1.5 12.047 5.0625 0.75 3-0.32812 6.0938-3.0469 8.6719-3.7969 3.5625-10.266 5.9062-15.375 5.9062zm-2.3438-6.5625-3 0.60938 3-0.5625c0.65625 0.75 5.4375 0.89062 10.547-1.7344 2.9531-1.5469 4.7344-3.4688 4.3594-4.7812-0.42188-1.6406-4.6406-0.70312-4.7812-0.65625-5.6719 1.2656-10.453 5.3906-10.125 7.1719z"/>
 <path class = "editable" d="m684 964.31c-2.5312 0-4.5469-1.0781-5.7188-3.0938-3.5156-6 3.0938-14.531 9.1875-18.375 6.5156-4.0781 10.969-2.25 13.031 0.79688 1.7344 2.5781 1.7344 5.8125 0 9.1875-3 5.8594-10.734 11.297-16.219 11.484zm10.406-17.719c-1.4062 0-3.5625 1.3594-3.7031 1.4062-4.9219 3.0938-8.0625 8.625-7.1719 10.172l-2.625 1.5469 2.625-1.5469c0.84375 0.5625 5.4375-0.9375 9.375-5.1562 2.2969-2.4375 3.2812-4.8281 2.5312-5.9531-0.23438-0.32812-0.60938-0.46875-1.0312-0.46875z"/>
 <path class = "editable" d="m615.14 282.89c-13.125 0-81.469-19.828-90.328-24.562l2.8594-5.3906c8.2031 4.3594 29.812 10.5 49.547 15.469-50.531-22.406-61.875-41.438-62.438-42.422l5.2969-3.0469-2.625 1.5 2.625-1.5469c0.14062 0.28125 16.547 26.906 95.391 53.766 1.0312 0.32812 2.6719 0.89062 2.9531 2.8594l0.28125 1.8281-1.5469 1.0781c-0.32812 0.23438-0.98438 0.32812-1.9688 0.32812z"/>
 <path class = "editable" d="m615 283.13c-15.469-4.7344-44.906-49.031-48.188-54.047l5.1094-3.3281c8.6719 13.172 33.562 48.094 44.906 51.562l-1.7812 5.8125z"/>
 <path class = "editable" d="m694.13 297.74c-1.6406 0-3.2344-0.32813-4.9219-1.0312-13.359-5.7188-9.1875-49.828-8.25-58.594l6.0469 0.65625c-2.5781 23.109-1.5469 49.688 4.5938 52.312 5.8125 2.4844 13.219-4.7812 21.75-13.266 5.1562-5.1562 10.5-10.406 16.453-14.531l3.4219 5.0156c-5.4844 3.75-10.641 8.8594-15.609 13.828-8.0156 7.9688-15.656 15.562-23.531 15.562z"/>
 <path class = "editable" d="m672.42 290.53c-11.719 0-31.828-8.2031-36-12.422-3.4219-3.4219-36.984-55.594-43.641-66.047l5.1094-3.2812c15.234 23.719 40.312 62.391 42.844 65.016 3.1406 3.1406 23.859 11.625 33.328 10.5 1.5938-0.1875 2.3438-0.60938 2.5781-0.9375 4.2188-6.8438 3.6562-33.938-5.3906-39.516l3.1875-5.2031c13.406 8.25 12.516 39.516 7.4062 47.859-1.3125 2.1562-3.6562 3.4219-7.0312 3.8438-0.75 0.09375-1.5469 0.14062-2.3906 0.14062z"/>
 <path class = "editable" d="m764.86 320.29c-14.438 0-40.875-3.6094-75.984-23.719l3.0469-5.2969c51.469 29.438 83.531 22.078 83.859 21.938l1.4531 5.9062c-0.46875 0.14062-4.7344 1.125-12.328 1.125z"/>
 <path class = "editable" d="m729.47 330.74c-0.5625-0.51563-13.875-12.469-13.875-24.234h6.0938c0 7.5469 8.5312 16.781 11.812 19.734l-4.0312 4.5469z"/>
 <path class = "editable" d="m703.45 257.76c-0.1875 0-0.32812-0.046875-0.51562-0.09375-0.79688-0.28125-1.1719-1.1719-0.89062-1.9219 0.46875-1.3125 48.516-133.92 50.859-141.32 0.51562-1.5938 1.5938-4.5 2.8125-7.7344 0.75-1.9688 1.6875-4.5 2.5781-6.8906-1.1719 2.0156-2.625 4.6406-4.4531 7.9688-19.031 34.875-52.969 147.1-53.297 148.22-0.23438 0.79688-1.0781 1.2188-1.875 1.0312-0.79688-0.23438-1.2656-1.0781-1.0312-1.875 0.32812-1.125 34.406-113.62 53.578-148.78 9.2344-16.922 10.031-16.734 11.531-16.031 1.8281 0.79687 1.6875 1.9688-4.125 17.484-1.2188 3.1875-2.25 6.0469-2.7656 7.5938-2.3438 7.4531-48.938 135.98-50.906 141.42-0.23438 0.60937-0.79688 0.98437-1.4062 0.98437z"/>
 <path class = "editable" d="m711.79 235.74c-0.60938 0-1.1719-0.375-1.4062-0.9375-0.32812-0.75 0.046875-1.6875 0.79688-1.9688 0.23438-0.09375 21.422-9 26.766-14.203 0.60938-0.60938 1.5938-0.5625 2.1562 0.046875 0.60938 0.60938 0.5625 1.5469-0.046875 2.1562-5.7656 5.625-26.812 14.438-27.75 14.812-0.1875 0.09375-0.375 0.14062-0.60938 0.14062z"/>
 <path class = "editable" d="m722.72 205.08c-0.46875 0-0.9375-0.23438-1.2656-0.65625-0.46875-0.70312-0.32812-1.6406 0.375-2.1094l20.297-13.922c0.70312-0.51562 1.6406-0.32812 2.1094 0.375s0.32812 1.6406-0.375 2.1094l-20.297 13.922c-0.28125 0.1875-0.5625 0.28125-0.84375 0.28125z"/>
 <path class = "editable" d="m722.72 181.74c-0.60938 0-1.1719-0.375-1.4062-0.9375l-20.344-51.375c-0.32812-0.79688 0.09375-1.6875 0.84375-1.9688s1.6406 0.09375 1.9688 0.84375l20.344 51.375c0.32812 0.79688-0.09375 1.6875-0.84375 1.9688-0.1875 0.09375-0.375 0.09375-0.5625 0.09375z"/>
 <path class = "editable" d="m712.03 214.08c-0.51562 0-0.98438-0.23438-1.2656-0.70312-1.0781-1.6875-26.25-41.766-27.375-58.312-0.046875-0.84375 0.60938-1.5938 1.4062-1.6406 0.9375 0.14062 1.5938 0.60938 1.6406 1.4062 1.0781 15.797 26.672 56.531 26.906 56.906 0.46875 0.70312 0.23438 1.6406-0.46875 2.1094-0.23438 0.1875-0.5625 0.23438-0.79688 0.23438z"/>
 <path class = "editable" d="m825.71 317.53c-17.297-6.3281-44.906-20.109-45.188-20.25l1.3594-2.7188c0.28125 0.14062 27.703 13.828 44.859 20.109z"/>
 <path class = "editable" d="m861.84 316.13c-31.969 0-53.906-24.328-54.141-24.609l2.2969-2.0156c0.23438 0.23438 21.281 23.578 51.844 23.578 1.4531 0 2.9062-0.046875 4.4062-0.1875l0.23438 3.0469c-1.5469 0.09375-3.0938 0.1875-4.5938 0.1875z"/>
 <path class = "editable" d="m835.74 276.1-3-0.5625c0.046875-0.23438 4.4531-22.828 21.281-22.828 0.46875 0 0.9375 0 1.4531 0.046875l-0.23438 3.0469c-0.375-0.046875-0.79688-0.046875-1.1719-0.046875-14.297 0-18.281 20.156-18.281 20.344z"/>
 <path class = "editable" d="m751.92 299.81c-2.1562 0-3.2812-0.09375-3.375-0.09375-0.84375-0.09375-1.4531-0.79688-1.4062-1.6406 0.09375-0.84375 0.84375-1.4062 1.6406-1.4062 0.09375 0.046875 10.078 0.75 32.203-2.5781 64.453-9.6094 106.03-32.438 113.06-39.047-7.3125 1.2656-33.094 11.812-50.719 19.031-8.8594 3.6094-17.25 7.0312-23.062 9.2344-21.375 8.1094-71.156 10.688-73.266 10.781-0.75-0.09375-1.5469-0.60938-1.5938-1.4531s0.60938-1.5469 1.4531-1.5938c0.51562-0.046875 51.375-2.6719 72.328-10.594 5.7656-2.2031 14.109-5.625 22.969-9.2344 37.969-15.516 51.891-20.719 54.938-18.984 0.5625 0.32812 0.89062 0.84375 0.9375 1.5 0.60938 6.1875-46.922 32.953-116.62 43.359-15.328 2.2969-24.844 2.6719-29.484 2.6719z"/>
 <path class = "editable" d="m651.84 247.78c-0.28125-0.14062-28.922-11.531-45.188-20.156l1.4062-2.6719c16.125 8.5781 44.625 19.922 44.906 20.062l-1.125 2.8125z"/>
 <path class = "editable" d="m528.61 190.6-2.7656-1.2188c0.14062-0.28125 12.422-28.594 21.562-44.578l2.625 1.5469c-9.0938 15.844-21.328 43.969-21.422 44.25z"/>
 <path class = "editable" d="m572.9 268.26s-132.66-71.062-149.06-79.781c-0.75-0.375-1.0312-1.3125-0.60938-2.0625 0.375-0.70312 1.3125-0.98438 2.0625-0.60938 16.359 8.7188 149.06 79.781 149.06 79.781l-1.4062 2.6719z"/>
 <path class = "editable" d="m638.02 223.69c-0.70312 0-36.375-0.28125-57.328-27.516l2.3906-1.8281c20.062 26.062 54.328 26.297 54.938 26.297l0.046875 3.0469z"/>
 <path class = "editable" d="m551.29 234.79c-1.8281 0-29.297-0.375-45.984-22.078l2.3906-1.8281c15.938 20.719 43.172 20.906 43.641 20.906l0.046875 3.0469h-0.046875z"/>
 <path class = "editable" d="m633.28 194.34-2.3906-1.8281c0.14062-0.1875 13.172-17.438 2.1562-28.078l2.1094-2.2031c12.984 12.562-1.7344 31.922-1.875 32.109z"/>
 <path class = "editable" d="m561.32 244.03-2.3906-1.8281c0.14062-0.1875 13.172-17.438 2.1562-28.078l2.1094-2.2031c12.984 12.516-1.6875 31.922-1.8281 32.109z"/>
 <path class = "editable" d="m672.42 273.71c-0.375 0-0.75-0.14062-1.0312-0.42188-0.32812-0.28125-7.5-7.2188-20.016-26.25-37.828-57.516-58.781-112.64-53.531-116.48 0.51562-0.375 1.125-0.46875 1.7812-0.28125 6.375 1.875 33.234 62.625 38.953 77.531 8.0156 20.906 39.984 60.609 40.312 61.031 0.51562 0.65625 0.42188 1.5938-0.23438 2.1562-0.60938 0.5625-1.5938 0.42188-2.1562-0.23438-1.3125-1.6406-32.578-40.453-40.781-61.828-8.1094-21.141-29.438-66.562-35.859-74.578 1.0312 9.75 17.953 56.156 54.047 111.05 12.281 18.656 19.453 25.641 19.547 25.734 0.60938 0.60938 0.60938 1.5469 0.046875 2.1562-0.28125 0.32812-0.70312 0.46875-1.0781 0.46875z"/>
 <path class = "editable" d="m864.14 370.87c-21.469 0-49.125-1.875-57-3.5156-0.84375-0.1875-1.3594-0.98438-1.1719-1.7812 0.1875-0.84375 1.0781-1.3594 1.7812-1.1719 10.875 2.2969 62.812 5.0156 78.234 2.2969 14.297-2.5312 53.531-1.0312 69.469 0.09375-11.438-4.0781-38.812-10.172-66.656-5.6719-42.047 6.7969-92.578-5.0625-93.094-5.1562-0.79688-0.1875-1.3125-1.0312-1.125-1.8281 0.23438-0.79688 1.0312-1.2656 1.8281-1.125 0.46875 0.14062 50.391 11.812 91.922 5.1562 36.938-6 72.75 6.0469 75 9.375 0.32812 0.46875 0.375 1.3594 0.09375 1.875-0.65625 1.125-2.2031 0.98438-3.0938 0.84375-9.5156-1.0312-57.75-3.4219-73.781-0.60938-4.875 0.84375-13.031 1.2188-22.406 1.2188z"/>
 <path class = "editable" d="m863.76 362.9-1.9219-2.3438c0.89062-0.75 22.359-18.375 38.484-20.062l0.32812 3.0469c-15.188 1.5938-36.609 19.172-36.844 19.359z"/>
 <path class = "editable" d="m905.53 390.52c-26.766-2.8594-62.953-19.969-63.281-20.109l1.3125-2.7656c0.375 0.1875 36.047 17.062 62.297 19.875l-0.32812 3.0469z"/>
 <path class = "editable" d="m971.68 400.97c-40.406-4.3125-95.062-30.141-95.625-30.375l1.3125-2.7656c0.5625 0.28125 54.703 25.875 94.641 30.141l-0.32812 3.0469z"/>
 <path class = "editable" d="m597.61 271.45c-0.23438 0-0.46875-0.046875-0.70312-0.1875-0.75-0.375-76.781-39.469-75.094-106.45 0.046875-1.3125 0.65625-33.047 8.1094-51.375 0.32812-0.79688 1.1719-1.125 1.9688-0.84375 0.79688 0.32812 1.1719 1.2188 0.84375 1.9688-7.2188 17.812-7.875 49.969-7.875 50.297-1.6875 65.109 72.656 103.31 73.406 103.69s1.0312 1.2656 0.65625 2.0625c-0.28125 0.51562-0.79688 0.84375-1.3594 0.84375z"/>
 <path class = "editable" d="m545.11 307.45-2.2969-5.625c3.1875-1.3125 78.375-31.969 103.92-24.516l-1.7344 5.8594c-23.578-6.8906-99.141 24-99.891 24.328z"/>
</svg>
