<?xml version="1.0" encoding="UTF-8"?>
<svg width="1200pt" height="1200pt" version="1.1" viewBox="0 0 1200 1200" xmlns="http://www.w3.org/2000/svg">
 <path class = "editable" d="m598.35 806c-5.0547-29.578-4.3047-67.566-19.875-94.07v0.003907c-8.8984-17.277-24.98-29.734-43.934-34.023 32.25 29.719 51.992 123.85 55.949 143.2 4.2383 20.766 6.1484 42.355 11.82 62.812h0.003906c11.887 39.883 29.367 77.879 51.918 112.86 2.6641 4.3047 5.3984 8.5391 8.1289 12.844-4.3672-11.25-7.7148-20.559-9.6953-25.895-20.98-56.531-43.996-118.14-54.316-177.72z"/>
 <path class = "editable" d="m443.55 1114c-31.004-32.316-57.441-68.727-78.574-108.21-45-87.723-51.711-172.77-52.941-269.79-1.1641-95.102-2.0547-190.4-8.6797-285.29-1.0508 0.38281-2.1914 0.45312-3.2812 0.20703-2.2266-0.44141-4.4883-0.69531-6.7578-0.76172 10.789 92.98 5.4648 186.79 4.3047 280.25-0.6875 52.941-3.8945 108.55 9.8789 160.18 12.57 47.07 37.648 94.414 62.445 136.36 21.113 35.727 50.277 87.516 89.016 106.24 2.0547 0.9375 4.2383 1.875 6.5625 2.8125-7.75-6.8906-15.09-14.234-21.973-21.996z"/>
 <path class = "editable" d="m299.6 403.88c-7.9883-87.039-34.688-177.9 7.5859-259.74h-0.003906c4.8242-10.016 10.582-19.555 17.195-28.492 1.3164-2.9688 2.7969-5.8633 4.4336-8.6719 3.1211-5.4688 7.0117-10.465 11.551-14.828 5.9336-5.7305 13.41-9.6016 21.516-11.141 4.0117-0.83984 8.0898-1.3164 12.188-1.4336 3.7695 0.023437 7.5312 0.33594 11.25 0.9375 6.1172 0.98047 12.098 2.6875 17.812 5.082 9.5703 4.0977 14.766 7.8555 14.211 9.2891-0.55469 1.4336-6.8984 0.47656-16.602-1.5078-11.957-2.8555-24.371-3.2266-36.477-1.0859-3.2266 0.55469-6.3516 1.5625-9.293 3 1.0234-0.066406 1.9766-0.27344 3.0078-0.27344h0.003906c12.27-0.8125 24.477 2.3242 34.836 8.9531 25.828 16.941 45.367 18.039 75.562 11.887 3.8398-0.79297 7.7148-1.3906 11.617-1.7812-1.5742-0.33594-3.0742-0.67578-4.4453-0.9375-14.062-2.8125-24.047-2.7266-24.047-4.5742 0-1.293 8.9453-4.3672 25.07-3.4766 20.176 1.9766 39.887 7.2617 58.348 15.637 2.8008 1.0898 5.5391 2.3438 8.1953 3.75 2.7266 1.4336 5.1953 2.9336 7.5859 4.3672 4.7812 2.9453 9.1484 5.9453 13.32 8.6797v0.003907c7.0547 4.9688 14.441 9.4492 22.105 13.414 12.91 6.6172 22.199 5.8047 22.5 7.6484 0.14062 0.68359-2.1836 1.875-6.6953 2.457-6.3906 0.53125-12.824-0.33203-18.852-2.5312-1.7734-0.54297-3.5547-1.293-5.3984-2.043 19.539 16.398 37.988 22.34 67.023 9.7031h-0.003906c11.387-6.5195 24.082-10.418 37.164-11.41 40.855 2.1094 70.164 37.367 110 39.375 28.352 1.4336 57.449-6.8359 85.527-2.3242 17 2.4727 32.562 10.914 43.902 23.812-2.1602-9.2148-7.0898-17.547-14.129-23.875-7.043-6.3281-15.852-10.348-25.246-11.516-27.055-4.0977-51.168-6.0742-74.398-16.258 6.4219 7.1719 11.617 11.551 10.66 12.91-0.81641 1.1641-7.3789-0.47656-16.668-7.5-8.75-7.1016-16.738-15.09-23.844-23.84-33.75-24.73-71.738-47.691-115.18-37.031-30.609 7.5-66.562 23.906-97.633 8.6055-30.121-14.82-51.168-42.836-84.844-51.375-80.82-20.625-177.09-4.5078-197.51 88.125-19.332 87.984-6.3477 180.63 7.1055 268.21 0.82422 5.2617 1.5781 10.523 2.2578 15.777h0.003906c3.5781 0.089844 7.1445 0.50391 10.648 1.2383-0.84375-11.777-1.8164-23.512-2.9141-35.215z"/>
 <path class = "editable" d="m660.94 812.48c-6.4219-63.75-41.398-313.85-156.17-232.96-83.699 58.961-105.77 186.41-93.676 281.47 13.371 97.43 52.285 189.59 112.79 267.12 0.61719-0.47656 1.2266-0.9375 1.875-1.5 1.875-16.051-14.484-39.965-19.332-49.594-34.293-72.758-63.402-146.14-63.336-227.91 0.074218-54.723 7.3125-131.16 50.766-170.62v-0.003907c4.5156-4.4883 10.195-7.6367 16.398-9.082 9.4805-4.2695 20.027-5.582 30.262-3.7656 10.238 1.8164 19.688 6.6758 27.121 13.945 36.207 32.242 33.133 79.172 42.629 123.17 13.402 60.594 31.566 120.04 54.32 177.77 11.305 28.766 24.285 56.844 38.867 84.094 6.2852 14.09 15.43 26.723 26.852 37.098 2.0547 0.41406 4.0312 0.75 5.9453 0.9375-15.441-50.008-41.465-95.852-54.723-146.25-12.535-47.578-15.613-95.258-20.59-143.91z"/>
 <path class = "editable" d="m710.18 962.51c-5.8906-40.973-7.4922-82.445-4.7812-123.75 2.2617-48.242-0.41406-96.59-7.9883-144.29-7.4414-34.914-10.109-70.676-7.9297-106.3 2.625-32.918 10.562-65.195 23.504-95.578 7.6914-15.016 14.07-30.672 19.059-46.789 7.5-29.176-4.2266-78.367-48.43-63.328-36.562 12.43-62.445 32.242-102.89 28.961v-0.003906c-25.727-2.4531-50.145-12.484-70.164-28.828-20.289-18.852-35.523-50.961-61.078-63.262-60.938-29.305-28.555 74.738-25.199 96.562 7.1133 40.562 8.8555 81.887 5.1836 122.91-3.957 35.043-17.484 68.523-28.555 101.73-30.328 90.863-24.863 185.41-5.2578 278.44l-0.003906 0.003906c8.4609 47.25 23.91 92.977 45.844 135.67 13.527 24.664 29.445 64.492 55.539 80.758 5.4023 1.0156 10.973 0.64062 16.191-1.0977-64.012-84.375-110.4-187.5-116.34-294.1-3.7461-56.098 4.6211-112.34 24.531-164.92 15.57-40.453 43.715-91.754 85.191-111.02 104.46-48.645 137.25 86.992 153.23 162.21 14.277 67.152 12.367 136.63 27.805 203.44 13.801 59.773 44.129 113.68 61.48 172.64h0.003906c1.3438-0.25391 2.668-0.59375 3.9648-1.0195 2.2188-1.8281 4.2344-3.8906 6.0078-6.1523 0.61328-0.83594 1.4727-1.457 2.457-1.7812-0.78906-0.67969-1.3984-1.5469-1.7695-2.5195-16.258-42.555-41.879-83.074-49.605-128.57z"/>
 <path class = "editable" d="m899.29 211.88c-26.57-14.352-56.156-6.7695-84.711-5.4648h-0.003906c-22.77 1.8398-45.59-2.8516-65.785-13.527-15.789-8.4375-31.977-19.688-49.602-23.438-24.254-5.1836-36.824 3.4219-58.125 11.617-24.047 9.1602-42.562 8.3359-63.469-7.3125-10.996-8.1953-18.992-19.742-29.719-28.211-24.336-19.547-57.031-25.148-86.484-14.824-27.742 8.0547-43.453 4.4336-67.293-11.25-43.66-28.621-66.609 8.2031-82.941 44.137-34.977 77.258-4.5742 172.77 1.875 253.52 0.47656 6.2891 0.89062 12.508 1.3672 18.75 68.25-51.984-25.312-167.93 44.68-219.78 48.43-35.859 131.79-1.707 168.47 37.781 19.473 20.98 39.488 63.535 72.555 63.262 33.402-0.27344 62.512-15.938 91.473-30.938 36.562-18.852 76.66-39.824 114.84-13.387 28.762 19.875 37.098 68.652 33 100.76-6.8359 53.906-36.891 111.77-18.75 165.47 8.8125-25.895 18.582-51.508 29.719-76.648 22.133-50.008 51.984-100.63 66.066-153.58 5.3672-19.543 8.3672-39.656 8.9453-59.914-2.1641-15.855-11.902-29.664-26.109-37.023z"/>
 <path class = "editable" d="m814.69 432.71c10.93-42.355 33-148.59-35.805-159.38-53.898-8.4375-105.54 43.039-157.12 54.582-37.098 8.3359-61.012-12.496-82.117-40.031h0.003906c-23.684-33.039-57.816-57.133-96.883-68.379-39.375-10.594-88.266-6.9766-95.773 42.629-9.2891 61.754 33.676 146.4-31.566 187.94 5.2578 77.477 7.1055 155.08 8.2031 232.75 1.1797 85.254-4.9609 173.11 24.75 254.67 11.137 30.469 63.066 134.45 113.62 178.45-9.7695-14.484-17.691-30.676-25.48-45h-0.003907c-21.562-38.703-37.461-80.297-47.203-123.52-20.773-92.297-36.758-196.07-7.5-288.16 16.332-51.309 38.055-101.39 37.445-156.18-0.47656-47.68-9.9102-92.504-17.906-139.1-2.7266-15.844-8.2578-46.387 9.8438-56.43v0.003906c8.1914-4.2969 17.48-6.043 26.672-5.0078s17.859 4.8008 24.891 10.809c27.871 22.004 43.125 57.602 76.648 72.422 34.359 15.234 68.25 19.266 102.68 1.707 14.809-8.4727 30.75-14.785 47.344-18.75 12.25-1.2891 24.566 1.7305 34.832 8.5391 10.266 6.8047 17.84 16.977 21.418 28.766 5.9453 27.328-4.1719 52.5-15.309 77.195v-0.003906c-22.621 47.164-32.828 99.32-29.645 151.53 3.8906 47.812 15.234 94.285 16.668 142.45 1.5 52.949-6.9648 106.78-0.20703 159.46 6.2148 48.91 31.426 90.656 45.094 135.13v-2.5312c0-9.375 0.13281-18.75-0.75781-28.012-1.707-16.734-0.27344-33.195-0.60938-50.008-1.6406-91.82-3.1406-181.59 13.734-272.32v-0.003906c9.9766-54.984 23.387-109.29 40.164-162.59-0.36719-0.35547-0.66406-0.76953-0.88281-1.2305-18.535-40.434-9.9258-80.941 0.76953-122.41z"/>
</svg>
